<?xml version="1.0" standalone="no"?>
<!DOCTYPE svg PUBLIC "-//W3C//DTD SVG 1.1//EN" "http://www.w3.org/Graphics/SVG/1.1/DTD/svg11.dtd" >
<svg xmlns="http://www.w3.org/2000/svg">
<metadata></metadata>
<defs>
<font id="lineto-lettera-pro-regular" horiz-adv-x="1310" >
<font-face units-per-em="2048" ascent="1489" descent="-559" />
<missing-glyph horiz-adv-x="500" />
<glyph unicode="&#xd;" />
<glyph unicode=" " />
<glyph unicode="!" d="M528 113q0 51 37 88t88 37q55 0 92 -36.5t37 -88.5q0 -55 -37 -92t-92 -37q-52 0 -88.5 37t-36.5 92zM561 1337q0 38 27 65.5t65 27.5t65 -27.5t27 -65.5l-53 -931h-78z" />
<glyph unicode="&#x22;" d="M303 1305q0 51 38 88t89 37t89 -37t38 -88q0 -96 -57 -289q-5 -18 -58 -176h-24q-53 158 -58 176q-57 193 -57 289zM754 1305q0 51 38 88t89 37t89 -37t38 -88q0 -93 -58 -289q-13 -45 -57 -176h-25q-44 131 -57 176q-57 193 -57 289z" />
<glyph unicode="#" d="M43 360l14 111h299l54 389h-304l15 111h303l49 356h107l-50 -356h328l49 356h107l-49 -356h303l-15 -111h-303l-53 -389h307l-14 -111h-307l-49 -360h-107l49 360h-327l-50 -360h-106l49 360h-299zM463 471h328l53 389h-328z" />
<glyph unicode="$" d="M104 453h127q55 -176 170 -258q112 -80 291 -80q196 0 293 69q109 80 109 234q0 70 -58 125q-78 75 -221 94l-334 45q-142 19 -239 109q-97 97 -97 229q0 168 156 270q129 87 301 94v215h115v-219q151 -15 252 -82q132 -88 202 -288h-131q-59 138 -153 198 q-92 60 -258 60q-135 0 -244 -64q-117 -84 -117 -194q0 -79 60 -136q63 -60 164 -73l335 -41q203 -25 312 -146q80 -87 80 -202q0 -200 -144 -310q-129 -99 -358 -102v-219h-115v225q-164 21 -285 113q-75 57 -132.5 147t-80.5 187z" />
<glyph unicode="%" d="M31 311l1077 791h170l-1077 -791h-170zM123 1155q0 114 81.5 196.5t196.5 82.5t198 -82.5t83 -196.5q0 -117 -82.5 -199t-198.5 -82t-197 82t-81 199zM233 1155q0 -70 49.5 -120t118.5 -50t119.5 50t50.5 120q0 68 -50.5 118t-119.5 50t-118.5 -50t-49.5 -118zM627 260 q0 114 81.5 196.5t196.5 82.5t198 -82.5t83 -196.5q0 -117 -82.5 -198.5t-198.5 -81.5t-197 81.5t-81 198.5zM737 260q0 -70 49.5 -120t118.5 -50t119.5 50t50.5 120q0 68 -50.5 118t-119.5 50t-118.5 -50t-49.5 -118z" />
<glyph unicode="&#x26;" d="M59 403q0 73 32.5 143t79 117.5t93 84t78.5 54.5l33 17q-8 9 -21.5 24t-47.5 58t-59.5 82t-47 85.5t-21.5 78.5q0 120 90.5 201.5t214.5 81.5q123 0 212 -81.5t89 -201.5q0 -57 -27 -114.5t-65 -98t-76 -73t-65 -48.5l-27 -16l369 -502q52 61 86 123t70 172l114 -39 q-64 -215 -194 -352v-9l45 -47q26 -26 67 -26h201v-117h-205q-92 0 -151 74l-37 47q-172 -137 -387 -137q-187 0 -315 122t-128 297zM184 406q0 -126 91.5 -215t220.5 -89q172 0 311 111v16l-363 498h-10q-10 -5 -27 -15.5t-60 -43.5t-76 -68t-60 -88t-27 -106zM303 1141 q0 -34 40.5 -97.5t72 -102t41.5 -48.5h12q8 4 22 12t46 32.5t57 51.5t45 68t20 84q0 71 -52.5 119.5t-125.5 48.5q-71 0 -124.5 -49t-53.5 -119z" />
<glyph unicode="'" d="M530 1305q0 51 38 88t89 37t89 -37t38 -88q0 -96 -57 -289q-13 -45 -57 -176h-25q-44 131 -57 176q-58 196 -58 289z" />
<glyph unicode="(" d="M541 608v6q1 123 27 251t61 224t83.5 192.5t81.5 150t68 102.5h113q-12 -17 -32.5 -47t-72.5 -128t-92 -200t-73.5 -251.5t-34.5 -293.5v-4q0 -142 31 -288t76 -252.5t89.5 -192.5t75.5 -130l31 -44h-113q-35 49 -70 103.5t-82.5 148.5t-82 189t-59.5 219.5t-25 244.5z " />
<glyph unicode=")" d="M336 1534h113q35 -49 68 -102.5t81.5 -150t83.5 -192.5t61 -224t27 -251v-6q0 -120 -25 -244.5t-59.5 -219.5t-82 -189t-82.5 -148.5t-70 -103.5h-113q6 8 17 23.5t42.5 67t60 106.5t63.5 139.5t60.5 169t42.5 191t17 210.5v4q-1 144 -33 291.5t-76.5 255.5t-89 195.5 t-75.5 132.5z" />
<glyph unicode="*" d="M186 817l299 172l101 31q-18 7 -55.5 18t-47.5 15l-297 172l58 98l288 -168l89 -74q-3 18 -11.5 54.5t-11.5 54.5v338h115v-338l-23 -109q15 11 47 38.5t41 35.5l289 168l57 -98l-297 -172l-104 -33q73 -23 102 -31l297 -172l-57 -100l-289 168l-86 73q3 -18 11.5 -54.5 t11.5 -51.5v-338h-115v338l20 104q-44 -40 -83 -71l-291 -168z" />
<glyph unicode="+" d="M209 653v111h385v389h121v-389h385v-111h-385v-393h-121v393h-385z" />
<glyph unicode="," d="M481 -250q115 115 162 242q-46 0 -80.5 35.5t-34.5 85.5q0 51 37 88t88 37q56 0 92.5 -40t36.5 -106v-22q-4 -61 -30 -124t-60 -109t-67 -84t-55 -57l-23 -20z" />
<glyph unicode="-" d="M360 438v111h590v-111h-590z" />
<glyph unicode="." d="M528 113q0 51 37 88t88 37q55 0 92 -36.5t37 -88.5q0 -55 -37 -92t-92 -37q-52 0 -88.5 37t-36.5 92z" />
<glyph unicode="/" d="M154 0l839 1413h142l-840 -1413h-141z" />
<glyph unicode="0" d="M193 711q0 316 122 508q131 211 342 211q205 0 336 -211q123 -193 123 -508q0 -316 -123 -516q-129 -211 -336 -211q-213 0 -342 211q-122 198 -122 516zM317 711q0 -262 89 -432q95 -181 249 -181q153 0 248 181q88 168 88 432q0 262 -88 426q-95 178 -248 178 q-154 0 -249 -178q-89 -166 -89 -426z" />
<glyph unicode="1" d="M387 1104v113q68 0 128 9t116 30t88.5 61t32.5 96h120v-1413h-120v1194h-15q-73 -54 -156 -72t-194 -18z" />
<glyph unicode="2" d="M145 0v12q0 125 31.5 206.5t99.5 154.5q58 62 149.5 128t246.5 167q65 42 110 84t68 73.5t35 69t14 58.5t2 53v12q0 41 -20.5 90.5t-57 96.5t-98 78.5t-133.5 31.5q-66 0 -120.5 -23.5t-88 -59t-56.5 -77.5t-32.5 -77t-9.5 -60h-125v18q0 33 13 79t46 102t80 103 t123.5 78.5t167.5 31.5q83 0 156 -28t123 -71.5t86.5 -96.5t53.5 -104t17 -94v-4q0 -46 -4 -82t-21 -90.5t-47 -100.5t-88 -101t-139 -103q-267 -160 -362 -260q-49 -56 -72 -111v-73h788v-111h-936z" />
<glyph unicode="3" d="M190 348h127q19 -108 110 -179t212 -71q135 0 230.5 87.5t95.5 213.5q0 122 -92 211.5t-220 89.5h-141v113h127q119 0 203 73t84 177q0 106 -84 180t-203 74t-202.5 -73t-84.5 -179l-123 39q17 138 134.5 232t273.5 94q171 0 292.5 -106.5t121.5 -258.5 q0 -87 -58.5 -166.5t-148.5 -132.5v-16q106 -59 176 -153.5t70 -199.5q0 -113 -60.5 -208t-165 -150t-227.5 -55q-171 0 -299 104t-148 260z" />
<glyph unicode="4" d="M111 395v84l677 934h154v-907h256v-111h-256v-395h-121v395h-710zM258 506h563v756h-4q-115 -160 -287.5 -389.5t-271.5 -366.5z" />
<glyph unicode="5" d="M250 387l123 19q1 -6 2.5 -17.5t9.5 -43.5t20.5 -61t37 -64.5t56.5 -61t81.5 -43t109.5 -17.5q61 0 111 17.5t83 45t57.5 66t37.5 75t21 77.5t10 67.5t2 51.5q0 39 -6.5 81t-26 92t-48.5 88.5t-80 64.5t-116 26q-58 0 -113 -27.5t-89.5 -64t-56 -67t-23.5 -42.5l-146 17 l72 747h698v-110h-585q-5 -49 -24.5 -218t-27.5 -260h6q53 62 129.5 106t165.5 44q94 0 167 -34.5t115.5 -85.5t69.5 -117.5t36.5 -123t9.5 -110.5q0 -32 -3 -67t-14 -88t-29.5 -100t-53 -97t-80 -86t-115 -59t-154.5 -23q-74 0 -137.5 19t-106.5 49t-78 70.5t-55.5 78 t-35 78t-20 65t-7.5 43.5z" />
<glyph unicode="6" d="M190 705q0 200 58.5 363.5t172 262.5t261.5 99q314 0 434 -316l-110 -39q-87 240 -320 240q-170 0 -270.5 -175t-100.5 -454h9q57 114 149 186t199 72q128 0 234.5 -65.5t166.5 -177t60 -244.5q0 -97 -35.5 -184.5t-95.5 -150.5t-143.5 -100.5t-176.5 -37.5 q-150 0 -260.5 84.5t-171.5 240.5q-60 162 -60 396zM354 463q0 -152 95.5 -258.5t230.5 -106.5q137 0 232.5 106.5t95.5 258.5t-96 259t-232 107q-135 0 -230.5 -107t-95.5 -259z" />
<glyph unicode="7" d="M256 1303v110h848v-115q-11 -9 -29 -26t-70.5 -78t-100 -131t-105.5 -184t-100 -238t-70.5 -293t-28.5 -348h-123v6q0 187 31.5 365.5t77.5 310.5t109.5 253.5t116 197t108.5 139.5v31h-664z" />
<glyph unicode="8" d="M205 397q0 106 68.5 200.5t175.5 152.5v14q-91 55 -148 133.5t-57 167.5q0 152 120.5 258.5t288.5 106.5q171 0 292.5 -106.5t121.5 -258.5q0 -87 -58.5 -166.5t-148.5 -132.5v-16q106 -59 176 -153.5t70 -199.5q0 -113 -60.5 -208t-165 -150t-227.5 -55 q-185 0 -316.5 121t-131.5 292zM330 399q0 -126 95 -213.5t230 -87.5t230.5 87.5t95.5 213.5q0 122 -91.5 211.5t-219.5 89.5h-29q-131 -6 -221 -93t-90 -208zM369 1063q0 -104 83.5 -177t202.5 -73t203 73t84 177q0 106 -84 180t-203 74t-202.5 -74t-83.5 -180z" />
<glyph unicode="9" d="M180 956q0 129 59.5 238t163.5 172.5t228 63.5q150 0 260.5 -85t171.5 -241q59 -160 59 -395q0 -200 -58 -363.5t-171.5 -262.5t-261.5 -99q-315 0 -434 315l110 39q87 -240 320 -240q170 0 270 175t100 454h-8q-57 -114 -149 -186t-199 -72q-128 0 -234.5 65.5 t-166.5 177t-60 244.5zM305 950q0 -152 96 -259t232 -107q135 0 230 107t95 259t-95 258.5t-230 106.5q-137 0 -232.5 -106.5t-95.5 -258.5z" />
<glyph unicode=":" d="M528 113q0 51 37 88t88 37q55 0 92 -36.5t37 -88.5q0 -55 -37 -92t-92 -37q-52 0 -88.5 37t-36.5 92zM528 868q0 51 37 88t88 37q55 0 92 -36.5t37 -88.5q0 -56 -37 -92.5t-92 -36.5q-52 0 -88.5 37t-36.5 92z" />
<glyph unicode=";" d="M481 -250q115 115 162 242q-46 0 -80.5 35.5t-34.5 85.5q0 51 37 88t88 37q56 0 92.5 -40t36.5 -106v-22q-4 -61 -30 -124t-60 -109t-67 -84t-55 -57l-23 -20zM528 868q0 51 37 88t88 37q55 0 92 -36.5t37 -88.5q0 -56 -37 -92.5t-92 -36.5q-52 0 -88.5 37t-36.5 92z" />
<glyph unicode="&#x3c;" d="M291 729l663 664l78 -80l-573 -555v-60l573 -553l-78 -79z" />
<glyph unicode="=" d="M250 500v110h811v-110h-811zM250 807v111h811v-111h-811z" />
<glyph unicode="&#x3e;" d="M279 145l573 553v60l-573 555l77 80l664 -664l-664 -663z" />
<glyph unicode="?" d="M317 1104q0 80 31.5 143.5t84.5 102.5t117.5 59.5t135.5 20.5q175 0 274 -90.5t99 -223.5q0 -123 -78 -201l-244 -249q-22 -22 -22 -76v-184h-121v204q0 38 14 72t25 47t31 33l219 219q51 51 51 123q0 90 -65 150.5t-181 60.5q-110 0 -178 -61t-68 -150h-125zM528 113 q0 51 37 88t88 37q55 0 92 -36.5t37 -88.5q0 -55 -37 -92t-92 -37q-52 0 -88.5 37t-36.5 92z" />
<glyph unicode="@" d="M119 668q0 89 0.5 134.5t3 109t8.5 96.5t16 76.5t26 72t38 59.5t53 60q78 74 177.5 114t203.5 40q110 0 210.5 -40t178.5 -114q31 -29 53.5 -60t38 -59.5t26 -71.5t16 -77t8.5 -96t3.5 -109t0.5 -135v-367h-172q-62 0 -111 23.5t-63 72.5q-71 -106 -232 -106 q-21 0 -43.5 2t-62.5 15.5t-69.5 35.5t-52.5 68.5t-24 109.5q0 50 20.5 88t59.5 63t78 40.5t94 29.5l205 52v22q0 113 -139 113q-47 0 -82 -12t-51.5 -27.5t-26 -34.5t-11 -28t-1.5 -13h-111q0 5 0.5 13t6.5 31t16 44t31.5 47t50 44.5t75.5 31t105 12.5q65 0 113 -17 t72.5 -40.5t39 -58t17.5 -59t3 -54.5v-338q0 -35 19 -49t57 -14h74v258q0 90 -0.5 137.5t-4 107t-10 92t-19 70t-30.5 65t-45 54.5q-59 59 -140.5 91t-168.5 32q-85 0 -165.5 -32t-139.5 -91q-27 -27 -45 -54.5t-30.5 -65t-19 -70t-10 -92t-4 -107t-0.5 -137.5 q0 -88 0.5 -135t4 -105.5t10 -91t19 -70t30.5 -65t45 -54.5q59 -59 139.5 -90.5t165.5 -31.5q76 0 135 11.5t103.5 36t68.5 43t60 52.5l82 -84q-33 -31 -55.5 -50.5t-65 -45.5t-85 -41t-106.5 -26t-139 -11q-104 0 -203.5 40t-177.5 113q-31 29 -53 60t-38 59.5t-26 72 t-16 76.5t-8.5 96t-3 108.5t-0.5 134.5zM459 526q1 -34 14 -59.5t30.5 -38t40.5 -19.5t36.5 -8.5t25.5 -1.5q22 0 52.5 8t65.5 26t59 54t24 84v125l-180 -43q-83 -21 -125.5 -47.5t-42.5 -79.5z" />
<glyph unicode="A" d="M109 0l446 1413h199l450 -1413h-133l-133 420h-563l-133 -420h-133zM412 539h487l-244 782h-2z" />
<glyph unicode="B" d="M193 0v1413h583q154 0 262.5 -108.5t108.5 -262.5q0 -92 -51.5 -173t-130.5 -136v-22q94 -50 156.5 -139.5t62.5 -192.5q0 -158 -109.5 -268.5t-265.5 -110.5h-616zM317 117h469q110 0 189.5 79.5t79.5 192.5q0 110 -80 189t-189 79h-469v-540zM317 774h437 q108 0 186 76.5t78 187.5q0 107 -78 182.5t-186 75.5h-437v-522z" />
<glyph unicode="C" d="M100 707q0 325 176 526q80 94 189 145.5t233 51.5q188 0 340 -130q71 -63 124 -155.5t79 -202.5h-129q-50 182 -156 275q-108 92 -258 92q-206 0 -331 -158q-138 -171 -138 -446q0 -135 36.5 -250t101.5 -195q123 -156 331 -156q162 0 265 95q110 100 155 293h127 q-24 -116 -77 -213.5t-124 -163.5q-146 -131 -346 -131q-124 0 -233 50.5t-191 145.5q-174 200 -174 527z" />
<glyph unicode="D" d="M131 0v1413h442q232 0 385 -102q261 -173 261 -604q0 -434 -261 -607q-151 -100 -385 -100h-442zM256 117h324q183 0 303 82q207 147 207 510q0 373 -224 514q-119 73 -307 73h-303v-1179z" />
<glyph unicode="E" d="M217 0v1413h916v-117h-791v-522h729v-117h-729v-540h852v-117h-977z" />
<glyph unicode="F" d="M244 0v1413h915v-117h-790v-522h729v-117h-729v-657h-125z" />
<glyph unicode="G" d="M41 707q0 325 176 526q80 94 189 145.5t233 51.5q188 0 340 -121q76 -60 136 -150.5t81 -187.5h-127q-58 164 -174 254q-108 84 -256 84q-96 0 -181 -42.5t-149 -119.5q-139 -171 -139 -438q0 -274 139 -445q63 -77 148.5 -118.5t181.5 -41.5q82 0 161 35.5t140 100.5 q131 138 143 366h-430v117h547v-723h-125v248q-70 -122 -180 -191q-110 -73 -256 -73q-124 0 -233 50t-191 144q-174 203 -174 529z" />
<glyph unicode="H" d="M123 0v1413h125v-612h815v612h125v-1413h-125v684h-815v-684h-125z" />
<glyph unicode="I" d="M229 0v117h365v1179h-365v117h854v-117h-364v-1179h364v-117h-854z" />
<glyph unicode="J" d="M129 356l125 45q28 -139 115 -218t239 -79q187 0 271 104.5t84 301.5v903h124v-926q0 -246 -112.5 -374.5t-362.5 -128.5q-207 0 -326.5 98.5t-156.5 273.5z" />
<glyph unicode="K" d="M248 0v1413h125v-690l714 690h166l-628 -602v-55l665 -756h-160l-589 670h-62l-106 -105v-565h-125z" />
<glyph unicode="L" d="M256 0v1413h125v-1296h840v-117h-965z" />
<glyph unicode="M" d="M109 0v1413h215l325 -1134h13l325 1134h215v-1413h-125v1286l-317 -1116h-209l-318 1116v-1286h-124z" />
<glyph unicode="N" d="M109 0v1413h225l733 -1325h10v1325h125v-1413h-225l-735 1325h-9v-1325h-124z" />
<glyph unicode="O" d="M59 707q0 323 177 526q82 94 191.5 145.5t231.5 51.5q120 0 228 -51.5t188 -145.5q174 -199 174 -526q0 -329 -172 -529q-82 -94 -190 -144t-228 -50q-123 0 -233 50.5t-193 145.5q-174 200 -174 527zM188 707q0 -272 140 -441q63 -78 147.5 -120t179.5 -42t180 42 t148 120q137 170 137 441q0 268 -137 438q-63 78 -148 121t-180 43t-179.5 -42.5t-147.5 -121.5q-140 -169 -140 -438z" />
<glyph unicode="P" d="M199 0v1413h641q157 0 267 -119t110 -290q0 -172 -110.5 -295t-266.5 -123h-516v-586h-125zM324 702h499q108 0 186 87.5t78 209.5t-78 209.5t-186 87.5h-499v-594z" />
<glyph unicode="Q" d="M59 707q0 323 177 526q82 94 191.5 145.5t231.5 51.5q120 0 228 -51.5t188 -145.5q174 -199 174 -526q0 -329 -172 -529q-54 -60 -127 -110l176 -324l-108 -57l-178 327q-86 -30 -181 -30q-123 0 -233 50.5t-193 145.5q-174 200 -174 527zM188 707q0 -272 140 -441 q63 -78 147.5 -120t179.5 -42t180 42t148 120q137 170 137 441q0 268 -137 438q-63 78 -148 121t-180 43t-179.5 -42.5t-147.5 -121.5q-140 -169 -140 -438z" />
<glyph unicode="R" d="M178 0v1413h598q154 0 262.5 -121t108.5 -291q0 -139 -72.5 -247t-187.5 -148l323 -606h-139l-313 586h-455v-586h-125zM303 702h451q109 0 186.5 86t77.5 209q0 125 -77.5 212t-186.5 87h-451v-594z" />
<glyph unicode="S" d="M66 457h133q59 -188 178 -271q114 -82 303 -82q204 0 305 72q115 83 115 244q0 73 -60 133q-24 24 -53.5 42t-54.5 28t-66 18.5t-66.5 11.5t-80 9t-84.5 10q-90 11 -125.5 16t-91.5 16t-83.5 23.5t-61 33t-64.5 50.5q-100 97 -100 240q0 172 161 280q147 99 340 99 q229 0 359 -91q139 -94 211 -301h-138q-59 146 -157 209q-101 62 -273 62q-141 0 -250 -70q-124 -77 -124 -201q0 -80 61 -141q44 -44 114 -65t253 -37q198 -18 301 -52.5t180 -115.5q82 -85 82 -213q0 -208 -148 -322q-141 -108 -395 -108q-233 0 -399 125 q-77 59 -137.5 153.5t-83.5 194.5z" />
<glyph unicode="T" d="M106 1296v117h1100v-117h-489v-1296h-125v1296h-486z" />
<glyph unicode="U" d="M115 535v878h125v-854q0 -100 22.5 -180t70 -143t129.5 -97.5t193 -34.5t193 34.5t130 97.5t70.5 143.5t22.5 179.5v854h125v-878q0 -121 -30 -218.5t-92.5 -173.5t-169 -117.5t-249.5 -41.5t-249.5 41.5t-168.5 117.5t-92 173.5t-30 218.5z" />
<glyph unicode="V" d="M102 1413h136l413 -1321h6l414 1321h135l-450 -1413h-203z" />
<glyph unicode="W" d="M80 1413h129l197 -1282l147 1012h207l147 -1012l197 1282h129l-227 -1413h-191l-158 1049h-2l-157 -1049h-191z" />
<glyph unicode="X" d="M45 0l506 674v100l-479 639h155l410 -559h37l411 559h156l-481 -643v-94l506 -676h-156l-440 598h-31l-438 -598h-156z" />
<glyph unicode="Y" d="M98 1413h146l397 -616h27l397 616h145l-493 -754v-659h-125v659z" />
<glyph unicode="Z" d="M59 0v123l975 1159v14h-907v117h1059v-121l-975 -1161v-14h1034v-117h-1186z" />
<glyph unicode="[" d="M555 -291v1819h332v-111h-211v-1597h211v-111h-332z" />
<glyph unicode="\" d="M176 1413h141l840 -1413h-141z" />
<glyph unicode="]" d="M424 -180h211v1597h-211v111h332v-1819h-332v111z" />
<glyph unicode="^" d="M291 870l266 535h197l266 -535h-164l-201 437l-200 -437h-164z" />
<glyph unicode="_" d="M238 0h835v-111h-835v111z" />
<glyph unicode="`" d="M377 1456l504 -188l22 -113l-491 129z" />
<glyph unicode="a" d="M152 307q0 56 22.5 104.5t58 82t84 60t96 42.5t99.5 27l350 73v54q0 25 -3 45t-16.5 49.5t-37.5 50t-71 35t-111 14.5q-83 0 -144 -20.5t-89.5 -50t-45 -58.5t-18.5 -49l-2 -21h-121q0 7 1 18t10 43.5t24 62.5t47 66t75 62t112.5 44t154.5 18q95 0 164.5 -23t105 -54.5 t55.5 -78t24.5 -79.5t4.5 -74v-541q0 -17 3.5 -34t14 -38t34.5 -34.5t59 -14.5q32 0 58 15.5t33 25.5t11 18l102 -51q-2 -4 -8.5 -13.5t-24.5 -27.5t-40 -33t-57.5 -26.5t-75.5 -11.5q-95 0 -144 44.5t-61 108.5h-19q-79 -86 -174.5 -119.5t-159.5 -33.5q-22 0 -42.5 1 t-61.5 7.5t-74 18.5t-72.5 36t-66 57t-45 85.5t-18.5 117.5zM272 309q0 -40 12.5 -73.5t31.5 -54.5t44.5 -37.5t49.5 -24.5t50 -13.5t41.5 -6.5t28.5 -1q76 0 152.5 34t128 94.5t51.5 129.5v230l-307 -66q-50 -11 -88 -22.5t-76.5 -29t-63 -39t-40 -52t-15.5 -68.5z" />
<glyph unicode="b" d="M203 0v1413h121v-565h12q71 101 160 156t190 55q128 0 235.5 -72.5t169.5 -196.5t62 -270q0 -145 -62 -268.5t-169.5 -195.5t-235.5 -72q-211 0 -350 198h-12v-182h-121zM324 504q5 -183 99 -294.5t255 -111.5q148 0 249 122.5t101 299.5q0 179 -101 301.5t-249 122.5 q-166 0 -260 -115.5t-94 -306.5v-18z" />
<glyph unicode="c" d="M168 520q0 117 38 218.5t103 171t153.5 109.5t186.5 40q170 0 300.5 -113.5t166.5 -298.5h-129q-34 136 -126.5 216.5t-211.5 80.5q-150 0 -253 -119t-103 -305t102.5 -304t253.5 -118q108 0 195.5 65t128.5 179h131q-47 -163 -172 -260.5t-283 -97.5q-98 0 -186.5 39.5 t-153.5 108.5t-103 170t-38 218z" />
<glyph unicode="d" d="M158 520q0 146 62 270t169.5 196.5t235.5 72.5q101 0 190 -55t160 -156h12v565h121v-1413h-121v182h-12q-139 -198 -350 -198q-128 0 -235.5 72t-169.5 195.5t-62 268.5zM283 520q0 -177 101 -299.5t249 -122.5q161 0 255 111.5t99 294.5v18q0 191 -94 306.5t-260 115.5 q-148 0 -249 -122.5t-101 -301.5z" />
<glyph unicode="e" d="M180 520q0 117 39 218.5t105.5 171t156 109.5t189.5 40q203 0 334 -150.5t131 -388.5v-33h-826q4 -170 113.5 -279.5t263.5 -109.5q110 0 191.5 62t126.5 172l108 -49q-60 -139 -178 -219t-264 -80q-100 0 -189.5 39.5t-156 108.5t-105.5 170t-39 218zM309 594h697 q-19 158 -111.5 254t-226.5 96q-139 0 -239.5 -96.5t-119.5 -253.5z" />
<glyph unicode="f" d="M233 928v110h302v97q0 64 20.5 121.5t61 104t109 74t155.5 27.5q102 0 200 -41t156 -121l-98 -65q-40 55 -111.5 84t-146.5 29q-111 0 -168.5 -60.5t-57.5 -146.5v-103h387v-110h-387v-928h-120v928h-302z" />
<glyph unicode="g" d="M184 537q0 144 59.5 264t162.5 189t225 69q194 0 317 -170h10v149h121v-1032q0 -79 -25.5 -150t-75.5 -129t-133 -92t-190 -34q-126 0 -244 61t-184 182l107 52q50 -90 138 -135.5t183 -45.5q148 0 225.5 83.5t77.5 201.5v188q-54 -89 -133 -129.5t-194 -40.5 q-122 0 -225 69t-162.5 188.5t-59.5 261.5zM309 539q0 -168 94 -287t230 -119q61 0 118 21t103.5 60.5t75 104.5t28.5 146v135q0 85 -27.5 152.5t-74.5 108.5t-104 62t-119 21q-136 0 -230 -118.5t-94 -286.5z" />
<glyph unicode="h" d="M229 0v1413h121v-602h17q63 112 162 180t219 68q68 0 122 -15t88 -37t58.5 -54.5t36 -59t18 -59t7.5 -47t1 -29.5v-758h-121v735q0 12 -1.5 24.5t-7 40t-20.5 50t-37.5 45.5t-63.5 36t-93 13q-67 0 -134.5 -34t-124 -95t-91.5 -156t-35 -206v-453h-121z" />
<glyph unicode="i" d="M240 0v111h385v817h-330v110h450v-927h385v-111h-890zM569 1309q0 50 34 84t83 34q50 0 84.5 -34.5t34.5 -83.5t-34.5 -83t-84.5 -34t-83.5 34t-33.5 83z" />
<glyph unicode="j" d="M182 -236l107 54q37 -68 105.5 -101.5t142.5 -33.5q112 0 169.5 60t57.5 146v1039h-365v110h486v-1142q0 -64 -20.5 -121.5t-61.5 -104.5t-109.5 -74.5t-156.5 -27.5q-104 0 -202 49t-153 147zM709 1309q0 50 33.5 84t82.5 34q50 0 84.5 -34.5t34.5 -83.5t-34.5 -83 t-84.5 -34q-49 0 -82.5 33.5t-33.5 83.5z" />
<glyph unicode="k" d="M252 0v1413h121v-778h18l488 403h176l-420 -354v-20l516 -664h-158l-448 575h-29l-143 -120v-455h-121z" />
<glyph unicode="l" d="M240 0v111h385v1192h-330v110h450v-1302h385v-111h-890z" />
<glyph unicode="m" d="M94 0v1038h121v-149h27q53 89 102 129.5t117 40.5q175 0 235 -170h31q51 85 107.5 127.5t126.5 42.5q52 0 94.5 -13.5t69 -33.5t45.5 -49.5t28 -54t14.5 -54.5t6 -43.5t0.5 -28.5v-782h-121v766q0 15 -1 30t-9.5 44t-22.5 50t-43.5 37.5t-69.5 16.5q-87 0 -161 -107.5 t-74 -238.5v-598h-121v766q0 20 -3 40.5t-15 56.5t-44 58.5t-81 22.5q-87 0 -162.5 -107.5t-75.5 -238.5v-598h-121z" />
<glyph unicode="n" d="M229 0v1038h121v-227h17q63 112 162 180t219 68q68 0 122 -15t88 -37t58.5 -54.5t36 -59t18 -59t7.5 -47t1 -29.5v-758h-121v735q0 12 -1.5 24.5t-7 40t-20.5 50t-37.5 45.5t-63.5 36t-93 13q-67 0 -134.5 -34t-124 -95t-91.5 -156t-35 -206v-453h-121z" />
<glyph unicode="o" d="M168 520q0 156 66.5 280t177.5 191.5t245 67.5q132 0 242.5 -67.5t177 -191.5t66.5 -280q0 -234 -142 -385t-344 -151q-100 0 -189.5 39.5t-155.5 108.5t-105 170t-39 218zM293 520q0 -186 105 -304t257 -118t257.5 118.5t105.5 303.5q0 186 -105.5 305t-257.5 119 t-257 -119t-105 -305z" />
<glyph unicode="p" d="M203 -383v1421h121v-190h12q71 101 160 156t190 55q128 0 235.5 -72.5t169.5 -196.5t62 -270q0 -145 -62 -268.5t-169.5 -195.5t-235.5 -72q-211 0 -350 198h-12v-565h-121zM324 504q5 -183 99 -294.5t255 -111.5q148 0 249 122.5t101 299.5q0 179 -101 301.5t-249 122.5 q-166 0 -260 -115.5t-94 -306.5v-18z" />
<glyph unicode="q" d="M158 520q0 146 62 270t169.5 196.5t235.5 72.5q101 0 190 -55t160 -156h12v190h121v-1421h-121v565h-12q-139 -198 -350 -198q-128 0 -235.5 72t-169.5 195.5t-62 268.5zM283 520q0 -177 101 -299.5t249 -122.5q161 0 255 111.5t99 294.5v18q0 191 -94 306.5t-260 115.5 q-148 0 -249 -122.5t-101 -301.5z" />
<glyph unicode="r" d="M229 0v1038h121v-227h17q63 112 162 180t219 68q68 0 122 -15t87.5 -37t58 -54.5t36 -59t18 -59.5t7 -46.5t0.5 -29.5v-31h-119v8q0 12 -1.5 24.5t-7 40t-20.5 50t-37.5 45.5t-63.5 36t-93 13q-67 0 -134.5 -34t-124 -95t-91.5 -156t-35 -206v-453h-121z" />
<glyph unicode="s" d="M176 334h127q0 -5 7.5 -24.5t29.5 -53.5t51 -59q113 -93 289 -93q178 0 268 82q60 57 60 121q0 32 -11 56.5t-35 41t-46.5 27.5t-63 18t-64.5 10t-70.5 7t-64.5 6q-66 7 -111.5 14.5t-101.5 22t-97 38t-67 56.5q-57 74 -57 141q0 96 66 179q102 135 352 135 q258 0 375 -166q24 -36 37.5 -78t15.5 -59t2 -27h-123q0 57 -39 111q-77 104 -262 104t-258 -84q-41 -48 -41 -104q0 -30 12 -53t35.5 -40t51 -29t69.5 -20.5t79.5 -14t90.5 -11.5q195 -21 266 -40t121 -69q64 -64 64 -174q0 -38 -19.5 -89t-62.5 -99q-120 -133 -363 -133 q-248 0 -391 139q-41 40 -71 92.5t-40 82t-10 36.5z" />
<glyph unicode="t" d="M154 928v110h292v375h121v-375h508v-110h-508v-623q0 -86 58 -146.5t170 -60.5q74 0 142 33.5t105 101.5l107 -53q-55 -98 -152.5 -147t-201.5 -49q-88 0 -157 27.5t-109.5 74t-61.5 104t-21 121.5v617h-292z" />
<glyph unicode="u" d="M229 285v753h121v-731q0 -12 1.5 -24.5t7 -40t20.5 -50t37.5 -45.5t63.5 -36t93 -13q53 0 107.5 21t104 63.5t88.5 100.5t62 137.5t23 169.5v448h121v-1038h-121v233h-16q-63 -113 -162 -181t-219 -68q-68 0 -122.5 15t-88 37t-58.5 54.5t-36.5 59t-18 59t-7.5 47 t-1 29.5z" />
<glyph unicode="v" d="M186 1038h138l329 -944h4l330 944h137l-372 -1038h-193z" />
<glyph unicode="w" d="M90 1038h123l176 -866l193 750h147l193 -750l176 866h123l-226 -1038h-143l-197 778l-196 -778h-144z" />
<glyph unicode="x" d="M201 0l374 528v25l-352 485h148l284 -403h4l285 403h148l-353 -485v-25l375 -528h-147l-308 446h-4l-307 -446h-147z" />
<glyph unicode="y" d="M-55 -285l94 72q102 -131 233 -131q74 0 121.5 29.5t65.5 78.5l102 279l-440 995h137l363 -807h12l307 807h137l-504 -1310q-33 -85 -108 -136t-191 -51q-196 0 -329 174z" />
<glyph unicode="z" d="M215 0v117l686 811v6h-635v104h781v-102l-687 -813v-6h736v-117h-881z" />
<glyph unicode="{" d="M485 563v129q152 50 152 201v379q0 139 36.5 197.5t133.5 58.5h72v-115h-70q-34 0 -41.5 -40t-7.5 -146v-359q0 -184 -125 -243q125 -70 125 -236v-424q0 -36 1 -56t5.5 -42.5t15 -32.5t27.5 -10h70v-115h-70q-62 0 -101.5 41.5t-55 105t-15.5 150.5v359q0 134 -152 198z " />
<glyph unicode="|" d="M594 -209v1819h123v-1819h-123z" />
<glyph unicode="}" d="M432 -176h70q17 0 27.5 10t15 32.5t5.5 42.5t1 56v424q0 166 125 236q-125 59 -125 243v359q0 106 -7.5 146t-41.5 40h-70v115h72q97 0 133.5 -58.5t36.5 -197.5v-379q0 -151 151 -201v-129q-151 -63 -151 -198v-359q0 -87 -15.5 -150.5t-55 -105t-101.5 -41.5h-70v115z " />
<glyph unicode="~" d="M225 649q92 101 157.5 135.5t125.5 34.5q40 0 76.5 -10t55.5 -20t50 -29q71 -57 115 -62h-2q27 0 48.5 5t64.5 34t90 84l90 -78q-92 -101 -157.5 -135.5t-125.5 -34.5q-40 0 -76.5 10.5t-55 20t-50.5 29.5q-69 56 -115 61h2q-27 0 -48.5 -5t-64.5 -34t-90 -84z" />
<glyph unicode="&#xa0;" />
<glyph unicode="&#xa1;" d="M528 891q0 55 36.5 92t88.5 37q55 0 92 -37t37 -92q0 -52 -37 -88.5t-92 -36.5q-51 0 -88 37t-37 88zM561 -334l53 932h78l53 -932q0 -38 -27 -65t-65 -27t-65 27t-27 65z" />
<glyph unicode="&#xa2;" d="M168 692q0 220 123.5 368t308.5 167v164h100v-164q154 -17 268.5 -128t147.5 -280h-129q-30 120 -107.5 198t-179.5 95v-838q92 14 164.5 77t108.5 163h131q-44 -150 -153.5 -245.5t-250.5 -110.5v-158h-100v158q-186 21 -309 167.5t-123 366.5zM293 692 q0 -170 87 -284.5t220 -133.5v838q-133 -21 -220 -136t-87 -284z" />
<glyph unicode="&#xa3;" d="M172 86q9 5 24 14.5t53.5 43.5t68 73t53.5 102.5t24 131.5q0 97 -24 251h-199v111h184q-37 220 -37 309q0 59 24 110t63 86.5t89.5 61t103 38t103.5 12.5q81 0 148 -23.5t107.5 -58t69 -75t39.5 -72.5t11 -52h-123q0 6 -7.5 23t-26.5 42t-46 48t-73 39t-101 16 q-58 0 -116 -23.5t-100 -73.5t-42 -116q0 -76 35 -291h498v-111h-479q24 -135 24 -262q0 -133 -127 -260q57 17 84 17q101 0 219 -41q115 -39 191 -39q69 0 111 41t42 102h121q0 -109 -75.5 -184.5t-182.5 -75.5q-93 0 -225 47q-129 45 -199 45q-48 0 -91.5 -12.5t-70 -27 t-79.5 -48.5l-9 -4z" />
<glyph unicode="&#xa4;" d="M231 342l121 113q-69 94 -69 215q0 113 65 207l-117 112l88 88l115 -114q99 73 223 73q121 0 220 -73l114 114l88 -88l-118 -112q67 -92 67 -207q0 -116 -70 -215l121 -113l-88 -88l-119 115q-96 -68 -215 -68q-124 0 -219 70l-119 -117zM399 666q0 -106 75 -181t181 -75 t181 75t75 181t-75 181t-181 75t-181 -75t-75 -181z" />
<glyph unicode="&#xa5;" d="M96 1393h146l411 -668l412 668h145l-428 -672h238v-111h-303v-207h303v-110h-303v-293h-125v293h-305v110h305v207h-305v111h239z" />
<glyph unicode="&#xa6;" d="M594 -209v715h123v-715h-123zM594 895v715h123v-715h-123z" />
<glyph unicode="&#xa7;" d="M252 838q0 143 188 231q-80 84 -80 154q0 86 85.5 146.5t207.5 60.5q123 0 210 -60.5t87 -146.5h-125q0 38 -50.5 65t-121.5 27q-73 0 -121.5 -28t-48.5 -77q0 -38 84 -106l338 -270q154 -121 154 -259q0 -145 -191 -233q82 -82 82 -152q0 -86 -85.5 -146t-207.5 -60 q-123 0 -210 60t-87 146h125q0 -38 50.5 -65t121.5 -27q74 0 122 27.5t48 77.5q0 38 -84 106l-337 271q-154 121 -154 258zM377 825q0 -28 14 -57t36 -52t33 -32.5t21 -17.5l312 -250h18q62 30 92.5 70.5t30.5 101.5q0 28 -14 57.5t-36.5 52.5t-33.5 33t-21 17l-311 249h-18 q-62 -30 -92.5 -70.5t-30.5 -101.5z" />
<glyph unicode="&#xa8;" d="M303 1321q0 50 34 84.5t83 34.5q50 0 84.5 -35t34.5 -84t-34.5 -83t-84.5 -34t-83.5 34t-33.5 83zM770 1321q0 50 34 84.5t83 34.5t84 -35t35 -84t-34.5 -83t-84.5 -34q-49 0 -83 34t-34 83z" />
<glyph unicode="&#xa9;" d="M174 705q0 133 65.5 246t178.5 179t246 66t246 -66t179 -179t66 -246t-66 -246t-179 -178.5t-246 -65.5q-99 0 -190 39t-156.5 104.5t-104.5 156.5t-39 190zM264 705q0 -164 118 -282t282 -118t282.5 118t118.5 282t-118.5 282.5t-282.5 118.5t-282 -118.5t-118 -282.5z M403 707q0 128 76 210t185 82q85 0 146.5 -49t88.5 -135l-84 -24q-17 58 -56.5 88t-94.5 30q-72 0 -120 -55.5t-48 -146.5q0 -92 48 -147.5t120 -55.5q116 0 151 117l84 -25q-27 -86 -87.5 -134t-147.5 -48q-110 0 -185.5 82t-75.5 211z" />
<glyph unicode="&#xaa;" d="M397 1030q0 40 16.5 70t48.5 50t63.5 31.5t76.5 22.5l166 39v14q0 14 -3.5 26.5t-14 28t-34.5 25t-59 9.5q-73 0 -106 -29t-33 -60h-92q0 13 3.5 30.5t18 45t37.5 49.5t67.5 38t102.5 16q201 0 201 -170v-265q0 -65 49 -65q29 0 45 16l76 -39q-48 -67 -123 -67 q-86 0 -108 86q-89 -86 -193 -86q-16 0 -35 2t-51 13t-56.5 29t-43 54.5t-19.5 85.5zM489 1034q1 -32 15.5 -53.5t37 -30t37.5 -11.5t29 -3q28 0 62.5 10.5t66 40.5t31.5 72v102l-145 -35q-63 -14 -98.5 -35t-35.5 -57z" />
<glyph unicode="&#xab;" d="M274 541v57l324 399l82 -77l-293 -338v-25l293 -338l-82 -78zM684 541v57l324 399l82 -77l-293 -338v-25l293 -338l-82 -78z" />
<glyph unicode="&#xac;" d="M238 653v111h794v-371h-121v260h-673z" />
<glyph unicode="&#xad;" d="M360 438v111h590v-111h-590z" />
<glyph unicode="&#xae;" d="M174 705q0 133 65.5 246t178.5 179t246 66t246 -66t179 -179t66 -246t-66 -246t-179 -178.5t-246 -65.5q-99 0 -190 39t-156.5 104.5t-104.5 156.5t-39 190zM264 705q0 -164 118 -282t282 -118t282.5 118t118.5 282t-118.5 282.5t-282.5 118.5t-282 -118.5t-118 -282.5z M471 436v559h244q67 0 115.5 -47t48.5 -112q0 -52 -32.5 -94.5t-84.5 -55.5l133 -250h-102l-129 238h-101v-238h-92zM563 760h135q39 0 63.5 21.5t24.5 52.5q0 33 -24.5 54t-63.5 21h-135v-149z" />
<glyph unicode="&#xaf;" d="M381 1257v111h549v-111h-549z" />
<glyph unicode="&#xb0;" d="M426 1200q0 97 66 163.5t163 66.5q95 0 161.5 -66.5t66.5 -163.5q0 -95 -66.5 -161t-161.5 -66q-97 0 -163 66t-66 161zM520 1200q0 -54 39 -93.5t96 -39.5q55 0 94 39.5t39 93.5q0 56 -39 95.5t-94 39.5q-57 0 -96 -39.5t-39 -95.5z" />
<glyph unicode="&#xb1;" d="M233 727v111h361v364h121v-364h358v-111h-358v-369h-121v369h-361zM238 129v111h835v-111h-835z" />
<glyph unicode="&#xb2;" d="M453 838v61q0 44 57.5 106t142.5 107q47 26 74 53t27 68q0 43 -29 72.5t-70 29.5t-68.5 -29.5t-27.5 -72.5h-96q0 82 56 139.5t134 57.5q82 0 139.5 -57.5t57.5 -139.5q0 -34 -12.5 -64.5t-26.5 -49.5t-48.5 -44t-51 -35t-62.5 -36q-36 -20 -59 -40t-29 -28.5t-6 -11.5 h301v-86h-403z" />
<glyph unicode="&#xb3;" d="M461 1012h94q0 -36 29.5 -63t70.5 -27t71 27t30 63q0 37 -30 64.5t-71 27.5h-34v86h34q35 0 59.5 22t24.5 52q0 28 -24.5 49.5t-59.5 21.5t-60.5 -21.5t-25.5 -49.5h-94q0 77 54.5 121.5t127.5 44.5q72 0 124.5 -46t52.5 -112q0 -46 -21 -72.5t-65 -52.5q50 -27 76 -59 t26 -84q0 -73 -57.5 -125t-139.5 -52q-80 0 -136 52.5t-56 132.5z" />
<glyph unicode="&#xb4;" d="M375 1155l22 113l504 188l-35 -172z" />
<glyph unicode="&#xb5;" d="M231 -362v1400h121v-524q0 -114 21.5 -195t63 -127t95 -67t123.5 -21q132 0 208.5 136t76.5 368v430h121v-1038h-121v190v-2q-49 -101 -120.5 -152.5t-149.5 -51.5q-60 0 -98.5 6t-97.5 38.5t-122 96.5v-487h-121z" />
<glyph unicode="&#xb6;" d="M158 1049q0 150 104.5 257t253.5 107h670v-110h-164v-1575h-121v1575h-264v-1575h-121v960q-149 0 -253.5 105.5t-104.5 255.5z" />
<glyph unicode="&#xb7;" d="M528 598q0 51 37 88t88 37q55 0 92 -36.5t37 -88.5q0 -56 -37 -92.5t-92 -36.5q-52 0 -88.5 37t-36.5 92z" />
<glyph unicode="&#xb8;" d="M496 -274h92q0 -25 25.5 -45.5t54.5 -20.5q31 0 56.5 20.5t25.5 45.5q0 26 -16 44t-44 21h-88v209h96v-119q62 -9 103 -52.5t41 -102.5q0 -66 -50 -112t-122 -46t-123 46t-51 112z" />
<glyph unicode="&#xb9;" d="M512 1264v82q156 0 156 67h90v-579h-94v464q-58 -34 -152 -34z" />
<glyph unicode="&#xba;" d="M442 1130q0 124 50 201q36 49 73.5 74t85.5 25q111 0 170 -101q47 -83 47 -199q0 -123 -47 -200q-58 -103 -170 -103q-87 0 -159 101q-50 80 -50 202zM539 1130q0 -88 26 -141q39 -67 88 -67q61 0 92 67q27 55 27 141q0 76 -27 138q-31 67 -92 67q-49 0 -88 -67 q-26 -53 -26 -138z" />
<glyph unicode="&#xbb;" d="M258 219l293 338v25l-293 338l82 77l324 -399v-57l-324 -400zM668 219l293 338v25l-293 338l82 77l323 -399v-57l-323 -400z" />
<glyph unicode="&#xbc;" d="M31 311l1077 791h170l-1077 -791h-170zM211 1264v82q156 0 156 67h90v-579h-95v464q-58 -34 -151 -34zM668 147v70l297 377h77v-361h88v-86h-88v-147h-92v147h-282zM776 233h174v220z" />
<glyph unicode="&#xbd;" d="M31 311l1077 791h170l-1077 -791h-170zM211 1264v82q156 0 156 67h90v-579h-95v464q-58 -34 -151 -34zM741 2v61q0 43 58 105.5t143 107.5q47 26 73.5 53t26.5 68q0 43 -28.5 73t-69.5 30t-68.5 -30t-27.5 -73h-96q0 82 56 139.5t134 57.5q82 0 139.5 -57.5t57.5 -139.5 q0 -34 -12.5 -64.5t-26.5 -49.5t-48.5 -44t-51 -35t-62.5 -36q-36 -20 -59 -40t-29 -28.5t-6 -11.5h301v-86h-404z" />
<glyph unicode="&#xbe;" d="M31 311l1077 791h170l-1077 -791h-170zM205 1012h94q0 -36 29.5 -63t70.5 -27t71 27t30 63q0 37 -30 64.5t-71 27.5h-34v86h34q35 0 59.5 22t24.5 52q0 28 -24.5 49.5t-59.5 21.5t-60.5 -21.5t-25.5 -49.5h-94q0 77 54.5 121.5t127.5 44.5q72 0 124.5 -46t52.5 -112 q0 -46 -21 -72.5t-65 -52.5q50 -27 76 -59t26 -84q0 -73 -57.5 -125t-139.5 -52q-80 0 -136 52.5t-56 132.5zM668 147v70l297 377h77v-361h88v-86h-88v-147h-92v147h-282zM776 233h174v220z" />
<glyph unicode="&#xbf;" d="M319 -119q0 123 78 201l244 250q23 23 23 76v184h120v-205q0 -30 -6.5 -54.5t-19.5 -44.5t-20.5 -28.5t-22.5 -23.5l-219 -220q-52 -52 -52 -122q0 -90 65 -150.5t181 -60.5q110 0 178 61t68 150h125q0 -80 -31.5 -143.5t-84.5 -102.5t-117.5 -59.5t-135.5 -20.5 q-176 0 -274.5 90t-98.5 223zM596 885q0 55 37 92t92 37q52 0 88.5 -37t36.5 -92q0 -51 -37 -88t-88 -37q-55 0 -92 36.5t-37 88.5z" />
<glyph unicode="&#xc0;" d="M109 0l446 1413h199l450 -1413h-133l-133 420h-563l-133 -420h-133zM387 1806l504 -188l22 -113l-491 129zM412 539h487l-244 782h-2z" />
<glyph unicode="&#xc1;" d="M109 0l446 1413h199l450 -1413h-133l-133 420h-563l-133 -420h-133zM385 1505l23 113l503 188l-34 -172zM412 539h487l-244 782h-2z" />
<glyph unicode="&#xc2;" d="M109 0l446 1413h199l450 -1413h-133l-133 420h-563l-133 -420h-133zM244 1532l319 274h182l320 -274h-197l-204 199h-19l-205 -199h-196zM412 539h487l-244 782h-2z" />
<glyph unicode="&#xc3;" d="M109 0l446 1413h199l450 -1413h-133l-133 420h-563l-133 -420h-133zM279 1622q81 90 137.5 120t109.5 30q48 -1 83 -16.5t81 -47.5q58 -39 88 -39q63 0 166 113l90 -80q-83 -88 -139.5 -118t-108.5 -30q-78 0 -155 56q-63 45 -96 47q-65 0 -166 -115zM412 539h487 l-244 782h-2z" />
<glyph unicode="&#xc4;" d="M109 0l446 1413h199l450 -1413h-133l-133 420h-563l-133 -420h-133zM305 1667q0 50 34 84.5t83 34.5q50 0 84.5 -35t34.5 -84t-34.5 -83t-84.5 -34t-83.5 34t-33.5 83zM412 539h487l-244 782h-2zM772 1667q0 50 34 84.5t83 34.5t84 -35t35 -84t-34.5 -83t-84.5 -34 q-49 0 -83 34t-34 83z" />
<glyph unicode="&#xc5;" d="M109 0l434 1376q-53 30 -84 82t-31 117q0 90 66.5 155.5t160.5 65.5q89 0 155.5 -66t66.5 -155q0 -63 -31 -115t-82 -82l440 -1378h-133l-133 420h-563l-133 -420h-133zM412 539h487l-244 782h-2zM545 1575q0 -47 31.5 -79t78.5 -32q45 0 76 32t31 79q0 44 -31.5 75 t-75.5 31q-47 0 -78.5 -30.5t-31.5 -75.5z" />
<glyph unicode="&#xc6;" d="M68 0l395 1413h768v-117h-479v-522h417v-117h-417v-540h483v-117h-608v426h-314l-112 -426h-133zM336 543h291v753h-88z" />
<glyph unicode="&#xc7;" d="M82 707q0 325 176 526q80 94 189 145.5t233 51.5q188 0 340 -130q71 -63 124 -155.5t79 -202.5h-129q-50 182 -156 275q-108 92 -258 92q-207 0 -332 -158q-137 -170 -137 -446q0 -135 36.5 -250t100.5 -195q123 -156 332 -156q161 0 264 95q111 102 156 293h127 q-24 -116 -77.5 -213.5t-125.5 -161.5q-133 -124 -317 -133v-103q62 -9 102.5 -52.5t40.5 -102.5q0 -66 -50 -112t-122 -46t-123 46t-51 112h92q0 -25 25.5 -45.5t54.5 -20.5q31 0 56.5 20.5t25.5 45.5q0 26 -16 44t-44 21h-88v197q-213 24 -354 192q-174 200 -174 527z" />
<glyph unicode="&#xc8;" d="M217 0v1413h916v-117h-791v-522h729v-117h-729v-540h852v-117h-977zM397 1806l504 -188l23 -113l-492 129z" />
<glyph unicode="&#xc9;" d="M217 0v1413h916v-117h-791v-522h729v-117h-729v-540h852v-117h-977zM389 1505l23 113l503 188l-34 -172z" />
<glyph unicode="&#xca;" d="M217 0v1413h916v-117h-791v-522h729v-117h-729v-540h852v-117h-977zM248 1532l319 274h183l319 -274h-197l-204 199h-19l-205 -199h-196z" />
<glyph unicode="&#xcb;" d="M217 0v1413h916v-117h-791v-522h729v-117h-729v-540h852v-117h-977zM315 1667q0 50 34 84.5t83 34.5q50 0 84.5 -35t34.5 -84t-34.5 -83t-84.5 -34t-83.5 34t-33.5 83zM782 1667q0 50 34 84.5t83 34.5t84 -35t35 -84t-34.5 -83t-84.5 -34q-49 0 -83 34t-34 83z" />
<glyph unicode="&#xcc;" d="M229 0v117h365v1179h-365v117h854v-117h-364v-1179h364v-117h-854zM387 1806l504 -188l22 -113l-491 129z" />
<glyph unicode="&#xcd;" d="M229 0v117h365v1179h-365v117h854v-117h-364v-1179h364v-117h-854zM385 1505l23 113l503 188l-34 -172z" />
<glyph unicode="&#xce;" d="M229 0v117h365v1179h-365v117h854v-117h-364v-1179h364v-117h-854zM244 1532l319 274h182l320 -274h-197l-204 199h-19l-205 -199h-196z" />
<glyph unicode="&#xcf;" d="M229 0v117h365v1179h-365v117h854v-117h-364v-1179h364v-117h-854zM305 1667q0 50 34 84.5t83 34.5q50 0 84.5 -35t34.5 -84t-34.5 -83t-84.5 -34t-83.5 34t-33.5 83zM772 1667q0 50 34 84.5t83 34.5t84 -35t35 -84t-34.5 -83t-84.5 -34q-49 0 -83 34t-34 83z" />
<glyph unicode="&#xd0;" d="M8 649v117h123v647h442q232 0 385 -102q261 -173 261 -604q0 -434 -261 -607q-151 -100 -385 -100h-442v649h-123zM256 117h324q183 0 303 82q207 147 207 510q0 373 -224 514q-119 73 -307 73h-303v-530h356v-117h-356v-532z" />
<glyph unicode="&#xd1;" d="M109 0v1413h225l733 -1325h10v1325h125v-1413h-225l-735 1325h-9v-1325h-124zM276 1622q81 89 138 119.5t110 30.5q48 -1 83 -16.5t81 -47.5q58 -39 88 -39q63 0 166 113l90 -80q-83 -88 -139.5 -118t-108.5 -30q-78 0 -155 56q-62 45 -97 47q-30 0 -67 -23t-98 -92z" />
<glyph unicode="&#xd2;" d="M59 707q0 323 177 526q82 94 191.5 145.5t231.5 51.5q120 0 228 -51.5t188 -145.5q174 -199 174 -526q0 -329 -172 -529q-82 -94 -190 -144t-228 -50q-123 0 -233 50.5t-193 145.5q-174 200 -174 527zM188 707q0 -272 140 -441q63 -78 147.5 -120t179.5 -42t180 42 t148 120q137 170 137 441q0 268 -137 438q-63 78 -148 121t-180 43t-179.5 -42.5t-147.5 -121.5q-140 -169 -140 -438zM377 1823l504 -189l22 -112l-491 129z" />
<glyph unicode="&#xd3;" d="M59 707q0 323 177 526q82 94 191.5 145.5t231.5 51.5q120 0 228 -51.5t188 -145.5q174 -199 174 -526q0 -329 -172 -529q-82 -94 -190 -144t-228 -50q-123 0 -233 50.5t-193 145.5q-174 200 -174 527zM188 707q0 -272 140 -441q63 -78 147.5 -120t179.5 -42t180 42 t148 120q137 170 137 441q0 268 -137 438q-63 78 -148 121t-180 43t-179.5 -42.5t-147.5 -121.5q-140 -169 -140 -438zM377 1522l22 112l504 189l-35 -172z" />
<glyph unicode="&#xd4;" d="M59 707q0 323 177 526q82 94 191.5 145.5t231.5 51.5q120 0 228 -51.5t188 -145.5q174 -199 174 -526q0 -329 -172 -529q-82 -94 -190 -144t-228 -50q-123 0 -233 50.5t-193 145.5q-174 200 -174 527zM188 707q0 -272 140 -441q63 -78 147.5 -120t179.5 -42t180 42 t148 120q137 170 137 441q0 268 -137 438q-63 78 -148 121t-180 43t-179.5 -42.5t-147.5 -121.5q-140 -169 -140 -438zM244 1548l319 275h182l320 -275h-197l-204 199h-19l-205 -199h-196z" />
<glyph unicode="&#xd5;" d="M59 707q0 323 177 526q82 94 191.5 145.5t231.5 51.5q120 0 228 -51.5t188 -145.5q174 -199 174 -526q0 -329 -172 -529q-82 -94 -190 -144t-228 -50q-123 0 -233 50.5t-193 145.5q-174 200 -174 527zM188 707q0 -272 140 -441q63 -78 147.5 -120t179.5 -42t180 42 t148 120q137 170 137 441q0 268 -137 438q-63 78 -148 121t-180 43t-179.5 -42.5t-147.5 -121.5q-140 -169 -140 -438zM279 1649q81 89 137.5 119t109.5 30q48 -1 83 -16.5t81 -46.5q58 -39 88 -39q64 0 166 112l90 -79q-83 -88 -139.5 -118t-108.5 -30q-80 0 -155 55 q-63 45 -96 47q-31 0 -68 -22.5t-98 -91.5z" />
<glyph unicode="&#xd6;" d="M59 707q0 323 177 526q82 94 191.5 145.5t231.5 51.5q120 0 228 -51.5t188 -145.5q174 -199 174 -526q0 -329 -172 -529q-82 -94 -190 -144t-228 -50q-123 0 -233 50.5t-193 145.5q-174 200 -174 527zM188 707q0 -272 140 -441q63 -78 147.5 -120t179.5 -42t180 42 t148 120q137 170 137 441q0 268 -137 438q-63 78 -148 121t-180 43t-179.5 -42.5t-147.5 -121.5q-140 -169 -140 -438zM303 1683q0 50 34 84.5t83 34.5q50 0 84.5 -35t34.5 -84t-34.5 -82.5t-84.5 -33.5t-83.5 33.5t-33.5 82.5zM770 1683q0 50 34 84.5t83 34.5t84 -35 t35 -84t-34.5 -82.5t-84.5 -33.5t-83.5 33.5t-33.5 82.5z" />
<glyph unicode="&#xd7;" d="M242 373l325 313v39l-325 315l80 80l313 -325h39l315 325l80 -80l-326 -315v-39l326 -313l-80 -80l-315 325h-39l-313 -325z" />
<glyph unicode="&#xd8;" d="M59 707q0 323 177 526q82 94 191.5 145.5t231.5 51.5q121 0 236 -56l84 182l106 -49l-90 -196q40 -32 80 -78q174 -199 174 -526q0 -329 -172 -529q-82 -94 -190 -144t-228 -50q-136 0 -247 57l-84 -184l-107 49l90 198q-47 40 -78 76q-174 200 -174 527zM188 707 q0 -272 140 -441q20 -27 39 -43l477 1039q-86 47 -189 47q-95 0 -179.5 -42.5t-147.5 -121.5q-140 -169 -140 -438zM463 152q91 -48 192 -48q95 0 180 42t148 120q137 170 137 441q0 268 -137 438l-43 45z" />
<glyph unicode="&#xd9;" d="M115 535v878h125v-854q0 -100 22.5 -180t70 -143t129.5 -97.5t193 -34.5t193 34.5t130 97.5t70.5 143.5t22.5 179.5v854h125v-878q0 -121 -30 -218.5t-92.5 -173.5t-169 -117.5t-249.5 -41.5t-249.5 41.5t-168.5 117.5t-92 173.5t-30 218.5zM377 1806l504 -188l22 -113 l-491 129z" />
<glyph unicode="&#xda;" d="M115 535v878h125v-854q0 -100 22.5 -180t70 -143t129.5 -97.5t193 -34.5t193 34.5t130 97.5t70.5 143.5t22.5 179.5v854h125v-878q0 -121 -30 -218.5t-92.5 -173.5t-169 -117.5t-249.5 -41.5t-249.5 41.5t-168.5 117.5t-92 173.5t-30 218.5zM377 1505l22 113l504 188 l-35 -172z" />
<glyph unicode="&#xdb;" d="M115 535v878h125v-854q0 -100 22.5 -180t70 -143t129.5 -97.5t193 -34.5t193 34.5t130 97.5t70.5 143.5t22.5 179.5v854h125v-878q0 -121 -30 -218.5t-92.5 -173.5t-169 -117.5t-249.5 -41.5t-249.5 41.5t-168.5 117.5t-92 173.5t-30 218.5zM242 1532l319 274h182 l320 -274h-197l-204 199h-19l-205 -199h-196z" />
<glyph unicode="&#xdc;" d="M115 535v878h125v-854q0 -100 22.5 -180t70 -143t129.5 -97.5t193 -34.5t193 34.5t130 97.5t70.5 143.5t22.5 179.5v854h125v-878q0 -121 -30 -218.5t-92.5 -173.5t-169 -117.5t-249.5 -41.5t-249.5 41.5t-168.5 117.5t-92 173.5t-30 218.5zM305 1667q0 50 34 84.5 t83 34.5q50 0 84.5 -35t34.5 -84t-34.5 -83t-84.5 -34t-83.5 34t-33.5 83zM772 1667q0 50 34 84.5t83 34.5t84 -35t35 -84t-34.5 -83t-84.5 -34q-49 0 -83 34t-34 83z" />
<glyph unicode="&#xdd;" d="M98 1413h146l397 -616h27l397 616h145l-493 -754v-659h-125v659zM393 1505l23 113l504 188l-35 -172z" />
<glyph unicode="&#xde;" d="M260 0v1413h125v-287h455q157 0 267 -119t110 -290q0 -172 -110.5 -295t-266.5 -123h-455v-299h-125zM385 416h438q108 0 186 87.5t78 209.5t-78 209.5t-186 87.5h-438v-594z" />
<glyph unicode="&#xdf;" d="M147 0v111h99v981q0 155 113.5 265.5t273.5 110.5t272.5 -110.5t112.5 -265.5q0 -47 -11 -87.5t-27.5 -69t-44 -56.5t-50.5 -45t-56 -39v-19q293 -121 293 -375q0 -173 -133.5 -295t-322.5 -122q-58 0 -113 14l8 113q46 -11 96 -11q140 0 240 90t100 216 q0 125 -100.5 215t-239.5 90h-96v118h68q109 0 186.5 77t77.5 186q0 106 -78 183t-186 77q-107 0 -185.5 -77t-78.5 -183v-1092h-218z" />
<glyph unicode="&#xe0;" d="M152 307q0 56 22.5 104.5t58 82t84 60t96 42.5t99.5 27l350 73v54q0 25 -3 45t-16.5 49.5t-37.5 50t-71 35t-111 14.5q-83 0 -144 -20.5t-89.5 -50t-45 -58.5t-18.5 -49l-2 -21h-121q0 7 1 18t10 43.5t24 62.5t47 66t75 62t112.5 44t154.5 18q95 0 164.5 -23t105 -54.5 t55.5 -78t24.5 -79.5t4.5 -74v-541q0 -17 3.5 -34t14 -38t34.5 -34.5t59 -14.5q32 0 58 15.5t33 25.5t11 18l102 -51q-2 -4 -8.5 -13.5t-24.5 -27.5t-40 -33t-57.5 -26.5t-75.5 -11.5q-95 0 -144 44.5t-61 108.5h-19q-79 -86 -174.5 -119.5t-159.5 -33.5q-22 0 -42.5 1 t-61.5 7.5t-74 18.5t-72.5 36t-66 57t-45 85.5t-18.5 117.5zM272 309q0 -40 12.5 -73.5t31.5 -54.5t44.5 -37.5t49.5 -24.5t50 -13.5t41.5 -6.5t28.5 -1q76 0 152.5 34t128 94.5t51.5 129.5v230l-307 -66q-50 -11 -88 -22.5t-76.5 -29t-63 -39t-40 -52t-15.5 -68.5z M391 1456l504 -188l23 -113l-492 129z" />
<glyph unicode="&#xe1;" d="M152 307q0 56 22.5 104.5t58 82t84 60t96 42.5t99.5 27l350 73v54q0 25 -3 45t-16.5 49.5t-37.5 50t-71 35t-111 14.5q-83 0 -144 -20.5t-89.5 -50t-45 -58.5t-18.5 -49l-2 -21h-121q0 7 1 18t10 43.5t24 62.5t47 66t75 62t112.5 44t154.5 18q95 0 164.5 -23t105 -54.5 t55.5 -78t24.5 -79.5t4.5 -74v-541q0 -17 3.5 -34t14 -38t34.5 -34.5t59 -14.5q32 0 58 15.5t33 25.5t11 18l102 -51q-2 -4 -8.5 -13.5t-24.5 -27.5t-40 -33t-57.5 -26.5t-75.5 -11.5q-95 0 -144 44.5t-61 108.5h-19q-79 -86 -174.5 -119.5t-159.5 -33.5q-22 0 -42.5 1 t-61.5 7.5t-74 18.5t-72.5 36t-66 57t-45 85.5t-18.5 117.5zM272 309q0 -40 12.5 -73.5t31.5 -54.5t44.5 -37.5t49.5 -24.5t50 -13.5t41.5 -6.5t28.5 -1q76 0 152.5 34t128 94.5t51.5 129.5v230l-307 -66q-50 -11 -88 -22.5t-76.5 -29t-63 -39t-40 -52t-15.5 -68.5z M389 1155l23 113l503 188l-34 -172z" />
<glyph unicode="&#xe2;" d="M152 307q0 56 22.5 104.5t58 82t84 60t96 42.5t99.5 27l350 73v54q0 25 -3 45t-16.5 49.5t-37.5 50t-71 35t-111 14.5q-83 0 -144 -20.5t-89.5 -50t-45 -58.5t-18.5 -49l-2 -21h-121q0 7 1 18t10 43.5t24 62.5t47 66t75 62t112.5 44t154.5 18q95 0 164.5 -23t105 -54.5 t55.5 -78t24.5 -79.5t4.5 -74v-541q0 -17 3.5 -34t14 -38t34.5 -34.5t59 -14.5q32 0 58 15.5t33 25.5t11 18l102 -51q-2 -4 -8.5 -13.5t-24.5 -27.5t-40 -33t-57.5 -26.5t-75.5 -11.5q-95 0 -144 44.5t-61 108.5h-19q-79 -86 -174.5 -119.5t-159.5 -33.5q-22 0 -42.5 1 t-61.5 7.5t-74 18.5t-72.5 36t-66 57t-45 85.5t-18.5 117.5zM211 1182l319 274h183l319 -274h-196l-205 198h-19l-204 -198h-197zM272 309q0 -40 12.5 -73.5t31.5 -54.5t44.5 -37.5t49.5 -24.5t50 -13.5t41.5 -6.5t28.5 -1q76 0 152.5 34t128 94.5t51.5 129.5v230l-307 -66 q-50 -11 -88 -22.5t-76.5 -29t-63 -39t-40 -52t-15.5 -68.5z" />
<glyph unicode="&#xe3;" d="M152 307q0 56 22.5 104.5t58 82t84 60t96 42.5t99.5 27l350 73v54q0 25 -3 45t-16.5 49.5t-37.5 50t-71 35t-111 14.5q-83 0 -144 -20.5t-89.5 -50t-45 -58.5t-18.5 -49l-2 -21h-121q0 7 1 18t10 43.5t24 62.5t47 66t75 62t112.5 44t154.5 18q95 0 164.5 -23t105 -54.5 t55.5 -78t24.5 -79.5t4.5 -74v-541q0 -17 3.5 -34t14 -38t34.5 -34.5t59 -14.5q32 0 58 15.5t33 25.5t11 18l102 -51q-2 -4 -8.5 -13.5t-24.5 -27.5t-40 -33t-57.5 -26.5t-75.5 -11.5q-95 0 -144 44.5t-61 108.5h-19q-79 -86 -174.5 -119.5t-159.5 -33.5q-22 0 -42.5 1 t-61.5 7.5t-74 18.5t-72.5 36t-66 57t-45 85.5t-18.5 117.5zM233 1272q81 89 138 119t110 30q48 -1 83 -16.5t81 -46.5q59 -39 88 -39q63 0 166 113l90 -80q-83 -88 -139.5 -118t-108.5 -30q-78 0 -155 56q-62 45 -97 47q-30 0 -67 -23t-98 -92zM272 309q0 -40 12.5 -73.5 t31.5 -54.5t44.5 -37.5t49.5 -24.5t50 -13.5t41.5 -6.5t28.5 -1q76 0 152.5 34t128 94.5t51.5 129.5v230l-307 -66q-50 -11 -88 -22.5t-76.5 -29t-63 -39t-40 -52t-15.5 -68.5z" />
<glyph unicode="&#xe4;" d="M152 307q0 56 22.5 104.5t58 82t84 60t96 42.5t99.5 27l350 73v54q0 25 -3 45t-16.5 49.5t-37.5 50t-71 35t-111 14.5q-83 0 -144 -20.5t-89.5 -50t-45 -58.5t-18.5 -49l-2 -21h-121q0 7 1 18t10 43.5t24 62.5t47 66t75 62t112.5 44t154.5 18q95 0 164.5 -23t105 -54.5 t55.5 -78t24.5 -79.5t4.5 -74v-541q0 -17 3.5 -34t14 -38t34.5 -34.5t59 -14.5q32 0 58 15.5t33 25.5t11 18l102 -51q-2 -4 -8.5 -13.5t-24.5 -27.5t-40 -33t-57.5 -26.5t-75.5 -11.5q-95 0 -144 44.5t-61 108.5h-19q-79 -86 -174.5 -119.5t-159.5 -33.5q-22 0 -42.5 1 t-61.5 7.5t-74 18.5t-72.5 36t-66 57t-45 85.5t-18.5 117.5zM272 309q0 -40 12.5 -73.5t31.5 -54.5t44.5 -37.5t49.5 -24.5t50 -13.5t41.5 -6.5t28.5 -1q76 0 152.5 34t128 94.5t51.5 129.5v230l-307 -66q-50 -11 -88 -22.5t-76.5 -29t-63 -39t-40 -52t-15.5 -68.5z M272 1321q0 50 34 84.5t83 34.5t84 -35t35 -84t-34.5 -83t-84.5 -34q-49 0 -83 34t-34 83zM739 1321q0 50 34 84.5t83 34.5q50 0 84.5 -35t34.5 -84t-34.5 -83t-84.5 -34t-83.5 34t-33.5 83z" />
<glyph unicode="&#xe5;" d="M152 307q0 56 22.5 104.5t58 82t84 60t96 42.5t99.5 27l350 73v54q0 25 -3 45t-16.5 49.5t-37.5 50t-71 35t-111 14.5q-83 0 -144 -20.5t-89.5 -50t-45 -58.5t-18.5 -49l-2 -21h-121q0 7 1 18t10 43.5t24 62.5t47 66t75 62t112.5 44t154.5 18q95 0 164.5 -23t105 -54.5 t55.5 -78t24.5 -79.5t4.5 -74v-541q0 -17 3.5 -34t14 -38t34.5 -34.5t59 -14.5q32 0 58 15.5t33 25.5t11 18l102 -51q-2 -4 -8.5 -13.5t-24.5 -27.5t-40 -33t-57.5 -26.5t-75.5 -11.5q-95 0 -144 44.5t-61 108.5h-19q-79 -86 -174.5 -119.5t-159.5 -33.5q-22 0 -42.5 1 t-61.5 7.5t-74 18.5t-72.5 36t-66 57t-45 85.5t-18.5 117.5zM272 309q0 -40 12.5 -73.5t31.5 -54.5t44.5 -37.5t49.5 -24.5t50 -13.5t41.5 -6.5t28.5 -1q76 0 152.5 34t128 94.5t51.5 129.5v230l-307 -66q-50 -11 -88 -22.5t-76.5 -29t-63 -39t-40 -52t-15.5 -68.5z M408 1376q0 88 63.5 150.5t153.5 62.5q88 0 150.5 -62.5t62.5 -150.5q0 -90 -62.5 -153.5t-150.5 -63.5q-91 0 -154 63t-63 154zM514 1376q0 -47 32 -78.5t79 -31.5q45 0 75.5 31.5t30.5 78.5q0 44 -31 75.5t-75 31.5q-47 0 -79 -31t-32 -76z" />
<glyph unicode="&#xe6;" d="M152 289q0 126 89.5 215.5t215.5 89.5h147v350q-56 -2 -102 -13.5t-74.5 -29.5t-49.5 -39t-31 -41.5t-15.5 -37.5t-6.5 -27l-1 -11h-121q0 6 1 17t9.5 43t22.5 61t44.5 65t71 62t106 45t146.5 21h105q203 0 334 -150.5t131 -388.5v-33h-449v-389q110 0 192 60.5 t127 167.5l107 -43q-60 -139 -178 -219t-264 -80h-252q-126 0 -215.5 89.5t-89.5 215.5zM272 293q0 -79 53.5 -135.5t131.5 -59.5h147v389h-147q-78 -5 -131.5 -60.5t-53.5 -133.5zM725 594h319q-19 152 -106 247t-213 103v-350z" />
<glyph unicode="&#xe7;" d="M168 520q0 117 38 218.5t103 171t153.5 109.5t186.5 40q170 0 300.5 -113.5t166.5 -298.5h-129q-34 136 -126.5 216.5t-211.5 80.5q-150 0 -253 -119t-103 -305t102.5 -304t253.5 -118q108 0 195.5 65t128.5 179h131q-42 -148 -149.5 -242.5t-247.5 -111.5v-107 q62 -9 102.5 -52.5t40.5 -102.5q0 -66 -50 -112t-122 -46t-123 46t-51 112h92q0 -25 25.5 -45.5t54.5 -20.5q31 0 56.5 20.5t25.5 45.5q0 26 -16 44t-44 21h-88v195q-189 15 -315.5 163t-126.5 371z" />
<glyph unicode="&#xe8;" d="M168 520q0 156 66.5 280t177.5 191.5t245 67.5q203 0 334 -150.5t131 -388.5v-33h-825q4 -170 113.5 -279.5t263.5 -109.5q110 0 190.5 62t126.5 172l109 -49q-60 -138 -178.5 -218.5t-264.5 -80.5q-100 0 -189.5 39.5t-155.5 108.5t-105 170t-39 218zM297 594h696 q-19 158 -111.5 254t-226.5 96q-139 0 -239 -96.5t-119 -253.5zM379 1456l504 -188l22 -113l-491 129z" />
<glyph unicode="&#xe9;" d="M168 520q0 156 66.5 280t177.5 191.5t245 67.5q203 0 334 -150.5t131 -388.5v-33h-825q4 -170 113.5 -279.5t263.5 -109.5q110 0 190.5 62t126.5 172l109 -49q-60 -138 -178.5 -218.5t-264.5 -80.5q-100 0 -189.5 39.5t-155.5 108.5t-105 170t-39 218zM297 594h696 q-19 158 -111.5 254t-226.5 96q-139 0 -239 -96.5t-119 -253.5zM377 1155l22 113l504 188l-35 -172z" />
<glyph unicode="&#xea;" d="M168 520q0 156 66.5 280t177.5 191.5t245 67.5q203 0 334 -150.5t131 -388.5v-33h-825q4 -170 113.5 -279.5t263.5 -109.5q110 0 190.5 62t126.5 172l109 -49q-60 -138 -178.5 -218.5t-264.5 -80.5q-100 0 -189.5 39.5t-155.5 108.5t-105 170t-39 218zM244 1182l319 274 h182l320 -274h-197l-204 198h-19l-205 -198h-196zM297 594h696q-19 158 -111.5 254t-226.5 96q-139 0 -239 -96.5t-119 -253.5z" />
<glyph unicode="&#xeb;" d="M168 520q0 156 66.5 280t177.5 191.5t245 67.5q203 0 334 -150.5t131 -388.5v-33h-825q4 -170 113.5 -279.5t263.5 -109.5q110 0 190.5 62t126.5 172l109 -49q-60 -138 -178.5 -218.5t-264.5 -80.5q-100 0 -189.5 39.5t-155.5 108.5t-105 170t-39 218zM297 594h696 q-19 158 -111.5 254t-226.5 96q-139 0 -239 -96.5t-119 -253.5zM307 1321q0 50 34 84.5t83 34.5q50 0 84.5 -35t34.5 -84t-34.5 -83t-84.5 -34t-83.5 34t-33.5 83zM774 1321q0 50 34 84.5t83 34.5t84 -35t35 -84t-34.5 -83t-84.5 -34q-49 0 -83 34t-34 83z" />
<glyph unicode="&#xec;" d="M240 0v111h385v817h-330v110h450v-927h385v-111h-890zM264 1436l504 -189l23 -112l-492 129z" />
<glyph unicode="&#xed;" d="M240 0v111h385v817h-330v110h450v-927h385v-111h-890zM352 1135l23 112l504 189l-35 -172z" />
<glyph unicode="&#xee;" d="M240 0v111h385v817h-330v110h450v-927h385v-111h-890zM252 1161l319 275h183l319 -275h-196l-205 199h-19l-204 -199h-197z" />
<glyph unicode="&#xef;" d="M240 0v111h385v817h-330v110h450v-927h385v-111h-890zM334 1300q0 50 34 84.5t83 34.5t83.5 -34.5t34.5 -84.5q0 -49 -34 -82.5t-84 -33.5t-83.5 33.5t-33.5 82.5zM801 1300q0 50 34 84.5t83 34.5t83.5 -34.5t34.5 -84.5q0 -49 -34 -82.5t-84 -33.5t-83.5 33.5 t-33.5 82.5z" />
<glyph unicode="&#xf0;" d="M160 520q0 117 38.5 218.5t104 171t154 109.5t186.5 40q128 0 262 -113q-38 61 -116 142.5t-152 144.5q-30 -16 -65 -36t-76.5 -43.5t-63.5 -35.5l-72 72l191 108q-90 58 -178 101l71 69q109 -53 211 -125q213 125 217 127l74 -69l-203 -121q85 -74 150.5 -150t121 -170 t85.5 -205.5t30 -234.5q0 -117 -38.5 -218t-104.5 -170t-155 -108.5t-189 -39.5q-98 0 -186.5 39.5t-154 108.5t-104 170t-38.5 218zM285 520q0 -185 104 -303.5t256 -118.5t256.5 118.5t104.5 303.5t-104.5 304.5t-256.5 119.5t-256 -119.5t-104 -304.5z" />
<glyph unicode="&#xf1;" d="M229 0v1038h121v-227h17q63 112 162 180t219 68q68 0 122 -15t88 -37t58.5 -54.5t36 -59t18 -59t7.5 -47t1 -29.5v-758h-121v735q0 12 -1.5 24.5t-7 40t-20.5 50t-37.5 45.5t-63.5 36t-93 13q-67 0 -134.5 -34t-124 -95t-91.5 -156t-35 -206v-453h-121zM276 1272 q81 89 138 119t110 30q48 -1 83 -16.5t81 -46.5q58 -39 88 -39q63 0 166 113l90 -80q-83 -88 -139.5 -118t-108.5 -30q-78 0 -155 56q-62 45 -97 47q-30 0 -67 -23t-98 -92z" />
<glyph unicode="&#xf2;" d="M168 520q0 156 66.5 280t177.5 191.5t245 67.5q132 0 242.5 -67.5t177 -191.5t66.5 -280q0 -234 -142 -385t-344 -151q-100 0 -189.5 39.5t-155.5 108.5t-105 170t-39 218zM293 520q0 -186 105 -304t257 -118t257.5 118.5t105.5 303.5q0 186 -105.5 305t-257.5 119 t-257 -119t-105 -305zM377 1456l504 -188l22 -113l-491 129z" />
<glyph unicode="&#xf3;" d="M168 520q0 156 66.5 280t177.5 191.5t245 67.5q132 0 242.5 -67.5t177 -191.5t66.5 -280q0 -234 -142 -385t-344 -151q-100 0 -189.5 39.5t-155.5 108.5t-105 170t-39 218zM293 520q0 -186 105 -304t257 -118t257.5 118.5t105.5 303.5q0 186 -105.5 305t-257.5 119 t-257 -119t-105 -305zM375 1155l22 113l504 188l-35 -172z" />
<glyph unicode="&#xf4;" d="M168 520q0 156 66.5 280t177.5 191.5t245 67.5q132 0 242.5 -67.5t177 -191.5t66.5 -280q0 -234 -142 -385t-344 -151q-100 0 -189.5 39.5t-155.5 108.5t-105 170t-39 218zM242 1182l319 274h182l320 -274h-197l-204 198h-19l-205 -198h-196zM293 520q0 -186 105 -304 t257 -118t257.5 118.5t105.5 303.5q0 186 -105.5 305t-257.5 119t-257 -119t-105 -305z" />
<glyph unicode="&#xf5;" d="M168 520q0 156 66.5 280t177.5 191.5t245 67.5q132 0 242.5 -67.5t177 -191.5t66.5 -280q0 -234 -142 -385t-344 -151q-100 0 -189.5 39.5t-155.5 108.5t-105 170t-39 218zM276 1272q81 89 138 119t110 30q48 -1 83 -16.5t81 -46.5q58 -39 88 -39q63 0 166 113l90 -80 q-83 -88 -139.5 -118t-108.5 -30q-78 0 -155 56q-62 45 -97 47q-30 0 -67 -23t-98 -92zM293 520q0 -186 105 -304t257 -118t257.5 118.5t105.5 303.5q0 186 -105.5 305t-257.5 119t-257 -119t-105 -305z" />
<glyph unicode="&#xf6;" d="M168 520q0 156 66.5 280t177.5 191.5t245 67.5q132 0 242.5 -67.5t177 -191.5t66.5 -280q0 -234 -142 -385t-344 -151q-100 0 -189.5 39.5t-155.5 108.5t-105 170t-39 218zM293 520q0 -186 105 -304t257 -118t257.5 118.5t105.5 303.5q0 186 -105.5 305t-257.5 119 t-257 -119t-105 -305zM303 1321q0 50 34 84.5t83 34.5q50 0 84.5 -35t34.5 -84t-34.5 -83t-84.5 -34t-83.5 34t-33.5 83zM770 1321q0 50 34 84.5t83 34.5t84 -35t35 -84t-34.5 -83t-84.5 -34q-49 0 -83 34t-34 83z" />
<glyph unicode="&#xf7;" d="M250 649v115h811v-115h-811zM537 412q0 50 33.5 84t82.5 34q50 0 84.5 -34.5t34.5 -83.5t-34.5 -83t-84.5 -34q-49 0 -82.5 33.5t-33.5 83.5zM537 999q0 50 33.5 84.5t82.5 34.5t84 -35t35 -84t-34.5 -82.5t-84.5 -33.5q-49 0 -82.5 33.5t-33.5 82.5z" />
<glyph unicode="&#xf8;" d="M168 520q0 118 39 220t105 172t155.5 109.5t189.5 39.5q137 0 252 -76l125 189l76 -52l-129 -194q76 -72 119 -178t43 -230q0 -234 -142 -385t-344 -151q-142 0 -254 71l-129 -192l-75 51l131 199q-76 74 -119 178.5t-43 228.5zM293 520q0 -188 104 -305l447 672 q-85 57 -189 57q-152 0 -257 -119t-105 -305zM469 154q85 -56 186 -56q152 0 257.5 118.5t105.5 303.5q0 183 -107 303z" />
<glyph unicode="&#xf9;" d="M229 285v753h121v-731q0 -12 1.5 -24.5t7 -40t20.5 -50t37.5 -45.5t63.5 -36t93 -13q53 0 107.5 21t104 63.5t88.5 100.5t62 137.5t23 169.5v448h121v-1038h-121v233h-16q-63 -113 -162 -181t-219 -68q-68 0 -122.5 15t-88 37t-58.5 54.5t-36.5 59t-18 59t-7.5 47 t-1 29.5zM381 1436l504 -189l22 -112l-491 129z" />
<glyph unicode="&#xfa;" d="M229 285v753h121v-731q0 -12 1.5 -24.5t7 -40t20.5 -50t37.5 -45.5t63.5 -36t93 -13q53 0 107.5 21t104 63.5t88.5 100.5t62 137.5t23 169.5v448h121v-1038h-121v233h-16q-63 -113 -162 -181t-219 -68q-68 0 -122.5 15t-88 37t-58.5 54.5t-36.5 59t-18 59t-7.5 47 t-1 29.5zM379 1135l22 112l504 189l-35 -172z" />
<glyph unicode="&#xfb;" d="M229 285v753h121v-731q0 -12 1.5 -24.5t7 -40t20.5 -50t37.5 -45.5t63.5 -36t93 -13q53 0 107.5 21t104 63.5t88.5 100.5t62 137.5t23 169.5v448h121v-1038h-121v233h-16q-63 -113 -162 -181t-219 -68q-68 0 -122.5 15t-88 37t-58.5 54.5t-36.5 59t-18 59t-7.5 47 t-1 29.5zM242 1161l319 275h182l320 -275h-197l-204 199h-19l-205 -199h-196z" />
<glyph unicode="&#xfc;" d="M229 285v753h121v-731q0 -12 1.5 -24.5t7 -40t20.5 -50t37.5 -45.5t63.5 -36t93 -13q53 0 107.5 21t104 63.5t88.5 100.5t62 137.5t23 169.5v448h121v-1038h-121v233h-16q-63 -113 -162 -181t-219 -68q-68 0 -122.5 15t-88 37t-58.5 54.5t-36.5 59t-18 59t-7.5 47 t-1 29.5zM303 1300q0 50 34 84.5t83 34.5q50 0 84.5 -34.5t34.5 -84.5q0 -49 -34.5 -82.5t-84.5 -33.5t-83.5 33.5t-33.5 82.5zM770 1300q0 50 34 84.5t83 34.5t84 -34.5t35 -84.5q0 -49 -34.5 -82.5t-84.5 -33.5t-83.5 33.5t-33.5 82.5z" />
<glyph unicode="&#xfd;" d="M-55 -285l94 72q102 -131 233 -131q74 0 121.5 29.5t65.5 78.5l102 279l-440 995h137l363 -807h12l307 807h137l-504 -1310q-33 -85 -108 -136t-191 -51q-196 0 -329 174zM375 1135l22 112l504 189l-35 -172z" />
<glyph unicode="&#xfe;" d="M203 -383v1796h121v-565h12q71 101 160 156t190 55q128 0 235.5 -72.5t169.5 -196.5t62 -270q0 -145 -62 -268.5t-169.5 -195.5t-235.5 -72q-211 0 -350 198h-12v-565h-121zM324 504q5 -183 99 -294.5t255 -111.5q148 0 249 122.5t101 299.5q0 179 -101 301.5t-249 122.5 q-166 0 -260 -115.5t-94 -306.5v-18z" />
<glyph unicode="&#xff;" d="M-55 -285l94 72q102 -131 233 -131q74 0 121.5 29.5t65.5 78.5l102 279l-440 995h137l363 -807h12l307 807h137l-504 -1310q-33 -85 -108 -136t-191 -51q-196 0 -329 174zM252 1300q0 50 34 84.5t83 34.5t83.5 -34.5t34.5 -84.5q0 -49 -34 -82.5t-84 -33.5t-83.5 33.5 t-33.5 82.5zM719 1300q0 50 34 84.5t83 34.5t83.5 -34.5t34.5 -84.5q0 -49 -34 -82.5t-84 -33.5t-83.5 33.5t-33.5 82.5z" />
<glyph unicode="&#x100;" d="M109 0l446 1413h199l450 -1413h-133l-133 420h-563l-133 -420h-133zM381 1608v110h549v-110h-549zM412 539h487l-244 782h-2z" />
<glyph unicode="&#x101;" d="M152 307q0 56 22.5 104.5t58 82t84 60t96 42.5t99.5 27l350 73v54q0 25 -3 45t-16.5 49.5t-37.5 50t-71 35t-111 14.5q-83 0 -144 -20.5t-89.5 -50t-45 -58.5t-18.5 -49l-2 -21h-121q0 7 1 18t10 43.5t24 62.5t47 66t75 62t112.5 44t154.5 18q95 0 164.5 -23t105 -54.5 t55.5 -78t24.5 -79.5t4.5 -74v-541q0 -17 3.5 -34t14 -38t34.5 -34.5t59 -14.5q32 0 58 15.5t33 25.5t11 18l102 -51q-2 -4 -8.5 -13.5t-24.5 -27.5t-40 -33t-57.5 -26.5t-75.5 -11.5q-95 0 -144 44.5t-61 108.5h-19q-79 -86 -174.5 -119.5t-159.5 -33.5q-22 0 -42.5 1 t-61.5 7.5t-74 18.5t-72.5 36t-66 57t-45 85.5t-18.5 117.5zM272 309q0 -40 12.5 -73.5t31.5 -54.5t44.5 -37.5t49.5 -24.5t50 -13.5t41.5 -6.5t28.5 -1q76 0 152.5 34t128 94.5t51.5 129.5v230l-307 -66q-50 -11 -88 -22.5t-76.5 -29t-63 -39t-40 -52t-15.5 -68.5z M352 1257v111h549v-111h-549z" />
<glyph unicode="&#x102;" d="M109 0l446 1413h199l450 -1413h-133l-133 420h-563l-133 -420h-133zM362 1806h111v-2q0 -78 52.5 -131t127.5 -53q78 0 132.5 53t54.5 131v2h110q0 -123 -87.5 -210t-209.5 -87q-119 0 -205 87t-86 210zM412 539h487l-244 782h-2z" />
<glyph unicode="&#x103;" d="M152 307q0 56 22.5 104.5t58 82t84 60t96 42.5t99.5 27l350 73v54q0 25 -3 45t-16.5 49.5t-37.5 50t-71 35t-111 14.5q-83 0 -144 -20.5t-89.5 -50t-45 -58.5t-18.5 -49l-2 -21h-121q0 7 1 18t10 43.5t24 62.5t47 66t75 62t112.5 44t154.5 18q95 0 164.5 -23t105 -54.5 t55.5 -78t24.5 -79.5t4.5 -74v-541q0 -17 3.5 -34t14 -38t34.5 -34.5t59 -14.5q32 0 58 15.5t33 25.5t11 18l102 -51q-2 -4 -8.5 -13.5t-24.5 -27.5t-40 -33t-57.5 -26.5t-75.5 -11.5q-95 0 -144 44.5t-61 108.5h-19q-79 -86 -174.5 -119.5t-159.5 -33.5q-22 0 -42.5 1 t-61.5 7.5t-74 18.5t-72.5 36t-66 57t-45 85.5t-18.5 117.5zM272 309q0 -40 12.5 -73.5t31.5 -54.5t44.5 -37.5t49.5 -24.5t50 -13.5t41.5 -6.5t28.5 -1q76 0 152.5 34t128 94.5t51.5 129.5v230l-307 -66q-50 -11 -88 -22.5t-76.5 -29t-63 -39t-40 -52t-15.5 -68.5z M342 1456h111v-2q0 -78 52.5 -131t127.5 -53q78 0 132 53t54 131v2h111q0 -123 -87.5 -210t-209.5 -87q-119 0 -205 87t-86 210z" />
<glyph unicode="&#x104;" d="M109 0l446 1413h199l450 -1413h-49q-58 -43 -110 -111.5t-52 -140.5q0 -30 10 -49.5t26 -27t26 -9.5t20 -2q30 0 55 20t25 46h92q0 -66 -51 -112t-123 -46q-25 0 -51.5 8t-55 26.5t-47 56t-18.5 89.5q0 44 13.5 82t41.5 70.5t51.5 53.5t61.5 50l-131 416h-563l-133 -420 h-133zM412 539h487l-244 782h-2z" />
<glyph unicode="&#x105;" d="M152 307q0 69 32.5 125.5t88.5 93t114 59.5t125 38l350 73v54q0 25 -3 45t-16.5 49.5t-37.5 50t-71 35t-111 14.5q-83 0 -144 -20.5t-89.5 -50t-45 -58.5t-18.5 -49l-2 -21h-121q0 7 1 18t10 43.5t24 62.5t47 66t75 62t112.5 44t154.5 18q95 0 164.5 -23t105 -54.5 t55.5 -78t24.5 -79.5t4.5 -74v-541q0 -14 3.5 -30.5t14 -39t34.5 -37t59 -14.5q32 0 58 15.5t33 25.5t11 18l102 -51q-2 -4 -8.5 -13.5t-24.5 -27.5t-40 -33t-57.5 -26.5t-75.5 -11.5q-4 0 -11.5 1t-11.5 1q-55 -47 -98 -110.5t-43 -127.5q0 -30 10 -49.5t26 -27t26 -9.5 t20 -2q30 0 54.5 20t24.5 46h93q0 -66 -51 -112t-123 -46q-25 0 -51.5 8t-55 26.5t-47 56t-18.5 89.5q0 43 13 80t38.5 69t49 53.5t58.5 49.5q-89 34 -108 137h-19q-79 -86 -174.5 -119.5t-159.5 -33.5q-22 0 -42.5 1t-61.5 7.5t-74 18.5t-72.5 36t-66 57t-45 85.5 t-18.5 117.5zM272 309q0 -40 12.5 -73.5t31.5 -54.5t44.5 -37.5t49.5 -24.5t50 -13.5t41.5 -6.5t28.5 -1q76 0 152.5 34t128 94.5t51.5 129.5v230q1 0 -43 -9.5t-124.5 -26.5t-139.5 -30q-50 -11 -88 -22.5t-76.5 -29t-63 -39t-40 -52t-15.5 -68.5z" />
<glyph unicode="&#x106;" d="M100 707q0 325 176 526q80 94 189 145.5t233 51.5q188 0 340 -130q71 -63 124 -155.5t79 -202.5h-129q-50 182 -156 275q-108 92 -258 92q-206 0 -331 -158q-138 -171 -138 -446q0 -135 36.5 -250t101.5 -195q123 -156 331 -156q162 0 265 95q110 100 155 293h127 q-24 -116 -77 -213.5t-124 -163.5q-146 -131 -346 -131q-124 0 -233 50.5t-191 145.5q-174 200 -174 527zM428 1522l23 112l503 189l-34 -172z" />
<glyph unicode="&#x107;" d="M168 520q0 117 38 218.5t103 171t153.5 109.5t186.5 40q170 0 300.5 -113.5t166.5 -298.5h-129q-34 136 -126.5 216.5t-211.5 80.5q-150 0 -253 -119t-103 -305t102.5 -304t253.5 -118q108 0 195.5 65t128.5 179h131q-47 -163 -172 -260.5t-283 -97.5q-98 0 -186.5 39.5 t-153.5 108.5t-103 170t-38 218zM375 1257v111h549v-111h-549z" />
<glyph unicode="&#x108;" d="M100 707q0 325 176 526q80 94 189 145.5t233 51.5q188 0 340 -130q71 -63 124 -155.5t79 -202.5h-129q-50 182 -156 275q-108 92 -258 92q-206 0 -331 -158q-138 -171 -138 -446q0 -135 36.5 -250t101.5 -195q123 -156 331 -156q162 0 265 95q110 100 155 293h127 q-24 -116 -77 -213.5t-124 -163.5q-146 -131 -346 -131q-124 0 -233 50.5t-191 145.5q-174 200 -174 527zM287 1550l319 275h182l320 -275h-197l-204 199h-19l-205 -199h-196z" />
<glyph unicode="&#x109;" d="M168 520q0 117 38 218.5t103 171t153.5 109.5t186.5 40q170 0 300.5 -113.5t166.5 -298.5h-129q-34 136 -126.5 216.5t-211.5 80.5q-150 0 -253 -119t-103 -305t102.5 -304t253.5 -118q108 0 195.5 65t128.5 179h131q-47 -163 -172 -260.5t-283 -97.5q-98 0 -186.5 39.5 t-153.5 108.5t-103 170t-38 218zM246 1182l319 274h183l319 -274h-197l-204 198h-19l-205 -198h-196z" />
<glyph unicode="&#x10a;" d="M100 707q0 325 176 526q80 94 189 145.5t233 51.5q188 0 340 -130q71 -63 124 -155.5t79 -202.5h-129q-50 182 -156 275q-108 92 -258 92q-206 0 -331 -158q-138 -171 -138 -446q0 -135 36.5 -250t101.5 -195q123 -156 331 -156q162 0 265 95q110 100 155 293h127 q-24 -116 -77 -213.5t-124 -163.5q-146 -131 -346 -131q-124 0 -233 50.5t-191 145.5q-174 200 -174 527zM557 1683q0 50 34 84.5t83 34.5q50 0 84.5 -35t34.5 -84t-34.5 -82.5t-84.5 -33.5t-83.5 33.5t-33.5 82.5z" />
<glyph unicode="&#x10b;" d="M168 520q0 117 38 218.5t103 171t153.5 109.5t186.5 40q170 0 300.5 -113.5t166.5 -298.5h-129q-34 136 -126.5 216.5t-211.5 80.5q-150 0 -253 -119t-103 -305t102.5 -304t253.5 -118q108 0 195.5 65t128.5 179h131q-47 -163 -172 -260.5t-283 -97.5q-98 0 -186.5 39.5 t-153.5 108.5t-103 170t-38 218zM539 1321q0 50 33.5 84.5t82.5 34.5t84 -35t35 -84t-34.5 -83t-84.5 -34q-49 0 -82.5 33.5t-33.5 83.5z" />
<glyph unicode="&#x10c;" d="M100 707q0 325 176 526q80 94 189 145.5t233 51.5q188 0 340 -130q71 -63 124 -155.5t79 -202.5h-129q-50 182 -156 275q-108 92 -258 92q-206 0 -331 -158q-138 -171 -138 -446q0 -135 36.5 -250t101.5 -195q123 -156 331 -156q162 0 265 95q110 100 155 293h127 q-24 -116 -77 -213.5t-124 -163.5q-146 -131 -346 -131q-124 0 -233 50.5t-191 145.5q-174 200 -174 527zM287 1823h196l205 -199h19l204 199h197l-320 -275h-182z" />
<glyph unicode="&#x10d;" d="M168 520q0 117 38 218.5t103 171t153.5 109.5t186.5 40q170 0 300.5 -113.5t166.5 -298.5h-129q-34 136 -126.5 216.5t-211.5 80.5q-150 0 -253 -119t-103 -305t102.5 -304t253.5 -118q108 0 195.5 65t128.5 179h131q-47 -163 -172 -260.5t-283 -97.5q-98 0 -186.5 39.5 t-153.5 108.5t-103 170t-38 218zM244 1456h196l205 -199h19l204 199h197l-320 -274h-182z" />
<glyph unicode="&#x10e;" d="M131 0v1413h442q232 0 385 -102q261 -173 261 -604q0 -434 -261 -607q-151 -100 -385 -100h-442zM244 1806h196l205 -198h19l204 198h197l-320 -274h-182zM256 117h324q183 0 303 82q207 147 207 510q0 373 -224 514q-119 73 -307 73h-303v-1179z" />
<glyph unicode="&#x10f;" d="M18 520q0 146 62 270t169.5 196.5t235.5 72.5q101 0 190.5 -55.5t160.5 -155.5h12v565h121v-1413h-121v182h-12q-139 -198 -351 -198q-128 0 -235.5 72t-169.5 195.5t-62 268.5zM143 520q0 -177 101.5 -299.5t249.5 -122.5q161 0 255 111.5t99 294.5v18q0 191 -94 306.5 t-260 115.5q-148 0 -249.5 -123t-101.5 -301zM1051 1030q77 82 112 178q-41 0 -74.5 32t-33.5 77q0 46 34 79.5t80 33.5q51 0 84 -36t33 -98v-16q0 -82 -61.5 -177.5t-116.5 -144.5z" />
<glyph unicode="&#x110;" d="M8 649v117h123v647h442q232 0 385 -102q261 -173 261 -604q0 -434 -261 -607q-151 -100 -385 -100h-442v649h-123zM256 117h324q183 0 303 82q207 147 207 510q0 373 -224 514q-119 73 -307 73h-303v-530h356v-117h-356v-532z" />
<glyph unicode="&#x111;" d="M158 520q0 146 62 270t169.5 196.5t235.5 72.5q101 0 190 -55t160 -156h12v307h-227v111h227v147h121v-147h129v-111h-129v-1155h-121v182h-12q-139 -198 -350 -198q-128 0 -235.5 72t-169.5 195.5t-62 268.5zM283 520q0 -177 101 -299.5t249 -122.5q161 0 255 111.5 t99 294.5v18q0 191 -94 306.5t-260 115.5q-148 0 -249 -122.5t-101 -301.5z" />
<glyph unicode="&#x112;" d="M217 0v1413h916v-117h-791v-522h729v-117h-729v-540h852v-117h-977zM399 1608v110h549v-110h-549z" />
<glyph unicode="&#x113;" d="M180 520q0 117 39 218.5t105.5 171t156 109.5t189.5 40q203 0 334 -150.5t131 -388.5v-33h-826q4 -170 113.5 -279.5t263.5 -109.5q110 0 191.5 62t126.5 172l108 -49q-60 -139 -178 -219t-264 -80q-100 0 -189.5 39.5t-156 108.5t-105.5 170t-39 218zM309 594h697 q-19 158 -111.5 254t-226.5 96q-139 0 -239.5 -96.5t-119.5 -253.5zM399 1257v111h549v-111h-549z" />
<glyph unicode="&#x114;" d="M217 0v1413h916v-117h-791v-522h729v-117h-729v-540h852v-117h-977zM414 1806h110v-2q0 -78 53 -131t128 -53q78 0 132 53t54 131v2h110q0 -123 -87 -210t-209 -87q-119 0 -205 87t-86 210z" />
<glyph unicode="&#x115;" d="M180 520q0 117 39 218.5t105.5 171t156 109.5t189.5 40q203 0 334 -150.5t131 -388.5v-33h-826q4 -170 113.5 -279.5t263.5 -109.5q110 0 191.5 62t126.5 172l108 -49q-60 -139 -178 -219t-264 -80q-100 0 -189.5 39.5t-156 108.5t-105.5 170t-39 218zM309 594h697 q-19 158 -111.5 254t-226.5 96q-139 0 -239.5 -96.5t-119.5 -253.5zM360 1456h111v-2q0 -78 52.5 -131t127.5 -53q78 0 132.5 53t54.5 131v2h110q0 -123 -87.5 -210t-209.5 -87q-119 0 -205 87t-86 210z" />
<glyph unicode="&#x116;" d="M217 0v1413h916v-117h-791v-522h729v-117h-729v-540h852v-117h-977zM565 1667q0 50 34 84.5t83 34.5q50 0 84.5 -35t34.5 -84t-34.5 -83t-84.5 -34t-83.5 34t-33.5 83z" />
<glyph unicode="&#x117;" d="M180 520q0 117 39 218.5t105.5 171t156 109.5t189.5 40q203 0 334 -150.5t131 -388.5v-33h-826q4 -170 113.5 -279.5t263.5 -109.5q110 0 191.5 62t126.5 172l108 -49q-60 -139 -178 -219t-264 -80q-100 0 -189.5 39.5t-156 108.5t-105.5 170t-39 218zM309 594h697 q-19 158 -111.5 254t-226.5 96q-139 0 -239.5 -96.5t-119.5 -253.5zM555 1321q0 50 34 84.5t83 34.5q50 0 84.5 -35t34.5 -84t-34.5 -83t-84.5 -34t-83.5 34t-33.5 83z" />
<glyph unicode="&#x118;" d="M217 0v1413h916v-117h-791v-522h729v-117h-729v-540h852v-117h-92q-58 -43 -110 -111.5t-52 -140.5q0 -30 10 -49.5t26 -27t26 -9.5t20 -2q30 0 55 20t25 46h92q0 -66 -51 -112t-123 -46q-25 0 -51.5 8t-55 26.5t-47 56t-18.5 89.5q0 42 13 79.5t40 69.5t50 53.5t59 49.5 h-793z" />
<glyph unicode="&#x119;" d="M180 520q0 117 39 218.5t105.5 171t156 109.5t189.5 40q203 0 334 -150.5t131 -388.5v-33h-826q4 -170 113.5 -279.5t263.5 -109.5q110 0 191.5 62t126.5 172l108 -49q-61 -134 -164 -209q-18 -17 -58.5 -52t-59.5 -53t-48.5 -49.5t-43.5 -55t-25 -54.5t-11 -62 q0 -30 10 -49.5t26 -27t26 -9.5t20 -2q30 0 55 20t25 46h92q0 -66 -51 -112t-123 -46q-25 0 -51.5 8t-55 26.5t-47 56t-18.5 89.5q0 54 25 103t52.5 76.5t74.5 66.5q-48 -10 -92 -10q-100 0 -189.5 39.5t-156 108.5t-105.5 170t-39 218zM309 594h697q-19 158 -111.5 254 t-226.5 96q-139 0 -239.5 -96.5t-119.5 -253.5z" />
<glyph unicode="&#x11a;" d="M217 0v1413h916v-117h-791v-522h729v-117h-729v-540h852v-117h-977zM287 1806h196l205 -198h19l204 198h197l-320 -274h-182z" />
<glyph unicode="&#x11b;" d="M180 520q0 117 39 218.5t105.5 171t156 109.5t189.5 40q203 0 334 -150.5t131 -388.5v-33h-826q4 -170 113.5 -279.5t263.5 -109.5q110 0 191.5 62t126.5 172l108 -49q-60 -139 -178 -219t-264 -80q-100 0 -189.5 39.5t-156 108.5t-105.5 170t-39 218zM244 1456h196 l205 -199h19l204 199h197l-320 -274h-182zM309 594h697q-19 158 -111.5 254t-226.5 96q-139 0 -239.5 -96.5t-119.5 -253.5z" />
<glyph unicode="&#x11c;" d="M41 707q0 325 176 526q80 94 189 145.5t233 51.5q188 0 340 -121q76 -60 136 -150.5t81 -187.5h-127q-58 164 -174 254q-108 84 -256 84q-96 0 -181 -42.5t-149 -119.5q-139 -171 -139 -438q0 -274 139 -445q63 -77 148.5 -118.5t181.5 -41.5q82 0 161 35.5t140 100.5 q131 138 143 366h-430v117h547v-723h-125v248q-70 -122 -180 -191q-110 -73 -256 -73q-124 0 -233 50t-191 144q-174 203 -174 529zM246 1548l319 275h183l319 -275h-197l-204 199h-19l-205 -199h-196z" />
<glyph unicode="&#x11d;" d="M184 537q0 144 59.5 264t162.5 189t225 69q194 0 317 -170h10v149h121v-1032q0 -79 -25.5 -150t-75.5 -129t-133 -92t-190 -34q-126 0 -244 61t-184 182l107 52q50 -90 138 -135.5t183 -45.5q148 0 225.5 83.5t77.5 201.5v188q-54 -89 -133 -129.5t-194 -40.5 q-122 0 -225 69t-162.5 188.5t-59.5 261.5zM252 1182l319 274h183l319 -274h-196l-205 198h-19l-204 -198h-197zM309 539q0 -168 94 -287t230 -119q61 0 118 21t103.5 60.5t75 104.5t28.5 146v135q0 85 -27.5 152.5t-74.5 108.5t-104 62t-119 21q-136 0 -230 -118.5 t-94 -286.5z" />
<glyph unicode="&#x11e;" d="M41 707q0 325 176 526q80 94 189 145.5t233 51.5q188 0 340 -121q76 -60 136 -150.5t81 -187.5h-127q-58 164 -174 254q-108 84 -256 84q-96 0 -181 -42.5t-149 -119.5q-139 -171 -139 -438q0 -274 139 -445q63 -77 148.5 -118.5t181.5 -41.5q82 0 161 35.5t140 100.5 q131 138 143 366h-430v117h547v-723h-125v248q-70 -122 -180 -191q-110 -73 -256 -73q-124 0 -233 50t-191 144q-174 203 -174 529zM360 1823h111v-2q0 -78 52.5 -131.5t127.5 -53.5q78 0 132.5 53.5t54.5 131.5v2h110q0 -123 -87.5 -210t-209.5 -87q-119 0 -205 87t-86 210 z" />
<glyph unicode="&#x11f;" d="M184 537q0 144 59.5 264t162.5 189t225 69q194 0 317 -170h10v149h121v-1032q0 -79 -25.5 -150t-75.5 -129t-133 -92t-190 -34q-126 0 -244 61t-184 182l107 52q50 -90 138 -135.5t183 -45.5q148 0 225.5 83.5t77.5 201.5v188q-54 -89 -133 -129.5t-194 -40.5 q-122 0 -225 69t-162.5 188.5t-59.5 261.5zM309 539q0 -168 94 -287t230 -119q61 0 118 21t103.5 60.5t75 104.5t28.5 146v135q0 85 -27.5 152.5t-74.5 108.5t-104 62t-119 21q-136 0 -230 -118.5t-94 -286.5zM360 1456h111v-2q0 -78 52.5 -131t127.5 -53q78 0 132.5 53 t54.5 131v2h110q0 -123 -87.5 -210t-209.5 -87q-119 0 -205 87t-86 210z" />
<glyph unicode="&#x120;" d="M41 707q0 325 176 526q80 94 189 145.5t233 51.5q188 0 340 -121q76 -60 136 -150.5t81 -187.5h-127q-58 164 -174 254q-108 84 -256 84q-96 0 -181 -42.5t-149 -119.5q-139 -171 -139 -438q0 -274 139 -445q63 -77 148.5 -118.5t181.5 -41.5q82 0 161 35.5t140 100.5 q131 138 143 366h-430v117h547v-723h-125v248q-70 -122 -180 -191q-110 -73 -256 -73q-124 0 -233 50t-191 144q-174 203 -174 529zM504 1681q0 50 34 84.5t83 34.5t83.5 -34.5t34.5 -84.5q0 -49 -34 -82.5t-84 -33.5t-83.5 33.5t-33.5 82.5z" />
<glyph unicode="&#x121;" d="M184 537q0 144 59.5 264t162.5 189t225 69q194 0 317 -170h10v149h121v-1032q0 -79 -25.5 -150t-75.5 -129t-133 -92t-190 -34q-126 0 -244 61t-184 182l107 52q50 -90 138 -135.5t183 -45.5q148 0 225.5 83.5t77.5 201.5v188q-54 -89 -133 -129.5t-194 -40.5 q-122 0 -225 69t-162.5 188.5t-59.5 261.5zM309 539q0 -168 94 -287t230 -119q61 0 118 21t103.5 60.5t75 104.5t28.5 146v135q0 85 -27.5 152.5t-74.5 108.5t-104 62t-119 21q-136 0 -230 -118.5t-94 -286.5zM539 1321q0 50 33.5 84.5t82.5 34.5t84 -35t35 -84t-34.5 -83 t-84.5 -34q-49 0 -82.5 33.5t-33.5 83.5z" />
<glyph unicode="&#x122;" d="M41 707q0 325 176 526q80 94 189 145.5t233 51.5q188 0 340 -121q76 -60 136 -150.5t81 -187.5h-127q-58 164 -174 254q-108 84 -256 84q-96 0 -181 -42.5t-149 -119.5q-139 -171 -139 -438q0 -274 139 -445q63 -77 148.5 -118.5t181.5 -41.5q82 0 161 35.5t140 100.5 q131 138 143 366h-430v117h547v-723h-125v248q-70 -122 -180 -191q-110 -73 -256 -73q-124 0 -233 50t-191 144q-174 203 -174 529zM520 -561q78 84 113 178q-41 0 -75 32.5t-34 76.5q0 45 34.5 78.5t80.5 33.5q51 0 84 -36t33 -97v-16q0 -82 -61.5 -177.5t-116.5 -144.5z " />
<glyph unicode="&#x123;" d="M184 537q0 144 59.5 264t162.5 189t225 69q194 0 317 -170h10v149h121v-1032q0 -79 -25.5 -150t-75.5 -129t-133 -92t-190 -34q-126 0 -244 61t-184 182l107 52q50 -90 138 -135.5t183 -45.5q148 0 225.5 83.5t77.5 201.5v188q-54 -89 -133 -129.5t-194 -40.5 q-122 0 -225 69t-162.5 188.5t-59.5 261.5zM309 539q0 -168 94 -287t230 -119q61 0 118 21t103.5 60.5t75 104.5t28.5 146v135q0 85 -27.5 152.5t-74.5 108.5t-104 62t-119 21q-136 0 -230 -118.5t-94 -286.5zM512 1350v20q8 97 67 186.5t117 141.5l60 -74 q-84 -91 -117 -184q42 0 73 -33t31 -78q0 -46 -34 -79t-80 -33q-51 0 -84 36t-33 97z" />
<glyph unicode="&#x124;" d="M123 0v1413h125v-612h815v612h125v-1413h-125v684h-815v-684h-125zM246 1532l319 274h183l319 -274h-197l-204 199h-19l-205 -199h-196z" />
<glyph unicode="&#x125;" d="M229 0v1413h121v-602h17q63 112 162 180t219 68q68 0 122 -15t88 -37t58.5 -54.5t36 -59t18 -59t7.5 -47t1 -29.5v-758h-121v735q0 12 -1.5 24.5t-7 40t-20.5 50t-37.5 45.5t-63.5 36t-93 13q-67 0 -134.5 -34t-124 -95t-91.5 -156t-35 -206v-453h-121zM246 1532l319 274 h183l319 -274h-197l-204 199h-19l-205 -199h-196z" />
<glyph unicode="&#x126;" d="M61 1051v116h123v246h125v-246h692v246h125v-246h123v-116h-123v-1051h-125v684h-692v-684h-125v1051h-123zM309 801h692v250h-692v-250z" />
<glyph unicode="&#x127;" d="M106 1133v110h123v170h121v-170h264v-110h-264v-322h17q63 112 162 180t219 68q68 0 122 -15t88 -37t58.5 -54.5t36 -59t18 -59t7.5 -47t1 -29.5v-758h-121v735q0 12 -1.5 24.5t-7 40t-20.5 50t-37.5 45.5t-63.5 36t-93 13q-67 0 -134.5 -34t-124 -95t-91.5 -156 t-35 -206v-453h-121v1133h-123z" />
<glyph unicode="&#x128;" d="M229 0v117h365v1179h-365v117h854v-117h-364v-1179h364v-117h-854zM276 1622q81 89 138 119.5t110 30.5q48 -1 83 -16.5t81 -47.5q58 -39 88 -39q63 0 166 113l90 -80q-83 -88 -139.5 -118t-108.5 -30q-78 0 -155 56q-62 45 -97 47q-30 0 -67 -23t-98 -92z" />
<glyph unicode="&#x129;" d="M240 0v111h385v817h-330v110h450v-927h385v-111h-890zM276 1251q81 89 138 119.5t110 30.5q48 -1 83 -16.5t81 -47.5q58 -39 88 -39q63 0 166 113l90 -80q-83 -88 -139 -117.5t-109 -29.5q-80 0 -155 55q-62 45 -97 47q-30 0 -67 -23t-98 -92z" />
<glyph unicode="&#x12a;" d="M229 0v117h365v1179h-365v117h854v-117h-364v-1179h364v-117h-854zM381 1608v110h549v-110h-549z" />
<glyph unicode="&#x12b;" d="M240 0v111h385v817h-330v110h450v-927h385v-111h-890zM399 1237v111h549v-111h-549z" />
<glyph unicode="&#x12c;" d="M229 0v117h365v1179h-365v117h854v-117h-364v-1179h364v-117h-854zM360 1806h111v-2q0 -78 52.5 -131t127.5 -53q78 0 132.5 53t54.5 131v2h110q0 -123 -87.5 -210t-209.5 -87q-119 0 -205 87t-86 210z" />
<glyph unicode="&#x12d;" d="M240 0v111h385v817h-330v110h450v-927h385v-111h-890zM391 1436h111v-2q0 -78 52.5 -131.5t127.5 -53.5q78 0 132 53.5t54 131.5v2h111q0 -123 -87.5 -210t-209.5 -87q-119 0 -205 87t-86 210z" />
<glyph unicode="&#x12e;" d="M229 0v117h365v1179h-365v117h854v-117h-364v-1179h364v-117h-319q-58 -43 -110 -111.5t-52 -140.5q0 -30 10 -49.5t26 -27t26 -9.5t20 -2q30 0 55 20t25 46h92q0 -66 -51 -112t-123 -46q-25 0 -51.5 8t-55 26.5t-47 56t-18.5 89.5q0 42 13 79.5t40 69.5t50 53.5t59 49.5 h-443z" />
<glyph unicode="&#x12f;" d="M240 0v111h385v817h-330v110h450v-927h385v-111h-333q-58 -43 -110 -111.5t-52 -140.5q0 -30 10 -49.5t26 -27t26 -9.5t20 -2q30 0 55 20t25 46h92q0 -66 -51 -112t-123 -46q-25 0 -51.5 8t-55 26.5t-47 56t-18.5 89.5q0 42 13 79.5t40 69.5t50 53.5t59 49.5h-465z M569 1321q0 50 34 84.5t83 34.5q50 0 84.5 -35t34.5 -84t-34.5 -83t-84.5 -34t-83.5 34t-33.5 83z" />
<glyph unicode="&#x130;" d="M229 0v117h365v1179h-365v117h854v-117h-364v-1179h364v-117h-854zM539 1667q0 50 33.5 84.5t82.5 34.5t84 -35t35 -84t-34.5 -83t-84.5 -34q-49 0 -82.5 33.5t-33.5 83.5z" />
<glyph unicode="&#x131;" d="M240 0v111h385v817h-330v110h450v-927h385v-111h-890z" />
<glyph unicode="&#x132;" d="M78 0v117h293v1179h-293v117h710v-117h-292v-1179h292v-117h-710zM485 -387l43 113q11 -4 37.5 -11t81 -16.5t96.5 -9.5q187 0 271 104t84 301v1319h125v-1341q0 -246 -114 -375t-366 -129q-49 0 -115 11.5t-98 20.5t-45 13z" />
<glyph unicode="&#x133;" d="M78 0v111h325v817h-270v110h391v-927h326v-111h-772zM348 1309q0 50 34 84t83 34q50 0 84.5 -34.5t34.5 -83.5t-34.5 -83t-84.5 -34q-49 0 -83 34t-34 83zM520 -236l107 54q37 -68 105 -101.5t142 -33.5q112 0 170 60t58 146v1039h-260v110h381v-1142q0 -64 -21 -121.5 t-61.5 -104.5t-109.5 -74.5t-157 -27.5q-104 0 -201.5 49t-152.5 147zM1047 1309q0 50 33.5 84t82.5 34q50 0 84.5 -34.5t34.5 -83.5t-34.5 -83t-84.5 -34q-49 0 -82.5 33.5t-33.5 83.5z" />
<glyph unicode="&#x134;" d="M4 356l125 45q28 -139 115 -218t239 -79q187 0 271 104.5t84 301.5v903h125v-926q0 -246 -113 -374.5t-363 -128.5q-207 0 -326.5 98.5t-156.5 273.5zM489 1532l320 274h182l320 -274h-197l-205 199h-18l-205 -199h-197z" />
<glyph unicode="&#x135;" d="M182 -236l107 54q37 -68 105.5 -101.5t142.5 -33.5q112 0 169.5 60t57.5 146v1039h-365v110h486v-1142q0 -64 -20.5 -121.5t-61.5 -104.5t-109.5 -74.5t-156.5 -27.5q-104 0 -202 49t-153 147zM309 1161l320 275h182l319 -275h-196l-205 199h-18l-205 -199h-197z" />
<glyph unicode="&#x136;" d="M248 0v1413h125v-690l714 690h166l-628 -602v-55l665 -756h-160l-589 670h-62l-106 -105v-565h-125zM629 -561q77 82 112 178q-41 0 -74.5 32t-33.5 77t34.5 78.5t80.5 33.5q51 0 83.5 -35.5t32.5 -97.5v-16q0 -82 -61.5 -177.5t-116.5 -144.5z" />
<glyph unicode="&#x137;" d="M252 0v1413h121v-778h18l488 403h176l-420 -354v-20l516 -664h-158l-448 575h-29l-143 -120v-455h-121zM555 -561q78 84 113 178q-41 0 -75 32.5t-34 76.5q0 45 34.5 78.5t80.5 33.5q51 0 84 -36t33 -97v-16q0 -82 -62 -177.5t-117 -144.5z" />
<glyph unicode="&#x138;" d="M293 0v1038h121v-477h18l578 477h176l-510 -428v-20l459 -590h-158l-391 502h-29l-143 -121v-381h-121z" />
<glyph unicode="&#x139;" d="M135 1505l23 113l504 188l-35 -172zM256 0v1413h125v-1296h840v-117h-965z" />
<glyph unicode="&#x13a;" d="M240 0v111h385v1192h-330v110h450v-1302h385v-111h-890zM352 1505l23 113l504 188l-35 -172z" />
<glyph unicode="&#x13b;" d="M256 0v1413h125v-1296h840v-117h-965zM621 -561q77 82 112 178q-41 0 -74.5 32t-33.5 77q0 46 34 79t80 33q51 0 84 -36t33 -97v-16q0 -82 -61.5 -177.5t-116.5 -144.5z" />
<glyph unicode="&#x13c;" d="M240 0v111h385v1192h-330v110h450v-1302h385v-111h-890zM565 -561q78 84 113 178q-41 0 -75 32.5t-34 76.5q0 45 34.5 78.5t80.5 33.5q51 0 84 -36t33 -97v-16q0 -82 -61.5 -177.5t-116.5 -144.5z" />
<glyph unicode="&#x13d;" d="M256 0v1413h125v-1296h840v-117h-965zM580 1030q77 82 112 178q-41 0 -74.5 32t-33.5 77q0 46 34 79.5t80 33.5q51 0 84 -36t33 -98v-16q0 -82 -61.5 -177.5t-116.5 -144.5z" />
<glyph unicode="&#x13e;" d="M240 0v111h385v1192h-330v110h450v-1302h385v-111h-890zM940 1030q78 84 113 178q-41 0 -75 32.5t-34 76.5q0 46 34.5 79.5t80.5 33.5q51 0 84 -36t33 -98v-16q0 -82 -62 -177.5t-117 -144.5z" />
<glyph unicode="&#x13f;" d="M256 0v1413h125v-1296h840v-117h-965zM672 686q0 51 37 88t88 37q55 0 92 -36.5t37 -88.5q0 -56 -37 -92.5t-92 -36.5q-52 0 -88.5 37t-36.5 92z" />
<glyph unicode="&#x140;" d="M240 0v111h385v1192h-330v110h450v-1302h385v-111h-890zM909 686q0 51 37 88t88 37q55 0 92 -36.5t37 -88.5q0 -56 -36.5 -92.5t-92.5 -36.5q-52 0 -88.5 37t-36.5 92z" />
<glyph unicode="&#x141;" d="M104 561v146l152 92v614h125v-536l268 165v-147l-268 -166v-612h840v-117h-965v653z" />
<glyph unicode="&#x142;" d="M240 0v111h385v637l-166 -101v146l166 100v410h-330v110h450v-444l158 96v-147l-158 -97v-710h385v-111h-890z" />
<glyph unicode="&#x143;" d="M109 0v1413h225l733 -1325h10v1325h125v-1413h-225l-735 1325h-9v-1325h-124zM397 1505l23 113l504 188l-35 -172z" />
<glyph unicode="&#x144;" d="M229 0v1038h121v-227h17q63 112 162 180t219 68q68 0 122 -15t88 -37t58.5 -54.5t36 -59t18 -59t7.5 -47t1 -29.5v-758h-121v735q0 12 -1.5 24.5t-7 40t-20.5 50t-37.5 45.5t-63.5 36t-93 13q-67 0 -134.5 -34t-124 -95t-91.5 -156t-35 -206v-453h-121zM438 1155l23 113 l504 188l-35 -172z" />
<glyph unicode="&#x145;" d="M109 0v1413h225l733 -1325h10v1325h125v-1413h-225l-735 1325h-9v-1325h-124zM535 -561q77 82 112 178q-41 0 -74.5 32t-33.5 77q0 46 34 79t80 33q51 0 84 -36t33 -97v-16q0 -82 -61.5 -177.5t-116.5 -144.5z" />
<glyph unicode="&#x146;" d="M229 0v1038h121v-227h17q63 112 162 180t219 68q68 0 122 -15t88 -37t58.5 -54.5t36 -59t18 -59t7.5 -47t1 -29.5v-758h-121v735q0 12 -1.5 24.5t-7 40t-20.5 50t-37.5 45.5t-63.5 36t-93 13q-67 0 -134.5 -34t-124 -95t-91.5 -156t-35 -206v-453h-121zM553 -561 q78 84 113 178q-41 0 -75 32.5t-34 76.5q0 45 34.5 78.5t80.5 33.5q51 0 83.5 -35.5t32.5 -97.5v-16q0 -82 -61.5 -177.5t-116.5 -144.5z" />
<glyph unicode="&#x147;" d="M109 0v1413h225l733 -1325h10v1325h125v-1413h-225l-735 1325h-9v-1325h-124zM231 1806h197l205 -198h18l205 198h197l-320 -274h-182z" />
<glyph unicode="&#x148;" d="M229 0v1038h121v-227h17q63 112 162 180t219 68q68 0 122 -15t88 -37t58.5 -54.5t36 -59t18 -59t7.5 -47t1 -29.5v-758h-121v735q0 12 -1.5 24.5t-7 40t-20.5 50t-37.5 45.5t-63.5 36t-93 13q-67 0 -134.5 -34t-124 -95t-91.5 -156t-35 -206v-453h-121zM244 1456h196 l205 -199h19l204 199h197l-320 -274h-182z" />
<glyph unicode="&#x149;" d="M49 1022q84 91 117 184q-42 0 -73.5 33t-31.5 78q0 46 34.5 79.5t80.5 33.5q51 0 84 -36t33 -98v-20q-8 -97 -67 -186.5t-117 -141.5zM313 0v1038h121v-227h17q63 113 161.5 180.5t218.5 67.5q68 0 122.5 -15t88 -37t58.5 -54.5t36.5 -59t18 -59t7.5 -47t1 -29.5v-758 h-121v735q0 12 -1.5 24.5t-7 40t-20.5 50t-37.5 45.5t-63.5 36t-93 13q-67 0 -134.5 -34t-124 -95t-91.5 -156t-35 -206v-453h-121z" />
<glyph unicode="&#x14a;" d="M109 0v1413h225l743 -1190v1190h125v-1341q0 -246 -113.5 -375t-365.5 -129q-49 0 -115 11.5t-98 20.5t-45 13l43 113q11 -4 37.5 -11t81 -16.5t96.5 -9.5q316 0 348 315l-829 1321h-9v-1325h-124z" />
<glyph unicode="&#x14b;" d="M229 0v1038h121v-227h17q63 112 162 180t219 68q68 0 122 -15t88 -37t58.5 -54.5t36 -59t18 -59t7.5 -47t1 -29.5v-862q0 -64 -20.5 -121.5t-61.5 -104.5t-109.5 -74.5t-156.5 -27.5q-104 0 -201.5 49t-152.5 147l106 54q37 -68 105.5 -101.5t142.5 -33.5q112 0 169.5 60 t57.5 146v846q0 12 -1.5 24.5t-7 40t-20.5 50t-37.5 45.5t-63.5 36t-93 13q-67 0 -134.5 -34t-124 -95t-91.5 -156t-35 -206v-453h-121z" />
<glyph unicode="&#x14c;" d="M59 707q0 323 177 526q82 94 191.5 145.5t231.5 51.5q120 0 228 -51.5t188 -145.5q174 -199 174 -526q0 -329 -172 -529q-82 -94 -190 -144t-228 -50q-123 0 -233 50.5t-193 145.5q-174 200 -174 527zM188 707q0 -272 140 -441q63 -78 147.5 -120t179.5 -42t180 42 t148 120q137 170 137 441q0 268 -137 438q-63 78 -148 121t-180 43t-179.5 -42.5t-147.5 -121.5q-140 -169 -140 -438zM385 1634v111h549v-111h-549z" />
<glyph unicode="&#x14d;" d="M168 520q0 156 66.5 280t177.5 191.5t245 67.5q132 0 242.5 -67.5t177 -191.5t66.5 -280q0 -234 -142 -385t-344 -151q-100 0 -189.5 39.5t-155.5 108.5t-105 170t-39 218zM293 520q0 -186 105 -304t257 -118t257.5 118.5t105.5 303.5q0 186 -105.5 305t-257.5 119 t-257 -119t-105 -305zM383 1257v111h549v-111h-549z" />
<glyph unicode="&#x14e;" d="M59 707q0 323 177 526q82 94 191.5 145.5t231.5 51.5q120 0 228 -51.5t188 -145.5q174 -199 174 -526q0 -329 -172 -529q-82 -94 -190 -144t-228 -50q-123 0 -233 50.5t-193 145.5q-174 200 -174 527zM188 707q0 -272 140 -441q63 -78 147.5 -120t179.5 -42t180 42 t148 120q137 170 137 441q0 268 -137 438q-63 78 -148 121t-180 43t-179.5 -42.5t-147.5 -121.5q-140 -169 -140 -438zM360 1823h111v-2q0 -78 52.5 -131.5t127.5 -53.5q78 0 132.5 53.5t54.5 131.5v2h110q0 -123 -87.5 -210t-209.5 -87q-119 0 -205 87t-86 210z" />
<glyph unicode="&#x14f;" d="M168 520q0 156 66.5 280t177.5 191.5t245 67.5q132 0 242.5 -67.5t177 -191.5t66.5 -280q0 -234 -142 -385t-344 -151q-100 0 -189.5 39.5t-155.5 108.5t-105 170t-39 218zM293 520q0 -186 105 -304t257 -118t257.5 118.5t105.5 303.5q0 186 -105.5 305t-257.5 119 t-257 -119t-105 -305zM360 1430h111v-3q0 -78 52.5 -131t127.5 -53q78 0 132.5 53t54.5 131v3h110q0 -123 -87.5 -210t-209.5 -87q-119 0 -205 87t-86 210z" />
<glyph unicode="&#x150;" d="M59 707q0 323 177 526q82 94 191.5 145.5t231.5 51.5q120 0 228 -51.5t188 -145.5q174 -199 174 -526q0 -329 -172 -529q-82 -94 -190 -144t-228 -50q-123 0 -233 50.5t-193 145.5q-174 200 -174 527zM104 1522l23 112l504 189l-35 -172zM188 707q0 -272 140 -441 q63 -78 147.5 -120t179.5 -42t180 42t148 120q137 170 137 441q0 268 -137 438q-63 78 -148 121t-180 43t-179.5 -42.5t-147.5 -121.5q-140 -169 -140 -438zM676 1522l22 112l504 189l-35 -172z" />
<glyph unicode="&#x151;" d="M104 1155l23 113l504 188l-35 -172zM168 520q0 156 66.5 280t177.5 191.5t245 67.5q132 0 242.5 -67.5t177 -191.5t66.5 -280q0 -234 -142 -385t-344 -151q-100 0 -189.5 39.5t-155.5 108.5t-105 170t-39 218zM293 520q0 -186 105 -304t257 -118t257.5 118.5t105.5 303.5 q0 186 -105.5 305t-257.5 119t-257 -119t-105 -305zM676 1155l22 113l504 188l-35 -172z" />
<glyph unicode="&#x152;" d="M59 705q0 303 144 516q68 100 160.5 154.5t197.5 54.5q49 0 109 -17h561v-117h-479v-522h417v-117h-417v-540h483v-117h-555q-58 -18 -119 -18q-106 0 -198.5 53t-159.5 153q-144 213 -144 517zM188 707q0 -134 31.5 -248t85.5 -193q53 -76 123 -119t145 -43q31 0 54 5 v1194q-27 6 -54 6q-75 0 -144.5 -43.5t-123.5 -120.5q-54 -79 -85.5 -192t-31.5 -246z" />
<glyph unicode="&#x153;" d="M137 520q0 117 39 218.5t105.5 171t156 109.5t189.5 40h82q203 0 334 -150.5t131 -388.5v-33h-449v-389q110 0 192 60.5t127 167.5l107 -43q-60 -139 -178 -219t-264 -80h-82q-100 0 -189.5 39.5t-156 108.5t-105.5 170t-39 218zM262 520q0 -180 98.5 -297t243.5 -125 v846q-145 -9 -243.5 -127.5t-98.5 -296.5zM725 594h319q-19 152 -106 247t-213 103v-350z" />
<glyph unicode="&#x154;" d="M178 0v1413h598q154 0 262.5 -121t108.5 -291q0 -139 -72.5 -247t-187.5 -148l323 -606h-139l-313 586h-455v-586h-125zM303 702h451q109 0 186.5 86t77.5 209q0 125 -77.5 212t-186.5 87h-451v-594zM385 1505l23 113l503 188l-34 -172z" />
<glyph unicode="&#x155;" d="M229 0v1038h121v-227h17q63 112 162 180t219 68q68 0 122 -15t87.5 -37t58 -54.5t36 -59t18 -59.5t7 -46.5t0.5 -29.5v-31h-119v8q0 12 -1.5 24.5t-7 40t-20.5 50t-37.5 45.5t-63.5 36t-93 13q-67 0 -134.5 -34t-124 -95t-91.5 -156t-35 -206v-453h-121zM410 1155l22 113 l504 188l-35 -172z" />
<glyph unicode="&#x156;" d="M178 0v1413h598q154 0 262.5 -121t108.5 -291q0 -139 -72.5 -247t-187.5 -148l323 -606h-139l-313 586h-455v-586h-125zM303 702h451q109 0 186.5 86t77.5 209q0 125 -77.5 212t-186.5 87h-451v-594zM565 -561q78 84 113 178q-41 0 -75 32.5t-34 76.5q0 45 34.5 78.5 t80.5 33.5q51 0 84 -36t33 -97v-16q0 -82 -61.5 -177.5t-116.5 -144.5z" />
<glyph unicode="&#x157;" d="M229 0v1038h121v-227h17q63 112 162 180t219 68q68 0 122 -15t87.5 -37t58 -54.5t36 -59t18 -59.5t7 -46.5t0.5 -29.5v-31h-119v8q0 12 -1.5 24.5t-7 40t-20.5 50t-37.5 45.5t-63.5 36t-93 13q-67 0 -134.5 -34t-124 -95t-91.5 -156t-35 -206v-453h-121zM571 -561 q78 84 113 178q-41 0 -75 32.5t-34 76.5q0 45 34.5 78.5t80.5 33.5q51 0 84 -36t33 -97v-16q0 -82 -61.5 -177.5t-116.5 -144.5z" />
<glyph unicode="&#x158;" d="M178 0v1413h598q154 0 262.5 -121t108.5 -291q0 -139 -72.5 -247t-187.5 -148l323 -606h-139l-313 586h-455v-586h-125zM244 1806h196l205 -198h19l204 198h197l-320 -274h-182zM303 702h451q109 0 186.5 86t77.5 209q0 125 -77.5 212t-186.5 87h-451v-594z" />
<glyph unicode="&#x159;" d="M229 0v1038h121v-227h17q63 112 162 180t219 68q68 0 122 -15t87.5 -37t58 -54.5t36 -59t18 -59.5t7 -46.5t0.5 -29.5v-31h-119v8q0 12 -1.5 24.5t-7 40t-20.5 50t-37.5 45.5t-63.5 36t-93 13q-67 0 -134.5 -34t-124 -95t-91.5 -156t-35 -206v-453h-121zM240 1456h196 l205 -199h18l205 199h197l-320 -274h-182z" />
<glyph unicode="&#x15a;" d="M66 457h133q59 -188 178 -271q114 -82 303 -82q204 0 305 72q115 83 115 244q0 73 -60 133q-24 24 -53.5 42t-54.5 28t-66 18.5t-66.5 11.5t-80 9t-84.5 10q-90 11 -125.5 16t-91.5 16t-83.5 23.5t-61 33t-64.5 50.5q-100 97 -100 240q0 172 161 280q147 99 340 99 q229 0 359 -91q139 -94 211 -301h-138q-59 146 -157 209q-101 62 -273 62q-141 0 -250 -70q-124 -77 -124 -201q0 -80 61 -141q44 -44 114 -65t253 -37q198 -18 301 -52.5t180 -115.5q82 -85 82 -213q0 -208 -148 -322q-141 -108 -395 -108q-233 0 -399 125 q-77 59 -137.5 153.5t-83.5 194.5zM397 1522l23 112l504 189l-35 -172z" />
<glyph unicode="&#x15b;" d="M176 334h127q0 -5 7.5 -24.5t29.5 -53.5t51 -59q113 -93 289 -93q178 0 268 82q60 57 60 121q0 32 -11 56.5t-35 41t-46.5 27.5t-63 18t-64.5 10t-70.5 7t-64.5 6q-66 7 -111.5 14.5t-101.5 22t-97 38t-67 56.5q-57 74 -57 141q0 96 66 179q102 135 352 135 q258 0 375 -166q24 -36 37.5 -78t15.5 -59t2 -27h-123q0 57 -39 111q-77 104 -262 104t-258 -84q-41 -48 -41 -104q0 -30 12 -53t35.5 -40t51 -29t69.5 -20.5t79.5 -14t90.5 -11.5q195 -21 266 -40t121 -69q64 -64 64 -174q0 -38 -19.5 -89t-62.5 -99q-120 -133 -363 -133 q-248 0 -391 139q-41 40 -71 92.5t-40 82t-10 36.5zM397 1155l23 113l504 188l-35 -172z" />
<glyph unicode="&#x15c;" d="M66 457h133q59 -188 178 -271q114 -82 303 -82q204 0 305 72q115 83 115 244q0 73 -60 133q-24 24 -53.5 42t-54.5 28t-66 18.5t-66.5 11.5t-80 9t-84.5 10q-90 11 -125.5 16t-91.5 16t-83.5 23.5t-61 33t-64.5 50.5q-100 97 -100 240q0 172 161 280q147 99 340 99 q229 0 359 -91q139 -94 211 -301h-138q-59 146 -157 209q-101 62 -273 62q-141 0 -250 -70q-124 -77 -124 -201q0 -80 61 -141q44 -44 114 -65t253 -37q198 -18 301 -52.5t180 -115.5q82 -85 82 -213q0 -208 -148 -322q-141 -108 -395 -108q-233 0 -399 125 q-77 59 -137.5 153.5t-83.5 194.5zM248 1548l319 275h183l319 -275h-197l-204 199h-19l-205 -199h-196z" />
<glyph unicode="&#x15d;" d="M176 334h127q0 -5 7.5 -24.5t29.5 -53.5t51 -59q113 -93 289 -93q178 0 268 82q60 57 60 121q0 32 -11 56.5t-35 41t-46.5 27.5t-63 18t-64.5 10t-70.5 7t-64.5 6q-66 7 -111.5 14.5t-101.5 22t-97 38t-67 56.5q-57 74 -57 141q0 96 66 179q102 135 352 135 q258 0 375 -166q24 -36 37.5 -78t15.5 -59t2 -27h-123q0 57 -39 111q-77 104 -262 104t-258 -84q-41 -48 -41 -104q0 -30 12 -53t35.5 -40t51 -29t69.5 -20.5t79.5 -14t90.5 -11.5q195 -21 266 -40t121 -69q64 -64 64 -174q0 -38 -19.5 -89t-62.5 -99q-120 -133 -363 -133 q-248 0 -391 139q-41 40 -71 92.5t-40 82t-10 36.5zM246 1182l319 274h183l319 -274h-197l-204 198h-19l-205 -198h-196z" />
<glyph unicode="&#x15e;" d="M66 457h133q59 -188 178 -271q114 -82 303 -82q204 0 305 72q115 83 115 244q0 73 -60 133q-24 24 -53.5 42t-54.5 28t-66 18.5t-66.5 11.5t-80 9t-84.5 10q-90 11 -125.5 16t-91.5 16t-83.5 23.5t-61 33t-64.5 50.5q-100 97 -100 240q0 172 161 280q147 99 340 99 q229 0 359 -91q139 -94 211 -301h-138q-59 146 -157 209q-101 62 -273 62q-141 0 -250 -70q-124 -77 -124 -201q0 -80 61 -141q44 -44 114 -65t253 -37q198 -18 301 -52.5t180 -115.5q82 -85 82 -213q0 -208 -148 -322q-141 -108 -395 -108v-103q62 -9 102.5 -52.5 t40.5 -102.5q0 -66 -50 -112t-122 -46t-123 46t-51 112h92q0 -25 25.5 -45.5t54.5 -20.5q31 0 56.5 20.5t25.5 45.5q0 26 -15.5 44t-43.5 21h-88v199q-174 18 -303 119q-77 59 -137.5 153.5t-83.5 194.5z" />
<glyph unicode="&#x15f;" d="M176 334h127q0 -5 7.5 -24.5t29.5 -53.5t51 -59q113 -93 289 -93q178 0 268 82q60 57 60 121q0 32 -11 56.5t-35 41t-46.5 27.5t-63 18t-64.5 10t-70.5 7t-64.5 6q-66 7 -111.5 14.5t-101.5 22t-97 38t-67 56.5q-57 74 -57 141q0 96 66 179q102 135 352 135 q258 0 375 -166q24 -36 37.5 -78t15.5 -59t2 -27h-123q0 57 -39 111q-77 104 -262 104t-258 -84q-41 -48 -41 -104q0 -30 12 -53t35.5 -40t51 -29t69.5 -20.5t79.5 -14t90.5 -11.5q195 -21 266 -40t121 -69q64 -64 64 -174q0 -38 -19.5 -89t-62.5 -99q-120 -133 -365 -133 v-103q62 -9 102.5 -52.5t40.5 -102.5q0 -66 -50 -112t-122 -46t-123 46t-51 112h92q0 -25 25.5 -45.5t54.5 -20.5q31 0 56.5 20.5t25.5 45.5q0 26 -15.5 44t-43.5 21h-88v199q-181 21 -293 133q-41 40 -71 92.5t-40 82t-10 36.5z" />
<glyph unicode="&#x160;" d="M66 457h133q59 -188 178 -271q114 -82 303 -82q204 0 305 72q115 83 115 244q0 73 -60 133q-24 24 -53.5 42t-54.5 28t-66 18.5t-66.5 11.5t-80 9t-84.5 10q-90 11 -125.5 16t-91.5 16t-83.5 23.5t-61 33t-64.5 50.5q-100 97 -100 240q0 172 161 280q147 99 340 99 q229 0 359 -91q139 -94 211 -301h-138q-59 146 -157 209q-101 62 -273 62q-141 0 -250 -70q-124 -77 -124 -201q0 -80 61 -141q44 -44 114 -65t253 -37q198 -18 301 -52.5t180 -115.5q82 -85 82 -213q0 -208 -148 -322q-141 -108 -395 -108q-233 0 -399 125 q-77 59 -137.5 153.5t-83.5 194.5zM244 1823h196l205 -199h19l204 199h197l-320 -275h-182z" />
<glyph unicode="&#x161;" d="M176 334h127q0 -5 7.5 -24.5t29.5 -53.5t51 -59q113 -93 289 -93q178 0 268 82q60 57 60 121q0 32 -11 56.5t-35 41t-46.5 27.5t-63 18t-64.5 10t-70.5 7t-64.5 6q-66 7 -111.5 14.5t-101.5 22t-97 38t-67 56.5q-57 74 -57 141q0 96 66 179q102 135 352 135 q258 0 375 -166q24 -36 37.5 -78t15.5 -59t2 -27h-123q0 57 -39 111q-77 104 -262 104t-258 -84q-41 -48 -41 -104q0 -30 12 -53t35.5 -40t51 -29t69.5 -20.5t79.5 -14t90.5 -11.5q195 -21 266 -40t121 -69q64 -64 64 -174q0 -38 -19.5 -89t-62.5 -99q-120 -133 -363 -133 q-248 0 -391 139q-41 40 -71 92.5t-40 82t-10 36.5zM244 1456h196l205 -199h19l204 199h197l-320 -274h-182z" />
<glyph unicode="&#x162;" d="M106 1296v117h1100v-117h-489v-1296h-15v-119q62 -9 103 -52.5t41 -102.5q0 -66 -50 -112t-122 -46t-123 46t-51 112h92q0 -25 25.5 -45.5t54.5 -20.5q31 0 56.5 20.5t25.5 45.5q0 26 -16 44t-44 21h-88v209h-14v1296h-486z" />
<glyph unicode="&#x163;" d="M154 928v110h292v375h121v-375h508v-110h-508v-623q0 -86 58 -146.5t170 -60.5q74 0 142 33.5t105 101.5l107 -53q-49 -88 -133 -136t-180 -58v-105q62 -9 102.5 -52.5t40.5 -102.5q0 -66 -50 -112t-122 -46t-123 46t-51 112h92q0 -25 25.5 -45.5t54.5 -20.5 q31 0 56.5 20.5t25.5 45.5q0 26 -16 44t-44 21h-88v197q-145 14 -219 106t-74 217v617h-292z" />
<glyph unicode="&#x164;" d="M106 1296v117h1100v-117h-489v-1296h-125v1296h-486zM244 1806h196l205 -198h19l204 198h197l-320 -274h-182z" />
<glyph unicode="&#x165;" d="M154 928v110h292v375h121v-375h287v-110h-287v-623q0 -86 58 -146.5t170 -60.5q74 0 142 33.5t105 101.5l107 -53q-55 -98 -152.5 -147t-201.5 -49q-88 0 -157 27.5t-109.5 74t-61.5 104t-21 121.5v617h-292zM934 1022q84 91 117 184q-42 0 -73.5 33t-31.5 78 q0 46 34.5 79.5t80.5 33.5q51 0 84 -36t33 -98v-20q-5 -67 -42 -139.5t-73 -115.5t-70 -73z" />
<glyph unicode="&#x166;" d="M106 1296v117h1100v-117h-489v-434h366v-117h-366v-745h-125v745h-369v117h369v434h-486z" />
<glyph unicode="&#x167;" d="M154 578v110h292v240h-292v110h292v375h121v-375h508v-110h-508v-240h508v-110h-508v-273q0 -86 58 -146.5t170 -60.5q74 0 142 33.5t105 101.5l107 -53q-55 -98 -152.5 -147t-201.5 -49q-88 0 -157 27.5t-109.5 74t-61.5 104t-21 121.5v267h-292z" />
<glyph unicode="&#x168;" d="M115 535v878h125v-854q0 -100 22.5 -180t70 -143t129.5 -97.5t193 -34.5t193 34.5t130 97.5t70.5 143.5t22.5 179.5v854h125v-878q0 -121 -30 -218.5t-92.5 -173.5t-169 -117.5t-249.5 -41.5t-249.5 41.5t-168.5 117.5t-92 173.5t-30 218.5zM276 1622q81 89 138 119.5 t110 30.5q48 -1 83 -16.5t81 -47.5q58 -39 88 -39q63 0 166 113l90 -80q-83 -88 -139.5 -118t-108.5 -30q-78 0 -155 56q-62 45 -97 47q-30 0 -67 -23t-98 -92z" />
<glyph unicode="&#x169;" d="M229 285v753h121v-731q0 -12 1.5 -24.5t7 -40t20.5 -50t37.5 -45.5t63.5 -36t93 -13q53 0 107.5 21t104 63.5t88.5 100.5t62 137.5t23 169.5v448h121v-1038h-121v233h-16q-63 -113 -162 -181t-219 -68q-68 0 -122.5 15t-88 37t-58.5 54.5t-36.5 59t-18 59t-7.5 47 t-1 29.5zM276 1251q81 89 138 119.5t110 30.5q48 -1 83 -16.5t81 -47.5q58 -39 88 -39q63 0 166 113l90 -80q-83 -88 -139 -117.5t-109 -29.5q-80 0 -155 55q-62 45 -97 47q-30 0 -67 -23t-98 -92z" />
<glyph unicode="&#x16a;" d="M115 535v878h125v-854q0 -100 22.5 -180t70 -143t129.5 -97.5t193 -34.5t193 34.5t130 97.5t70.5 143.5t22.5 179.5v854h125v-878q0 -121 -30 -218.5t-92.5 -173.5t-169 -117.5t-249.5 -41.5t-249.5 41.5t-168.5 117.5t-92 173.5t-30 218.5zM381 1608v110h549v-110h-549z " />
<glyph unicode="&#x16b;" d="M229 285v753h121v-731q0 -12 1.5 -24.5t7 -40t20.5 -50t37.5 -45.5t63.5 -36t93 -13q53 0 107.5 21t104 63.5t88.5 100.5t62 137.5t23 169.5v448h121v-1038h-121v233h-16q-63 -113 -162 -181t-219 -68q-68 0 -122.5 15t-88 37t-58.5 54.5t-36.5 59t-18 59t-7.5 47 t-1 29.5zM379 1237v111h549v-111h-549z" />
<glyph unicode="&#x16c;" d="M115 535v878h125v-854q0 -100 22.5 -180t70 -143t129.5 -97.5t193 -34.5t193 34.5t130 97.5t70.5 143.5t22.5 179.5v854h125v-878q0 -121 -30 -218.5t-92.5 -173.5t-169 -117.5t-249.5 -41.5t-249.5 41.5t-168.5 117.5t-92 173.5t-30 218.5zM360 1806h111v-2 q0 -78 52.5 -131t127.5 -53q78 0 132.5 53t54.5 131v2h110q0 -123 -87.5 -210t-209.5 -87q-119 0 -205 87t-86 210z" />
<glyph unicode="&#x16d;" d="M229 285v753h121v-731q0 -12 1.5 -24.5t7 -40t20.5 -50t37.5 -45.5t63.5 -36t93 -13q53 0 107.5 21t104 63.5t88.5 100.5t62 137.5t23 169.5v448h121v-1038h-121v233h-16q-63 -113 -162 -181t-219 -68q-68 0 -122.5 15t-88 37t-58.5 54.5t-36.5 59t-18 59t-7.5 47 t-1 29.5zM360 1436h111v-2q0 -78 52.5 -131.5t127.5 -53.5q78 0 132.5 53.5t54.5 131.5v2h110q0 -123 -87.5 -210t-209.5 -87q-119 0 -205 87t-86 210z" />
<glyph unicode="&#x16e;" d="M115 535v878h125v-854q0 -100 22.5 -180t70 -143t129.5 -97.5t193 -34.5t193 34.5t130 97.5t70.5 143.5t22.5 179.5v854h125v-878q0 -121 -30 -218.5t-92.5 -173.5t-169 -117.5t-249.5 -41.5t-249.5 41.5t-168.5 117.5t-92 173.5t-30 218.5zM438 1583q0 88 63.5 150.5 t153.5 62.5q88 0 150.5 -62.5t62.5 -150.5q0 -90 -62.5 -153.5t-150.5 -63.5q-91 0 -154 63t-63 154zM545 1583q0 -47 31.5 -78.5t78.5 -31.5q45 0 76 31.5t31 78.5q0 44 -31.5 75.5t-75.5 31.5q-47 0 -78.5 -31t-31.5 -76z" />
<glyph unicode="&#x16f;" d="M229 285v753h121v-731q0 -12 1.5 -24.5t7 -40t20.5 -50t37.5 -45.5t63.5 -36t93 -13q53 0 107.5 21t104 63.5t88.5 100.5t62 137.5t23 169.5v448h121v-1038h-121v233h-16q-63 -113 -162 -181t-219 -68q-68 0 -122.5 15t-88 37t-58.5 54.5t-36.5 59t-18 59t-7.5 47 t-1 29.5zM442 1376q0 88 63.5 150.5t153.5 62.5q88 0 150.5 -62.5t62.5 -150.5q0 -90 -62.5 -153.5t-150.5 -63.5q-91 0 -154 63t-63 154zM549 1376q0 -47 31.5 -78.5t78.5 -31.5q45 0 76 31.5t31 78.5q0 44 -31.5 75.5t-75.5 31.5q-47 0 -78.5 -31t-31.5 -76z" />
<glyph unicode="&#x170;" d="M104 1505l23 113l504 188l-35 -172zM115 535v878h125v-854q0 -100 22.5 -180t70 -143t129.5 -97.5t193 -34.5t193 34.5t130 97.5t70.5 143.5t22.5 179.5v854h125v-878q0 -121 -30 -218.5t-92.5 -173.5t-169 -117.5t-249.5 -41.5t-249.5 41.5t-168.5 117.5t-92 173.5 t-30 218.5zM676 1505l22 113l504 188l-35 -172z" />
<glyph unicode="&#x171;" d="M104 1139l23 112l504 189l-35 -172zM229 285v753h121v-731q0 -12 1.5 -24.5t7 -40t20.5 -50t37.5 -45.5t63.5 -36t93 -13q53 0 107.5 21t104 63.5t88.5 100.5t62 137.5t23 169.5v448h121v-1038h-121v233h-16q-63 -113 -162 -181t-219 -68q-68 0 -122.5 15t-88 37 t-58.5 54.5t-36.5 59t-18 59t-7.5 47t-1 29.5zM676 1139l22 112l504 189l-35 -172z" />
<glyph unicode="&#x172;" d="M115 535v878h125v-854q0 -100 22.5 -180t70 -143t129.5 -97.5t193 -34.5t193 34.5t130 97.5t70.5 143.5t22.5 179.5v854h125v-878q0 -115 -26.5 -208t-82 -167.5t-149 -119t-219.5 -52.5q-144 -124 -144 -240q0 -30 10 -49.5t26 -27t26 -9.5t20 -2q30 0 55 20t25 46h92 q0 -66 -51 -112t-123 -46q-25 0 -51.5 8t-55 26.5t-47 56t-18.5 89.5q0 74 38 129t104 107q-135 4 -235.5 47.5t-159.5 119t-87 171t-28 213.5z" />
<glyph unicode="&#x173;" d="M229 285v753h121v-731q0 -12 1.5 -24.5t7 -40t20.5 -50t37.5 -45.5t63.5 -36t93 -13q53 0 107.5 21t104 63.5t88.5 100.5t62 137.5t23 169.5v448h121v-1038h-37q-58 -43 -109.5 -111.5t-51.5 -140.5q0 -30 10 -49.5t26 -27t26 -9.5t20 -2q30 0 54.5 20t24.5 46h93 q0 -66 -51 -112t-123 -46q-25 0 -51.5 8t-55.5 26.5t-47.5 56t-18.5 89.5q0 35 11 68.5t25 57t40.5 50.5t44 42t49.5 40v227h-16q-63 -113 -162 -181t-219 -68q-68 0 -122.5 15t-88 37t-58.5 54.5t-36.5 59t-18 59t-7.5 47t-1 29.5z" />
<glyph unicode="&#x174;" d="M80 1413h129l197 -1282l147 1012h207l147 -1012l197 1282h129l-227 -1413h-191l-158 1049h-2l-157 -1049h-191zM246 1532l319 274h183l319 -274h-197l-204 199h-19l-205 -199h-196z" />
<glyph unicode="&#x175;" d="M90 1038h123l176 -866l193 750h147l193 -750l176 866h123l-226 -1038h-143l-197 778l-196 -778h-144zM246 1161l319 275h183l319 -275h-197l-204 199h-19l-205 -199h-196z" />
<glyph unicode="&#x176;" d="M98 1413h146l397 -616h27l397 616h145l-493 -754v-659h-125v659zM246 1532l319 274h183l319 -274h-197l-204 199h-19l-205 -199h-196z" />
<glyph unicode="&#x177;" d="M-55 -285l94 72q102 -131 233 -131q74 0 121.5 29.5t65.5 78.5l102 279l-440 995h137l363 -807h12l307 807h137l-504 -1310q-33 -85 -108 -136t-191 -51q-196 0 -329 174zM213 1161l319 275h183l319 -275h-196l-205 199h-19l-204 -199h-197z" />
<glyph unicode="&#x178;" d="M98 1413h146l397 -616h27l397 616h145l-493 -754v-659h-125v659zM303 1667q0 50 34 84.5t83 34.5q50 0 84.5 -35t34.5 -84t-34.5 -83t-84.5 -34t-83.5 34t-33.5 83zM770 1667q0 50 34 84.5t83 34.5t84 -35t35 -84t-34.5 -83t-84.5 -34q-49 0 -83 34t-34 83z" />
<glyph unicode="&#x179;" d="M59 0v123l975 1159v14h-907v117h1059v-121l-975 -1161v-14h1034v-117h-1186zM397 1505l23 113l504 188l-35 -172z" />
<glyph unicode="&#x17a;" d="M215 0v117l686 811v6h-635v104h781v-102l-687 -813v-6h736v-117h-881zM397 1135l23 112l504 189l-35 -172z" />
<glyph unicode="&#x17b;" d="M59 0v123l975 1159v14h-907v117h1059v-121l-975 -1161v-14h1034v-117h-1186zM530 1667q0 50 34 84.5t83 34.5t84 -35t35 -84t-34.5 -83t-84.5 -34q-49 0 -83 34t-34 83z" />
<glyph unicode="&#x17c;" d="M215 0v117l686 811v6h-635v104h781v-102l-687 -813v-6h736v-117h-881zM541 1300q0 50 33.5 84.5t82.5 34.5t84 -34.5t35 -84.5q0 -49 -34.5 -82.5t-84.5 -33.5q-49 0 -82.5 33t-33.5 83z" />
<glyph unicode="&#x17d;" d="M59 0v123l975 1159v14h-907v117h1059v-121l-975 -1161v-14h1034v-117h-1186zM244 1806h196l205 -198h19l204 198h197l-320 -274h-182z" />
<glyph unicode="&#x17e;" d="M215 0v117l686 811v6h-635v104h781v-102l-687 -813v-6h736v-117h-881zM244 1436h196l205 -199h19l204 199h197l-320 -275h-182z" />
<glyph unicode="&#x17f;" d="M233 928v110h302v97q0 64 20.5 121.5t61 104t109 74t155.5 27.5q102 0 200 -41t156 -121l-98 -65q-40 55 -111.5 84t-146.5 29q-111 0 -168.5 -60.5t-57.5 -146.5v-1141h-120v928h-302z" />
<glyph unicode="&#x18f;" d="M59 709v34h1061q-2 122 -39.5 228t-101 180t-150 116t-184.5 42q-147 0 -265.5 -89.5t-178.5 -244.5l-115 53q74 185 229 293.5t338 108.5q124 0 234 -53t189.5 -146.5t126 -229t46.5 -292.5q0 -136 -31.5 -253.5t-87.5 -203t-132 -146.5t-167.5 -91.5t-191.5 -30.5 q-120 0 -226.5 53.5t-184.5 147.5t-123.5 230t-45.5 294zM193 627q23 -230 148 -376.5t300 -146.5q189 0 318.5 137.5t156.5 385.5h-923z" />
<glyph unicode="&#x192;" d="M14 -168l68 107q60 -31 141 -31q113 0 166 31q74 46 92 151l131 770h-278l18 107h279l37 227q23 145 145 219q82 49 211 49q151 0 231 -45l-65 -104q-58 30 -148 30q-100 0 -155 -32q-74 -46 -92 -152l-33 -192h352l-18 -107h-351l-137 -805q-26 -148 -143 -217 q-83 -51 -213 -51q-49 0 -78 1.5t-76.5 12t-83.5 31.5z" />
<glyph unicode="&#x1b5;" d="M59 0v123l443 526h-279v117h377l434 516v14h-907v117h1059v-121l-443 -526h349v-117h-447l-434 -518v-14h1034v-117h-1186z" />
<glyph unicode="&#x1b6;" d="M215 0v117l285 338h-148v116h246l303 357v6h-635v104h781v-102l-308 -365h215v-116h-313l-281 -332v-6h736v-117h-881z" />
<glyph unicode="&#x1fa;" d="M109 0l423 1135q-92 65 -92 178q0 87 62 148t151 61q86 0 147.5 -61.5t61.5 -147.5q0 -54 -23.5 -100t-64.5 -74l430 -1139h-133l-158 420h-514l-157 -420h-133zM391 1542l19 92l503 189l-30 -152zM444 539h424l-206 561h-11zM547 1313q0 -46 30 -76.5t76 -30.5 q43 0 73 31t30 76q0 43 -30 72.5t-73 29.5q-45 0 -75.5 -29.5t-30.5 -72.5z" />
<glyph unicode="&#x1fb;" d="M152 307q0 56 22.5 104.5t58 82t84 60t96 42.5t99.5 27l350 73v54q0 25 -3 45t-16.5 49.5t-37.5 50t-71 35t-111 14.5q-83 0 -144 -20.5t-89.5 -50t-45 -58.5t-18.5 -49l-2 -21h-121q0 7 1 18t10 43.5t24 62.5t47 66t75 62t112.5 44t154.5 18q95 0 164.5 -23t105 -54.5 t55.5 -78t24.5 -79.5t4.5 -74v-541q0 -17 3.5 -34t14 -38t34.5 -34.5t59 -14.5q32 0 58 15.5t33 25.5t11 18l102 -51q-2 -4 -8.5 -13.5t-24.5 -27.5t-40 -33t-57.5 -26.5t-75.5 -11.5q-95 0 -144 44.5t-61 108.5h-19q-79 -86 -174.5 -119.5t-159.5 -33.5q-22 0 -42.5 1 t-61.5 7.5t-74 18.5t-72.5 36t-66 57t-45 85.5t-18.5 117.5zM272 309q0 -40 12.5 -73.5t31.5 -54.5t44.5 -37.5t49.5 -24.5t50 -13.5t41.5 -6.5t28.5 -1q76 0 152.5 34t128 94.5t51.5 129.5v230l-307 -66q-50 -11 -88 -22.5t-76.5 -29t-63 -39t-40 -52t-15.5 -68.5z M360 1550l17 84l504 189l-29 -144zM408 1333q0 87 62 148t151 61q86 0 147 -61.5t61 -147.5q0 -89 -61 -151t-147 -62q-89 0 -151 62t-62 151zM514 1333q0 -46 30.5 -76t76.5 -30q43 0 72.5 30.5t29.5 75.5q0 43 -29.5 73t-72.5 30q-45 0 -76 -30t-31 -73z" />
<glyph unicode="&#x1fc;" d="M68 0l395 1413h768v-117h-479v-522h417v-117h-417v-540h483v-117h-608v426h-314l-112 -426h-133zM336 543h291v753h-88zM432 1505l23 113l503 188l-34 -172z" />
<glyph unicode="&#x1fd;" d="M152 289q0 126 89.5 215.5t215.5 89.5h147v350q-56 -2 -102 -13.5t-74.5 -29.5t-49.5 -39t-31 -41.5t-15.5 -37.5t-6.5 -27l-1 -11h-121q0 6 1 17t9.5 43t22.5 61t44.5 65t71 62t106 45t146.5 21h105q203 0 334 -150.5t131 -388.5v-33h-449v-389q110 0 192 60.5 t127 167.5l107 -43q-60 -139 -178 -219t-264 -80h-252q-126 0 -215.5 89.5t-89.5 215.5zM272 293q0 -79 53.5 -135.5t131.5 -59.5h147v389h-147q-78 -5 -131.5 -60.5t-53.5 -133.5zM403 1155l23 113l504 188l-35 -172zM725 594h319q-19 152 -106 247t-213 103v-350z" />
<glyph unicode="&#x1fe;" d="M59 707q0 323 177 526q82 94 191.5 145.5t231.5 51.5q121 0 236 -56l84 182l106 -49l-90 -196q40 -32 80 -78q174 -199 174 -526q0 -329 -172 -529q-82 -94 -190 -144t-228 -50q-136 0 -247 57l-84 -184l-107 49l90 198q-47 40 -78 76q-174 200 -174 527zM188 707 q0 -272 140 -441q20 -27 39 -43l477 1039q-86 47 -189 47q-95 0 -179.5 -42.5t-147.5 -121.5q-140 -169 -140 -438zM397 1522l23 112l504 189l-35 -172zM463 152q91 -48 192 -48q95 0 180 42t148 120q137 170 137 441q0 268 -137 438l-43 45z" />
<glyph unicode="&#x1ff;" d="M168 520q0 118 39 220t105 172t155.5 109.5t189.5 39.5q137 0 252 -76l125 189l76 -52l-129 -194q76 -72 119 -178t43 -230q0 -234 -142 -385t-344 -151q-142 0 -254 71l-129 -192l-75 51l131 199q-76 74 -119 178.5t-43 228.5zM293 520q0 -188 104 -305l447 672 q-85 57 -189 57q-152 0 -257 -119t-105 -305zM391 1155l23 113l504 188l-35 -172zM469 154q85 -56 186 -56q152 0 257.5 118.5t105.5 303.5q0 183 -107 303z" />
<glyph unicode="&#x218;" d="M66 457h133q59 -188 178 -271q114 -82 303 -82q204 0 305 72q115 83 115 244q0 73 -60 133q-24 24 -53.5 42t-54.5 28t-66 18.5t-66.5 11.5t-80 9t-84.5 10q-90 11 -125.5 16t-91.5 16t-83.5 23.5t-61 33t-64.5 50.5q-100 97 -100 240q0 172 161 280q147 99 340 99 q229 0 359 -91q139 -94 211 -301h-138q-59 146 -157 209q-101 62 -273 62q-141 0 -250 -70q-124 -77 -124 -201q0 -80 61 -141q44 -44 114 -65t253 -37q198 -18 301 -52.5t180 -115.5q82 -85 82 -213q0 -208 -148 -322q-141 -108 -395 -108q-233 0 -399 125 q-77 59 -137.5 153.5t-83.5 194.5zM555 -561q78 84 113 178q-41 0 -75 32.5t-34 76.5q0 45 34.5 78.5t80.5 33.5q51 0 84 -36t33 -97v-16q0 -82 -62 -177.5t-117 -144.5z" />
<glyph unicode="&#x219;" d="M176 334h127q0 -5 7.5 -24.5t29.5 -53.5t51 -59q113 -93 289 -93q178 0 268 82q60 57 60 121q0 32 -11 56.5t-35 41t-46.5 27.5t-63 18t-64.5 10t-70.5 7t-64.5 6q-66 7 -111.5 14.5t-101.5 22t-97 38t-67 56.5q-57 74 -57 141q0 96 66 179q102 135 352 135 q258 0 375 -166q24 -36 37.5 -78t15.5 -59t2 -27h-123q0 57 -39 111q-77 104 -262 104t-258 -84q-41 -48 -41 -104q0 -30 12 -53t35.5 -40t51 -29t69.5 -20.5t79.5 -14t90.5 -11.5q195 -21 266 -40t121 -69q64 -64 64 -174q0 -38 -19.5 -89t-62.5 -99q-120 -133 -363 -133 q-248 0 -391 139q-41 40 -71 92.5t-40 82t-10 36.5zM553 -561q78 84 113 178q-41 0 -75 32.5t-34 76.5q0 45 34.5 78.5t80.5 33.5q51 0 83.5 -35.5t32.5 -97.5v-16q0 -82 -61.5 -177.5t-116.5 -144.5z" />
<glyph unicode="&#x21a;" d="M106 1296v117h1100v-117h-489v-1296h-125v1296h-486zM539 -561q77 82 112 178q-41 0 -74.5 32t-33.5 77q0 46 34 79t80 33q51 0 84 -36t33 -97v-16q0 -82 -61.5 -177.5t-116.5 -144.5z" />
<glyph unicode="&#x21b;" d="M154 928v110h292v375h121v-375h508v-110h-508v-623q0 -86 58 -146.5t170 -60.5q74 0 142 33.5t105 101.5l107 -53q-55 -98 -152.5 -147t-201.5 -49q-88 0 -157 27.5t-109.5 74t-61.5 104t-21 121.5v617h-292zM639 -561q78 84 113 178q-41 0 -75 32.5t-34 76.5 q0 45 34.5 78.5t80.5 33.5q51 0 83.5 -35.5t32.5 -97.5v-16q0 -82 -61.5 -177.5t-116.5 -144.5z" />
<glyph unicode="&#x237;" d="M182 -236l107 54q37 -68 105.5 -101.5t142.5 -33.5q112 0 169.5 60t57.5 146v1039h-365v110h486v-1142q0 -64 -20.5 -121.5t-61.5 -104.5t-109.5 -74.5t-156.5 -27.5q-104 0 -202 49t-153 147z" />
<glyph unicode="&#x259;" d="M180 522v33h826q-4 170 -113.5 279.5t-263.5 109.5q-110 0 -191.5 -61.5t-126.5 -171.5l-108 49q60 139 178 219t264 80q100 0 189.5 -39.5t156 -109t105.5 -170.5t39 -218t-39 -218t-105.5 -171t-156 -109.5t-189.5 -39.5q-204 0 -334.5 150t-130.5 388zM309 449 q19 -158 111.5 -254.5t226.5 -96.5q139 0 239.5 97t119.5 254h-697z" />
<glyph unicode="&#x2c6;" d="M246 1182l319 274h183l319 -274h-197l-204 198h-19l-205 -198h-196z" />
<glyph unicode="&#x2c7;" d="M246 1456h196l205 -199h19l204 199h197l-319 -274h-183z" />
<glyph unicode="&#x2c9;" d="M381 1257v111h549v-111h-549z" />
<glyph unicode="&#x2d8;" d="M360 1456h111v-2q0 -78 52.5 -131t127.5 -53q78 0 132.5 53t54.5 131v2h110q0 -123 -87.5 -210t-209.5 -87q-119 0 -205 87t-86 210z" />
<glyph unicode="&#x2d9;" d="M539 1321q0 50 33.5 84.5t82.5 34.5t84 -35t35 -84t-34.5 -83t-84.5 -34q-49 0 -82.5 33.5t-33.5 83.5z" />
<glyph unicode="&#x2da;" d="M408 1376q0 88 63.5 150.5t153.5 62.5q88 0 150.5 -62.5t62.5 -150.5q0 -90 -62.5 -153.5t-150.5 -63.5q-91 0 -154 63t-63 154zM514 1376q0 -47 32 -78.5t79 -31.5q45 0 75.5 31.5t30.5 78.5q0 44 -31 75.5t-75 31.5q-47 0 -79 -31t-32 -76z" />
<glyph unicode="&#x2db;" d="M473 -252q0 35 11 68.5t25 57t40.5 50.5t44 42t49.5 40h92q-33 -24 -67.5 -58t-68.5 -91t-34 -109q0 -30 10 -49.5t26 -27t26 -9.5t20 -2q30 0 55 20t25 46h92q0 -66 -51 -112t-123 -46q-25 0 -51.5 8t-55 26.5t-47 56t-18.5 89.5z" />
<glyph unicode="&#x2dc;" d="M276 1272q81 89 138 119t110 30q48 -1 83 -16.5t81 -46.5q58 -39 88 -39q63 0 166 113l90 -80q-83 -88 -139.5 -118t-108.5 -30q-78 0 -155 56q-62 45 -97 47q-30 0 -67 -23t-98 -92z" />
<glyph unicode="&#x2dd;" d="M94 1155l23 113l504 188l-35 -172zM666 1155l22 113l504 188l-35 -172z" />
<glyph unicode="&#x394;" d="M160 0v111l436 1302h119l436 -1302v-111h-991zM283 111h745l-373 1122z" />
<glyph unicode="&#x3a9;" d="M121 762q0 300 151.5 484t389.5 184q159 0 281 -91.5t184.5 -241t62.5 -329.5q0 -206 -83 -372t-198 -267v-18h271v-111h-445v98q60 44 113 99t104.5 132.5t82 180t30.5 215.5q0 102 -25 202.5t-73 187t-128.5 140.5t-181.5 54q-127 0 -222 -80t-142 -212t-47 -296 q0 -107 31 -208t81.5 -179.5t105 -136.5t111.5 -99v-98h-444v111h268v18q-120 113 -199 273t-79 360z" />
<glyph unicode="&#x3bc;" d="M231 -362v1400h121v-524q0 -114 21.5 -195t63 -127t95 -67t123.5 -21q132 0 208.5 136t76.5 368v430h121v-1038h-121v190v-2q-49 -101 -120.5 -152.5t-149.5 -51.5q-60 0 -98.5 6t-97.5 38.5t-122 96.5v-487h-121z" />
<glyph unicode="&#x3c0;" d="M152 928v110h983v-110h-129v-688q0 -36 1 -56.5t5.5 -43t15 -32.5t27.5 -10h69v-114h-69q-62 0 -101.5 41.5t-55 105t-15.5 150.5v647h-473v-928h-123v928h-135z" />
<glyph unicode="&#x1e80;" d="M80 1413h129l197 -1282l147 1012h207l147 -1012l197 1282h129l-227 -1413h-191l-158 1049h-2l-157 -1049h-191zM391 1806l504 -188l23 -113l-492 129z" />
<glyph unicode="&#x1e81;" d="M90 1038h123l176 -866l193 750h147l193 -750l176 866h123l-226 -1038h-143l-197 778l-196 -778h-144zM391 1436l504 -189l23 -112l-492 129z" />
<glyph unicode="&#x1e82;" d="M80 1413h129l197 -1282l147 1012h207l147 -1012l197 1282h129l-227 -1413h-191l-158 1049h-2l-157 -1049h-191zM391 1505l23 113l504 188l-35 -172z" />
<glyph unicode="&#x1e83;" d="M90 1038h123l176 -866l193 750h147l193 -750l176 866h123l-226 -1038h-143l-197 778l-196 -778h-144zM391 1135l23 112l504 189l-35 -172z" />
<glyph unicode="&#x1e84;" d="M80 1413h129l197 -1282l147 1012h207l147 -1012l197 1282h129l-227 -1413h-191l-158 1049h-2l-157 -1049h-191zM305 1667q0 50 34 84.5t83 34.5q50 0 84.5 -35t34.5 -84t-34.5 -83t-84.5 -34t-83.5 34t-33.5 83zM772 1667q0 50 34 84.5t83 34.5t84 -35t35 -84t-34.5 -83 t-84.5 -34q-49 0 -83 34t-34 83z" />
<glyph unicode="&#x1e85;" d="M90 1038h123l176 -866l193 750h147l193 -750l176 866h123l-226 -1038h-143l-197 778l-196 -778h-144zM303 1300q0 50 34 84.5t83 34.5q50 0 84.5 -34.5t34.5 -84.5q0 -49 -34.5 -82.5t-84.5 -33.5t-83.5 33.5t-33.5 82.5zM770 1300q0 50 34 84.5t83 34.5t84 -34.5 t35 -84.5q0 -49 -34.5 -82.5t-84.5 -33.5t-83.5 33.5t-33.5 82.5z" />
<glyph unicode="&#x1e8a;" d="M45 0l506 674v100l-479 639h155l410 -559h37l411 559h156l-481 -643v-94l506 -676h-156l-440 598h-31l-438 -598h-156zM539 1667q0 50 33.5 84.5t82.5 34.5t84 -35t35 -84t-34.5 -83t-84.5 -34q-49 0 -82.5 33.5t-33.5 83.5z" />
<glyph unicode="&#x1e8b;" d="M201 0l374 528v25l-352 485h148l284 -403h4l285 403h148l-353 -485v-25l375 -528h-147l-308 446h-4l-307 -446h-147zM539 1300q0 50 33.5 84.5t82.5 34.5t84 -34.5t35 -84.5q0 -49 -34.5 -82.5t-84.5 -33.5q-49 0 -82.5 33t-33.5 83z" />
<glyph unicode="&#x1ef2;" d="M98 1413h146l397 -616h27l397 616h145l-493 -754v-659h-125v659zM391 1806l504 -188l23 -113l-492 129z" />
<glyph unicode="&#x1ef3;" d="M-55 -285l94 72q102 -131 233 -131q74 0 121.5 29.5t65.5 78.5l102 279l-440 995h137l363 -807h12l307 807h137l-504 -1310q-33 -85 -108 -136t-191 -51q-196 0 -329 174zM391 1456l504 -188l23 -113l-492 129z" />
<glyph unicode="&#x2000;" horiz-adv-x="912" />
<glyph unicode="&#x2001;" horiz-adv-x="1825" />
<glyph unicode="&#x2002;" horiz-adv-x="912" />
<glyph unicode="&#x2003;" horiz-adv-x="1825" />
<glyph unicode="&#x2004;" horiz-adv-x="608" />
<glyph unicode="&#x2005;" horiz-adv-x="456" />
<glyph unicode="&#x2006;" horiz-adv-x="304" />
<glyph unicode="&#x2007;" horiz-adv-x="304" />
<glyph unicode="&#x2008;" horiz-adv-x="228" />
<glyph unicode="&#x2009;" horiz-adv-x="365" />
<glyph unicode="&#x200a;" horiz-adv-x="101" />
<glyph unicode="&#x2010;" d="M360 438v111h590v-111h-590z" />
<glyph unicode="&#x2011;" d="M360 438v111h590v-111h-590z" />
<glyph unicode="&#x2012;" d="M360 438v111h590v-111h-590z" />
<glyph unicode="&#x2013;" d="M248 438v111h813v-111h-813z" />
<glyph unicode="&#x2014;" d="M94 438v111h1123v-111h-1123z" />
<glyph unicode="&#x2018;" d="M549 1006v22q4 61 30 123.5t60 109t67 84t56 57.5l22 19l66 -73q-115 -115 -162 -242q46 0 80.5 -35.5t34.5 -85.5q0 -51 -37 -88t-88 -37q-56 0 -92.5 40t-36.5 106z" />
<glyph unicode="&#x2019;" d="M461 946q115 115 162 242q-46 0 -80.5 35.5t-34.5 85.5q0 51 37 88t88 37q56 0 92.5 -40t36.5 -106v-22q-4 -61 -30 -124t-60 -109t-67 -84t-56 -57l-23 -20z" />
<glyph unicode="&#x201a;" d="M481 -250q115 115 162 242q-46 0 -80.5 35.5t-34.5 85.5q0 51 37 88t88 37q56 0 92.5 -40t36.5 -106v-22q-4 -61 -30 -124t-60 -109t-67 -84t-55 -57l-23 -20z" />
<glyph unicode="&#x201c;" d="M315 1006v22q4 61 30 123.5t60 109t67 84t56 57.5l23 19l65 -73q-114 -114 -161 -242q46 0 80 -35.5t34 -85.5q0 -51 -37 -88t-88 -37q-56 0 -92.5 40t-36.5 106zM717 1006v22q4 61 30 123.5t60 109t67 84t56 57.5l22 19l66 -73q-115 -115 -162 -242q46 0 80.5 -35.5 t34.5 -85.5q0 -51 -37 -88t-88 -37q-56 0 -92.5 40t-36.5 106z" />
<glyph unicode="&#x201d;" d="M281 946q114 114 161 242q-46 0 -80 35.5t-34 85.5q0 51 37 88t88 37q56 0 92.5 -40t36.5 -106v-22q-4 -61 -30 -124t-60 -109t-67 -84t-56 -57l-23 -20zM682 946q115 115 162 242q-46 0 -80.5 35.5t-34.5 85.5q0 51 37 88t88 37q56 0 92.5 -40t36.5 -106v-22 q-4 -61 -30 -124t-60 -109t-67 -84t-56 -57l-22 -20z" />
<glyph unicode="&#x201e;" d="M281 -250q114 114 161 242q-46 0 -80 35.5t-34 85.5q0 51 37 88t88 37q56 0 92.5 -40t36.5 -106v-22q-4 -61 -30 -124t-60 -109t-67 -84t-56 -57l-23 -20zM682 -250q115 115 162 242q-46 0 -80.5 35.5t-34.5 85.5q0 51 37 88t88 37q56 0 92.5 -40t36.5 -106v-22 q-4 -61 -30 -124t-60 -109t-67 -84t-56 -57l-22 -20z" />
<glyph unicode="&#x2020;" d="M236 940v111h358v379h121v-379h358v-111h-358v-1149h-121v1149h-358z" />
<glyph unicode="&#x2021;" d="M236 170v111h358v659h-358v111h358v379h121v-379h358v-111h-358v-659h358v-111h-358v-379h-121v379h-358z" />
<glyph unicode="&#x2022;" d="M420 569q0 98 68.5 167t166.5 69t167 -69t69 -167t-69 -166.5t-167 -68.5t-166.5 68.5t-68.5 166.5z" />
<glyph unicode="&#x2026;" d="M88 113q0 51 37 88t88 37q55 0 92 -36.5t37 -88.5q0 -55 -37 -92t-92 -37q-52 0 -88.5 37t-36.5 92zM528 113q0 51 37 88t88 37q55 0 92 -36.5t37 -88.5q0 -55 -37 -92t-92 -37q-52 0 -88.5 37t-36.5 92zM969 113q0 51 37 88t88 37q55 0 92 -36.5t37 -88.5 q0 -55 -36.5 -92t-92.5 -37q-52 0 -88.5 37t-36.5 92z" />
<glyph unicode="&#x202f;" horiz-adv-x="365" />
<glyph unicode="&#x2030;" d="M20 434l1078 791h170l-1078 -791h-170zM72 1178q0 105 75.5 180.5t180.5 75.5q104 0 181 -76t77 -180q0 -105 -76.5 -181.5t-181.5 -76.5q-106 0 -181 76t-75 182zM174 1178q0 -65 45 -110.5t109 -45.5t109.5 45.5t45.5 110.5q0 63 -45.5 108t-109.5 45t-109 -45 t-45 -108zM311 233q0 105 75.5 180.5t180.5 75.5q61 0 116.5 -28t90.5 -78q36 50 89.5 78t115.5 28q106 0 182 -76t76 -180q0 -106 -76 -182t-182 -76q-62 0 -115.5 28.5t-89.5 76.5q-36 -48 -90.5 -76.5t-116.5 -28.5q-106 0 -181 76t-75 182zM414 233q0 -65 44.5 -110 t108.5 -45q65 0 110.5 45.5t45.5 109.5q0 63 -46 108.5t-110 45.5t-108.5 -45.5t-44.5 -108.5zM825 233q0 -65 45 -110t109 -45q65 0 110.5 45.5t45.5 109.5q0 63 -46 108.5t-110 45.5t-109 -45.5t-45 -108.5z" />
<glyph unicode="&#x2039;" d="M516 541v57l324 399l82 -77l-293 -338v-25l293 -338l-82 -78z" />
<glyph unicode="&#x203a;" d="M389 219l293 338v25l-293 338l82 77l324 -399v-57l-324 -400z" />
<glyph unicode="&#x2044;" d="M154 0l839 1413h142l-840 -1413h-141z" />
<glyph unicode="&#x205f;" horiz-adv-x="456" />
<glyph unicode="&#x2070;" d="M442 1130q0 124 50 201q36 49 73.5 74t85.5 25q111 0 170 -101q47 -83 47 -199q0 -123 -47 -200q-58 -103 -170 -103q-87 0 -159 101q-50 80 -50 202zM539 1130q0 -88 26 -141q39 -67 88 -67q61 0 92 67q27 55 27 141q0 76 -27 138q-31 67 -92 67q-49 0 -88 -67 q-26 -53 -26 -138z" />
<glyph unicode="&#x2074;" d="M383 967v69l297 377h78v-360h88v-86h-88v-133h-92v133h-283zM492 1053h174v219z" />
<glyph unicode="&#x2075;" d="M453 961l86 22q25 -59 88 -59q34 0 56.5 12t32 32t12.5 35t3 31q0 34 -24 67.5t-68 33.5q-69 0 -92 -45l-84 12l37 311h305v-86h-232l-20 -145q15 20 42.5 32.5t55.5 12.5q49 0 84.5 -20.5t53 -52t25 -61t7.5 -57.5q0 -20 -3 -41t-14.5 -52.5t-30.5 -55t-56.5 -41 t-87.5 -17.5q-75 0 -117.5 40.5t-58.5 91.5z" />
<glyph unicode="&#x2076;" d="M449 1128q0 127 56 214.5t146 87.5q39 0 71 -12t51 -31.5t29.5 -35t16.5 -30.5l-76 -39q-25 55 -90 55q-35 0 -59.5 -22t-35.5 -55t-15 -57t-4 -40q8 10 20 22t39.5 27t54.5 15q82 0 135.5 -57.5t53.5 -141.5q0 -83 -56 -142t-135 -59q-124 0 -176 136q-26 68 -26 165z M553 1030q0 -44 28 -76t68 -32q41 0 70 32t29 76q0 45 -29 77t-70 32q-40 0 -68 -32.5t-28 -76.5z" />
<glyph unicode="&#x2077;" d="M475 1329v86h391v-86q-8 -5 -22 -16.5t-49 -53.5t-62 -93.5t-49 -140t-22 -189.5h-95v4q0 89 17.5 166t51.5 137t56.5 91t59.5 73l10 10v12h-287z" />
<glyph unicode="&#x2078;" d="M457 997q0 47 27.5 87.5t72.5 62.5q-39 21 -61.5 54.5t-22.5 74.5q0 63 52.5 108.5t125.5 45.5t125.5 -45.5t52.5 -108.5q0 -40 -23.5 -75t-62.5 -56q45 -22 73 -62t28 -86q0 -70 -57.5 -120t-137.5 -50t-136 50t-56 120zM551 1012q0 -38 29 -64t71 -26t71.5 26t29.5 64 t-30 65t-71 27t-70.5 -27t-29.5 -65zM567 1262q0 -31 24.5 -51.5t59.5 -20.5t59.5 20.5t24.5 51.5t-24.5 52t-59.5 21t-59.5 -21t-24.5 -52z" />
<glyph unicode="&#x2079;" d="M449 1229q0 83 55.5 142t134.5 59q124 0 176 -136q27 -70 27 -166q0 -126 -56.5 -213.5t-146.5 -87.5q-39 0 -71 12t-51 31.5t-29.5 35t-16.5 30.5l76 39q25 -55 90 -55q35 0 60 22t35.5 55t15 57t4.5 40q-8 -10 -20.5 -22t-40 -27t-54.5 -15q-82 0 -135 57.5t-53 141.5z M543 1227q0 -45 28.5 -77t69.5 -32q40 0 68 32.5t28 76.5t-28 76t-68 32q-41 0 -69.5 -31.5t-28.5 -76.5z" />
<glyph unicode="&#x2080;" d="M440 283q0 124 49 200q73 99 160 99q111 0 170 -101q47 -83 47 -198q0 -124 -47 -201q-57 -102 -170 -102q-89 0 -160 100q-49 79 -49 203zM537 283q0 -89 26 -142q39 -67 88 -67q61 0 92 67q27 55 27 142q0 75 -27 137q-31 67 -92 67q-49 0 -88 -67q-26 -53 -26 -137z " />
<glyph unicode="&#x2081;" d="M512 430v82q26 0 50.5 3t50 9.5t40.5 21t15 34.5h90v-580h-94v465q-59 -35 -152 -35z" />
<glyph unicode="&#x2082;" d="M453 0v61q0 44 57.5 106t142.5 107q47 26 74 53t27 68q0 43 -29 73t-70 30t-68.5 -30t-27.5 -73h-96q0 82 56 139.5t134 57.5q82 0 139.5 -57.5t57.5 -139.5q0 -34 -12.5 -64.5t-26.5 -49.5t-48.5 -44t-51 -35t-62.5 -36q-36 -20 -59 -40t-29 -28.5t-6 -11.5h301v-86 h-403z" />
<glyph unicode="&#x2083;" d="M461 164h94q0 -36 29.5 -63t70.5 -27t71 27t30 63q0 37 -30 64.5t-71 27.5h-34v86h34q35 0 59.5 22t24.5 52q0 28 -24.5 49.5t-59.5 21.5t-60.5 -21.5t-25.5 -49.5h-94q0 77 54.5 121.5t127.5 44.5q72 0 124.5 -46t52.5 -112q0 -46 -21 -72.5t-65 -52.5q50 -27 76 -59 t26 -84q0 -73 -57.5 -124.5t-139.5 -51.5q-80 0 -136 52t-56 132z" />
<glyph unicode="&#x2084;" d="M383 133v70l297 377h78v-361h88v-86h-88v-133h-92v133h-283zM492 219h174v219z" />
<glyph unicode="&#x2085;" d="M455 111l86 22q25 -59 88 -59q34 0 56.5 12t32 32t12.5 35t3 31q0 34 -24 67.5t-68 33.5q-69 0 -92 -45l-84 12l37 311h305v-86h-232l-20 -145q15 20 42.5 32.5t55.5 12.5q49 0 84.5 -20.5t53 -52t25 -61t7.5 -57.5q0 -20 -3 -41t-14.5 -52.5t-30.5 -55t-56.5 -40.5 t-87.5 -17q-75 0 -117.5 40t-58.5 91z" />
<glyph unicode="&#x2086;" d="M449 281q0 126 56 213.5t146 87.5q39 0 71 -12t51 -31.5t29.5 -35t16.5 -30.5l-76 -39q-25 55 -90 55q-35 0 -59.5 -22t-35.5 -55t-15 -57t-4 -40q8 10 20 22t39.5 27t54.5 15q82 0 135.5 -57.5t53.5 -141.5q0 -83 -55.5 -141.5t-135.5 -58.5q-124 0 -176 135 q-26 68 -26 166zM553 182q0 -44 28 -76t68 -32q41 0 70 32t29 76q0 45 -29 77t-70 32q-40 0 -68 -32.5t-28 -76.5z" />
<glyph unicode="&#x2087;" d="M475 494v86h391v-86q-8 -5 -22 -16.5t-49 -54t-62 -94t-49 -140t-22 -189.5h-95v4q0 89 17.5 166t51.5 137t56.5 91t59.5 73l10 10v13h-287z" />
<glyph unicode="&#x2088;" d="M461 150q0 47 27.5 87t72.5 62q-39 21 -61.5 54.5t-22.5 74.5q0 63 52.5 108.5t125.5 45.5t126 -45.5t53 -108.5q0 -40 -23.5 -75t-62.5 -56q45 -22 72.5 -61.5t27.5 -85.5q0 -70 -57.5 -120t-137.5 -50t-136 50t-56 120zM555 164q0 -38 29 -64t71 -26t71.5 26t29.5 64 t-30 65t-71 27t-70.5 -27t-29.5 -65zM571 414q0 -31 24.5 -51.5t59.5 -20.5t59.5 20.5t24.5 51.5t-24.5 52t-59.5 21t-59.5 -21t-24.5 -52z" />
<glyph unicode="&#x2089;" d="M449 381q0 83 55.5 142t134.5 59q124 0 176 -136q27 -70 27 -165q0 -126 -56.5 -213.5t-146.5 -87.5q-39 0 -71 12t-51 31t-29.5 34.5t-16.5 30.5l76 39q25 -55 90 -55q35 0 60 22t35.5 55t15 57t4.5 40q-8 -10 -20.5 -22t-40 -27t-54.5 -15q-82 0 -135 57.5t-53 141.5z M543 379q0 -45 28.5 -77t69.5 -32q40 0 68 32.5t28 76.5t-28 76t-68 32q-41 0 -69.5 -31.5t-28.5 -76.5z" />
<glyph unicode="&#x20ac;" d="M55 518l56 111h114q-2 25 -2 78q0 50 2 75h-170l56 111h129q41 203 159 340q80 94 189 145.5t233 51.5q188 0 340 -130q57 -51 105 -124l-66 -134q-48 108 -121 175q-108 92 -258 92q-207 0 -332 -158q-83 -103 -118 -258h753l-55 -111h-715q-2 -27 -2 -77q0 -51 2 -76 h635l-55 -111h-563q35 -158 118 -258q123 -156 332 -156q161 0 264 95q71 65 115 168l90 -91q-51 -93 -123 -161q-146 -131 -346 -131q-124 0 -233 50.5t-191 145.5q-116 132 -157 338h-185z" />
<glyph unicode="&#x2117;" d="M174 705q0 133 65.5 246t178.5 179t246 66t246 -66t179 -179t66 -246t-66 -246t-179 -178.5t-246 -65.5q-99 0 -190 39t-156.5 104.5t-104.5 156.5t-39 190zM264 705q0 -164 118 -282t282 -118t282.5 118t118.5 282t-118.5 282.5t-282.5 118.5t-282 -118.5t-118 -282.5z M489 436v559h254q67 0 115.5 -47t48.5 -112t-48.5 -112.5t-115.5 -47.5h-161v-240h-93zM582 760h145q39 0 63.5 21.5t24.5 52.5q0 33 -24.5 54t-63.5 21h-145v-149z" />
<glyph unicode="&#x2122;" d="M18 1325v88h555v-88h-231v-620h-94v620h-230zM696 705v708h131l166 -483q27 97 83 244.5t83 238.5h129v-708h-94v571q-27 -91 -69.5 -203t-69.5 -209h-125l-139 412v-571h-95z" />
<glyph unicode="&#x2126;" d="M121 762q0 300 151.5 484t389.5 184q159 0 281 -91.5t184.5 -241t62.5 -329.5q0 -206 -83 -372t-198 -267v-18h271v-111h-445v98q60 44 113 99t104.5 132.5t82 180t30.5 215.5q0 102 -25 202.5t-73 187t-128.5 140.5t-181.5 54q-127 0 -222 -80t-142 -212t-47 -296 q0 -107 31 -208t81.5 -179.5t105 -136.5t111.5 -99v-98h-444v111h268v18q-120 113 -199 273t-79 360z" />
<glyph unicode="&#x2153;" d="M31 311l1077 791h170l-1077 -791h-170zM211 1264v82q156 0 156 67h90v-579h-95v464q-58 -34 -151 -34zM745 176h95q0 -36 29.5 -63t70.5 -27t70.5 27t29.5 63q0 37 -29.5 64.5t-70.5 27.5h-35v86h35q35 0 59.5 22t24.5 52q0 28 -24.5 50t-59.5 22t-60.5 -22t-25.5 -50 h-94q0 77 54.5 121.5t127.5 44.5q72 0 124 -46t52 -112q0 -46 -21 -72.5t-65 -52.5q50 -27 76.5 -59t26.5 -84q0 -73 -57.5 -124.5t-139.5 -51.5q-80 0 -136.5 52t-56.5 132z" />
<glyph unicode="&#x2154;" d="M31 311l1077 791h170l-1077 -791h-170zM201 838v61q0 44 57.5 106t142.5 107q47 26 74 53t27 68q0 43 -29 72.5t-70 29.5t-68.5 -29.5t-27.5 -72.5h-96q0 82 56 139.5t134 57.5q82 0 139.5 -57.5t57.5 -139.5q0 -34 -12.5 -64.5t-26.5 -49.5t-48.5 -44t-51 -35t-62.5 -36 q-36 -20 -59 -40t-29 -28.5t-6 -11.5h301v-86h-403zM745 176h95q0 -36 29.5 -63t70.5 -27t70.5 27t29.5 63q0 37 -29.5 64.5t-70.5 27.5h-35v86h35q35 0 59.5 22t24.5 52q0 28 -24.5 50t-59.5 22t-60.5 -22t-25.5 -50h-94q0 77 54.5 121.5t127.5 44.5q72 0 124 -46t52 -112 q0 -46 -21 -72.5t-65 -52.5q50 -27 76.5 -59t26.5 -84q0 -73 -57.5 -124.5t-139.5 -51.5q-80 0 -136.5 52t-56.5 132z" />
<glyph unicode="&#x2155;" d="M31 311l1077 791h170l-1077 -791h-170zM211 1264v82q156 0 156 67h90v-579h-95v464q-58 -34 -151 -34zM762 123l86 22q25 -59 88 -59q34 0 56.5 12.5t32 32.5t12.5 35t3 31q0 33 -24 66.5t-68 33.5q-69 0 -92 -45l-84 12l37 311h305v-86h-231l-21 -145q15 20 43 32.5 t56 12.5q49 0 84.5 -20t52.5 -52t24.5 -61t7.5 -57q0 -20 -3 -41t-14.5 -52.5t-30.5 -55t-56.5 -41t-87.5 -17.5q-75 0 -117.5 40t-58.5 91z" />
<glyph unicode="&#x2156;" d="M31 311l1077 791h170l-1077 -791h-170zM201 838v61q0 44 57.5 106t142.5 107q47 26 74 53t27 68q0 43 -29 72.5t-70 29.5t-68.5 -29.5t-27.5 -72.5h-96q0 82 56 139.5t134 57.5q82 0 139.5 -57.5t57.5 -139.5q0 -34 -12.5 -64.5t-26.5 -49.5t-48.5 -44t-51 -35t-62.5 -36 q-36 -20 -59 -40t-29 -28.5t-6 -11.5h301v-86h-403zM762 123l86 22q25 -59 88 -59q34 0 56.5 12.5t32 32.5t12.5 35t3 31q0 33 -24 66.5t-68 33.5q-69 0 -92 -45l-84 12l37 311h305v-86h-231l-21 -145q15 20 43 32.5t56 12.5q49 0 84.5 -20t52.5 -52t24.5 -61t7.5 -57 q0 -20 -3 -41t-14.5 -52.5t-30.5 -55t-56.5 -41t-87.5 -17.5q-75 0 -117.5 40t-58.5 91z" />
<glyph unicode="&#x2157;" d="M31 311l1077 791h170l-1077 -791h-170zM205 1012h94q0 -36 29.5 -63t70.5 -27t71 27t30 63q0 37 -30 64.5t-71 27.5h-34v86h34q35 0 59.5 22t24.5 52q0 28 -24.5 49.5t-59.5 21.5t-60.5 -21.5t-25.5 -49.5h-94q0 77 54.5 121.5t127.5 44.5q72 0 124.5 -46t52.5 -112 q0 -46 -21 -72.5t-65 -52.5q50 -27 76 -59t26 -84q0 -73 -57.5 -125t-139.5 -52q-80 0 -136 52.5t-56 132.5zM762 123l86 22q25 -59 88 -59q34 0 56.5 12.5t32 32.5t12.5 35t3 31q0 33 -24 66.5t-68 33.5q-69 0 -92 -45l-84 12l37 311h305v-86h-231l-21 -145q15 20 43 32.5 t56 12.5q49 0 84.5 -20t52.5 -52t24.5 -61t7.5 -57q0 -20 -3 -41t-14.5 -52.5t-30.5 -55t-56.5 -41t-87.5 -17.5q-75 0 -117.5 40t-58.5 91z" />
<glyph unicode="&#x2158;" d="M31 311l1077 791h170l-1077 -791h-170zM104 967v69l297 377h78v-360h88v-86h-88v-133h-92v133h-283zM213 1053h174v219zM762 123l86 22q25 -59 88 -59q34 0 56.5 12.5t32 32.5t12.5 35t3 31q0 33 -24 66.5t-68 33.5q-69 0 -92 -45l-84 12l37 311h305v-86h-231l-21 -145 q15 20 43 32.5t56 12.5q49 0 84.5 -20t52.5 -52t24.5 -61t7.5 -57q0 -20 -3 -41t-14.5 -52.5t-30.5 -55t-56.5 -41t-87.5 -17.5q-75 0 -117.5 40t-58.5 91z" />
<glyph unicode="&#x2159;" d="M31 311l1077 791h170l-1077 -791h-170zM211 1264v82q156 0 156 67h90v-579h-95v464q-58 -34 -151 -34zM739 293q0 126 56.5 213.5t146.5 87.5q39 0 71 -12t51 -31.5t29.5 -35t16.5 -30.5l-76 -39q-25 56 -90 56q-35 0 -60 -22t-35.5 -55t-15 -57t-4.5 -40q8 10 20.5 21.5 t40 26.5t54.5 15q82 0 135.5 -57t53.5 -141q0 -83 -56 -142t-135 -59q-124 0 -176 135q-27 71 -27 166zM844 195q0 -44 28 -76.5t68 -32.5q41 0 69.5 32t28.5 77t-28.5 76.5t-69.5 31.5q-40 0 -68 -32t-28 -76z" />
<glyph unicode="&#x215a;" d="M31 311l1077 791h170l-1077 -791h-170zM209 961l86 22q25 -59 88 -59q34 0 56.5 12t32 32t12.5 35t3 31q0 34 -24 67.5t-68 33.5q-69 0 -92 -45l-84 12l37 311h305v-86h-231l-21 -145q15 20 43 32.5t56 12.5q49 0 84.5 -20.5t53 -52t25 -61t7.5 -57.5q0 -19 -3 -40.5 t-14.5 -53t-31 -55t-57 -41t-87.5 -17.5q-75 0 -117.5 40.5t-58.5 91.5zM739 293q0 126 56.5 213.5t146.5 87.5q39 0 71 -12t51 -31.5t29.5 -35t16.5 -30.5l-76 -39q-25 56 -90 56q-35 0 -60 -22t-35.5 -55t-15 -57t-4.5 -40q8 10 20.5 21.5t40 26.5t54.5 15q82 0 135.5 -57 t53.5 -141q0 -83 -56 -142t-135 -59q-124 0 -176 135q-27 71 -27 166zM844 195q0 -44 28 -76.5t68 -32.5q41 0 69.5 32t28.5 77t-28.5 76.5t-69.5 31.5q-40 0 -68 -32t-28 -76z" />
<glyph unicode="&#x215b;" d="M31 311l1077 791h170l-1077 -791h-170zM211 1264v82q156 0 156 67h90v-579h-95v464q-58 -34 -151 -34zM748 162q0 47 27.5 87t72.5 62q-39 21 -61.5 54.5t-22.5 74.5q0 63 52.5 108.5t125.5 45.5t125.5 -45.5t52.5 -108.5q0 -40 -23.5 -75t-62.5 -56q45 -22 73 -61.5 t28 -85.5q0 -70 -57.5 -120t-137.5 -50t-136 50t-56 120zM842 176q0 -38 29 -64t71 -26t71 26t29 64t-29.5 65t-70.5 27t-70.5 -27t-29.5 -65zM858 426q0 -31 24.5 -51.5t59.5 -20.5t59.5 20.5t24.5 51.5t-24.5 52.5t-59.5 21.5t-59.5 -21.5t-24.5 -52.5z" />
<glyph unicode="&#x215c;" d="M31 311l1077 791h170l-1077 -791h-170zM205 1012h94q0 -36 29.5 -63t70.5 -27t71 27t30 63q0 37 -30 64.5t-71 27.5h-34v86h34q35 0 59.5 22t24.5 52q0 28 -24.5 49.5t-59.5 21.5t-60.5 -21.5t-25.5 -49.5h-94q0 77 54.5 121.5t127.5 44.5q72 0 124.5 -46t52.5 -112 q0 -46 -21 -72.5t-65 -52.5q50 -27 76 -59t26 -84q0 -73 -57.5 -125t-139.5 -52q-80 0 -136 52.5t-56 132.5zM748 162q0 47 27.5 87t72.5 62q-39 21 -61.5 54.5t-22.5 74.5q0 63 52.5 108.5t125.5 45.5t125.5 -45.5t52.5 -108.5q0 -40 -23.5 -75t-62.5 -56q45 -22 73 -61.5 t28 -85.5q0 -70 -57.5 -120t-137.5 -50t-136 50t-56 120zM842 176q0 -38 29 -64t71 -26t71 26t29 64t-29.5 65t-70.5 27t-70.5 -27t-29.5 -65zM858 426q0 -31 24.5 -51.5t59.5 -20.5t59.5 20.5t24.5 51.5t-24.5 52.5t-59.5 21.5t-59.5 -21.5t-24.5 -52.5z" />
<glyph unicode="&#x215d;" d="M31 311l1077 791h170l-1077 -791h-170zM209 961l86 22q25 -59 88 -59q34 0 56.5 12t32 32t12.5 35t3 31q0 34 -24 67.5t-68 33.5q-69 0 -92 -45l-84 12l37 311h305v-86h-231l-21 -145q15 20 43 32.5t56 12.5q49 0 84.5 -20.5t53 -52t25 -61t7.5 -57.5q0 -19 -3 -40.5 t-14.5 -53t-31 -55t-57 -41t-87.5 -17.5q-75 0 -117.5 40.5t-58.5 91.5zM748 162q0 47 27.5 87t72.5 62q-39 21 -61.5 54.5t-22.5 74.5q0 63 52.5 108.5t125.5 45.5t125.5 -45.5t52.5 -108.5q0 -40 -23.5 -75t-62.5 -56q45 -22 73 -61.5t28 -85.5q0 -70 -57.5 -120 t-137.5 -50t-136 50t-56 120zM842 176q0 -38 29 -64t71 -26t71 26t29 64t-29.5 65t-70.5 27t-70.5 -27t-29.5 -65zM858 426q0 -31 24.5 -51.5t59.5 -20.5t59.5 20.5t24.5 51.5t-24.5 52.5t-59.5 21.5t-59.5 -21.5t-24.5 -52.5z" />
<glyph unicode="&#x215e;" d="M31 311l1077 791h170l-1077 -791h-170zM240 1327v86h391v-86q-8 -5 -22 -16.5t-49.5 -53.5t-62.5 -93.5t-49 -140t-22 -189.5h-94v4q0 73 13.5 139.5t30.5 111.5t46.5 92t47 69t46.5 55l10 10v12h-286zM748 162q0 47 27.5 87t72.5 62q-39 21 -61.5 54.5t-22.5 74.5 q0 63 52.5 108.5t125.5 45.5t125.5 -45.5t52.5 -108.5q0 -40 -23.5 -75t-62.5 -56q45 -22 73 -61.5t28 -85.5q0 -70 -57.5 -120t-137.5 -50t-136 50t-56 120zM842 176q0 -38 29 -64t71 -26t71 26t29 64t-29.5 65t-70.5 27t-70.5 -27t-29.5 -65zM858 426q0 -31 24.5 -51.5 t59.5 -20.5t59.5 20.5t24.5 51.5t-24.5 52.5t-59.5 21.5t-59.5 -21.5t-24.5 -52.5z" />
<glyph unicode="&#x2190;" d="M227 623v57l324 399l82 -78l-256 -294h725v-111h-725l256 -295l-82 -78z" />
<glyph unicode="&#x2191;" d="M227 764l400 323h57l399 -323l-77 -82l-295 256v-725h-111v725l-295 -256z" />
<glyph unicode="&#x2192;" d="M227 596v111h725l-256 294l82 78l324 -399v-57l-324 -400l-82 78l256 295h-725z" />
<glyph unicode="&#x2193;" d="M227 537l78 81l295 -256v725h111v-725l295 256l77 -81l-399 -324h-57z" />
<glyph unicode="&#x2196;" d="M301 479l105 502l45 37h514l-9 -113l-391 13l459 -562l-86 -69l-459 561l-65 -383z" />
<glyph unicode="&#x2197;" d="M287 356l458 562l-391 -13l-8 113h514l45 -37l105 -502l-113 -14l-66 383l-458 -561z" />
<glyph unicode="&#x2198;" d="M287 948l86 70l458 -561l66 383l113 -15l-105 -501l-45 -37h-514l8 112l391 -12z" />
<glyph unicode="&#x2199;" d="M301 825l113 15l65 -383l459 561l86 -70l-459 -561l391 12l9 -112h-514l-45 37z" />
<glyph unicode="&#x2202;" d="M119 420q0 68 21 140t64 140.5t102 123t141 87.5t174 33q118 0 215 -71.5t151 -190.5h19q20 100 20 221q0 96 -16.5 178t-42.5 136.5t-60 98t-66.5 68t-64.5 40t-52.5 21t-31.5 5.5v123q16 0 44 -6.5t72 -25.5t89 -49t91.5 -82t82 -118.5t58 -165t22.5 -215.5 q0 -135 -23.5 -266t-74.5 -251t-122.5 -211t-174.5 -145t-224 -54q-108 0 -202.5 56.5t-152.5 157.5t-58 222zM244 420q0 -134 88.5 -228t206.5 -94q84 0 156.5 38.5t117.5 99t70.5 130.5t25.5 136q0 134 -88.5 227.5t-206.5 93.5q-84 0 -156.5 -38.5t-117.5 -98.5 t-70.5 -130t-25.5 -136z" />
<glyph unicode="&#x2206;" d="M160 0v111l436 1302h119l436 -1302v-111h-991zM283 111h745l-373 1122z" />
<glyph unicode="&#x220f;" d="M20 1311v110h1270v-110h-211v-1409h-123v1409h-596v-1409h-122v1409h-218z" />
<glyph unicode="&#x2211;" d="M160 0v104l602 572v59l-602 574v104h991v-110h-807v-11l600 -585l-600 -586v-10h807v-111h-991z" />
<glyph unicode="&#x2212;" d="M238 653v111h835v-111h-835z" />
<glyph unicode="&#x2215;" d="M154 0l839 1413h142l-840 -1413h-141z" />
<glyph unicode="&#x2219;" d="M528 598q0 51 37 88t88 37q55 0 92 -36.5t37 -88.5q0 -56 -37 -92.5t-92 -36.5q-52 0 -88.5 37t-36.5 92z" />
<glyph unicode="&#x221a;" d="M123 1020h121l274 -846l508 1546h393v-110h-309l-535 -1626h-112z" />
<glyph unicode="&#x221e;" d="M96 668q0 107 75 178.5t187 71.5q46 0 88.5 -14.5t82.5 -45t67.5 -57t67.5 -70.5q49 52 74 76t65.5 55t79.5 43.5t86 12.5q111 0 178 -68t67 -176q0 -110 -76.5 -180t-181.5 -70q-77 0 -139 41t-160 141q-38 -40 -53.5 -55.5t-51.5 -46.5t-61.5 -44t-64 -24.5 t-78.5 -11.5q-105 0 -178.5 71t-73.5 173zM221 668q0 -54 39.5 -91.5t95.5 -37.5q91 0 217 116v25q-126 123 -211 123q-59 0 -100 -38.5t-41 -96.5zM748 662q123 -123 204 -123q56 0 97 37.5t41 95.5t-35 94.5t-94 36.5q-89 0 -213 -121v-20z" />
<glyph unicode="&#x222b;" d="M428 -16v110h41q51 0 88 37t37 88v1284q0 89 65.5 153t151.5 64h70v-110h-43q-51 0 -87 -36t-36 -87v-1286q0 -88 -65.5 -152.5t-151.5 -64.5h-70z" />
<glyph unicode="&#x2248;" d="M225 473q92 101 157.5 135.5t125.5 34.5q40 0 76.5 -10t55.5 -20t50 -29q71 -57 115 -62h-2q27 0 48.5 5t64.5 34t90 84l90 -78q-92 -101 -157.5 -135.5t-125.5 -34.5q-40 0 -76.5 10.5t-55 20t-50.5 29.5q-69 56 -115 61h2q-27 0 -48.5 -5t-64.5 -34t-90 -84zM225 766 q92 101 157.5 135.5t125.5 34.5q40 0 76.5 -10t55.5 -20t50 -29q71 -57 115 -62h-2q27 0 48.5 5t64.5 34t90 84l90 -78q-92 -101 -157.5 -135.5t-125.5 -34.5q-40 0 -76.5 10.5t-55 20t-50.5 29.5q-69 56 -115 61h2q-27 0 -48.5 -5t-64.5 -34t-90 -84z" />
<glyph unicode="&#x2260;" d="M250 500v110h299l94 197h-393v111h444l129 268l92 -49l-104 -219h250v-111h-301l-92 -197h393v-110h-447l-125 -267l-94 50l103 217h-248z" />
<glyph unicode="&#x2264;" d="M238 0v111h835v-111h-835zM285 971l663 663l78 -80l-573 -555v-59l573 -553l-78 -80z" />
<glyph unicode="&#x2265;" d="M238 0v111h835v-111h-835zM285 387l573 553v59l-573 555l77 80l664 -663l-664 -664z" />
<glyph unicode="&#x22c5;" d="M528 598q0 51 37 88t88 37q55 0 92 -36.5t37 -88.5q0 -56 -37 -92.5t-92 -36.5q-52 0 -88.5 37t-36.5 92z" />
<glyph unicode="&#x25af;" d="M229 0v1413h852v-1413h-852zM340 111h631v1192h-631v-1192z" />
<glyph unicode="&#x25ca;" d="M160 666v82l436 763h119l436 -763v-82l-436 -764h-119zM285 688l372 -668l369 668v37l-369 668l-372 -668v-37z" />
<glyph unicode="&#xe000;" horiz-adv-x="1034" d="M0 0v1034h1034v-1034h-1034z" />
<glyph unicode="&#xfb01;" d="M92 928v110h301v150q0 152 115 223q80 51 223 51t223 -51q115 -71 115 -223l-121 2q0 89 -53 125q-56 33 -164 33t-164 -33q-53 -36 -53 -125v-152h555v-1038h-121v928h-434v-928h-121v928h-301z" />
<glyph unicode="&#xfb02;" d="M92 928v110h301v101q0 152 115 223q80 51 223 51h338v-1413h-121v1296q-2 0 -42 0.5t-91.5 1t-83.5 0.5q-110 0 -164 -32q-53 -36 -53 -125v-103h315v-110h-315v-928h-121v928h-301z" />
<glyph d="M240 0v111h385v817h-330v110h450v-927h385v-111h-890zM569 1309q0 50 34 84t83 34q50 0 84.5 -34.5t34.5 -83.5t-34.5 -83t-84.5 -34t-83.5 34t-33.5 83z" />
<glyph d="M256 0v1413h125v-1296h840v-117h-965zM672 686q0 51 37 88t88 37q55 0 92 -36.5t37 -88.5q0 -56 -37 -92.5t-92 -36.5q-52 0 -88.5 37t-36.5 92z" />
<glyph d="M240 0v111h385v1192h-330v110h450v-1302h385v-111h-890zM909 686q0 51 37 88t88 37q55 0 92 -36.5t37 -88.5q0 -56 -36.5 -92.5t-92.5 -36.5q-52 0 -88.5 37t-36.5 92z" />
<glyph d="M193 711q0 316 122 508q131 211 342 211q205 0 336 -211q123 -193 123 -508q0 -316 -123 -516q-129 -211 -336 -211q-213 0 -342 211q-122 198 -122 516zM317 711q0 -262 89 -432q95 -181 249 -181q153 0 248 181q88 168 88 432q0 262 -88 426q-95 178 -248 178 q-154 0 -249 -178q-89 -166 -89 -426z" />
<glyph d="M240 1104v113q68 0 128 9t115.5 30t88 61t32.5 96h121v-1302h356v-111h-827v111h350v1083h-14q-73 -54 -156 -72t-194 -18z" />
<glyph d="M145 0v12q0 125 31.5 206.5t99.5 154.5q58 62 149.5 128t246.5 167q65 42 110 84t68 73.5t35 69t14 58.5t2 53v12q0 41 -20.5 90.5t-57 96.5t-98 78.5t-133.5 31.5q-66 0 -120.5 -23.5t-88 -59t-56.5 -77.5t-32.5 -77t-9.5 -60h-125v18q0 33 13 79t46 102t80 103 t123.5 78.5t167.5 31.5q83 0 156 -28t123 -71.5t86.5 -97.5t53.5 -105.5t17 -95.5q0 -46 -4 -82t-21 -90.5t-47 -100.5t-88 -101t-139 -103q-144 -86 -227.5 -144.5t-134.5 -115.5q-72 -81 -72 -133v-51h788v-111h-936z" />
<glyph d="M190 348h127q19 -108 110 -179t212 -71q135 0 230.5 87.5t95.5 213.5q0 122 -92 211.5t-220 89.5h-141v113h127q119 0 203 73t84 177q0 106 -84 180t-203 74t-202.5 -73t-84.5 -179l-123 39q17 138 134.5 232t273.5 94q171 0 292.5 -106.5t121.5 -258.5 q0 -87 -58.5 -166.5t-148.5 -132.5v-16q106 -59 176 -153.5t70 -199.5q0 -113 -60.5 -208t-165 -150t-227.5 -55q-171 0 -299 104t-148 260z" />
<glyph d="M111 395v84l677 934h154v-907h256v-111h-256v-395h-121v395h-710zM258 506h563v756h-4q-115 -160 -287.5 -389.5t-271.5 -366.5z" />
<glyph d="M250 387l123 19q1 -6 2.5 -17.5t9.5 -43.5t20.5 -61t37 -64.5t56.5 -61t81.5 -43t109.5 -17.5q61 0 111 17.5t83 45t57.5 66t37.5 75t21 77.5t10 67.5t2 51.5q0 39 -6.5 81t-26 92t-48.5 88.5t-80 64.5t-116 26q-58 0 -113 -27.5t-89.5 -64t-56 -67t-23.5 -42.5l-146 17 l72 747h698v-110h-585q-5 -49 -24.5 -218t-27.5 -260h6q53 62 129.5 106t165.5 44q94 0 167 -34.5t115.5 -85.5t69.5 -117.5t36.5 -123t9.5 -110.5q0 -32 -3 -67t-14 -88t-29.5 -100t-53 -97t-80 -86t-115 -59t-154.5 -23q-74 0 -137.5 19t-106.5 49t-78 70.5t-55.5 78 t-35 78t-20 65t-7.5 43.5z" />
<glyph d="M190 705q0 200 58.5 363.5t172 262.5t261.5 99q314 0 434 -316l-110 -39q-87 240 -320 240q-170 0 -270.5 -175t-100.5 -454h9q57 114 149 186t199 72q128 0 234.5 -65.5t166.5 -177t60 -244.5q0 -97 -35.5 -184.5t-95.5 -150.5t-143.5 -100.5t-176.5 -37.5 q-150 0 -260.5 84.5t-171.5 240.5q-60 162 -60 396zM354 463q0 -152 95.5 -258.5t230.5 -106.5q137 0 232.5 106.5t95.5 258.5t-96 259t-232 107q-135 0 -230.5 -107t-95.5 -259z" />
<glyph d="M256 1303v110h848v-115q-11 -9 -29 -26t-70.5 -78t-100 -130.5t-105.5 -183.5t-100 -237.5t-70.5 -291t-28.5 -345.5v-6h-123v6q0 187 31.5 365.5t77.5 310.5t109.5 253.5t116 197t108.5 139.5v31h-664z" />
<glyph d="M205 397q0 106 68.5 200.5t175.5 152.5v14q-91 55 -148 133.5t-57 167.5q0 152 120.5 258.5t288.5 106.5q171 0 292.5 -106.5t121.5 -258.5q0 -87 -58.5 -166.5t-148.5 -132.5v-16q106 -59 176 -153.5t70 -199.5q0 -113 -60.5 -208t-165 -150t-227.5 -55 q-185 0 -316.5 121t-131.5 292zM330 399q0 -126 95 -213.5t230 -87.5t230.5 87.5t95.5 213.5q0 122 -91.5 211.5t-219.5 89.5h-29q-131 -6 -221 -93t-90 -208zM369 1063q0 -104 83.5 -177t202.5 -73t203 73t84 177q0 106 -84 180t-203 74t-202.5 -74t-83.5 -180z" />
<glyph d="M180 956q0 129 59.5 238t163.5 172.5t228 63.5q150 0 260.5 -85t171.5 -241q59 -160 59 -395q0 -200 -58 -363.5t-171.5 -262.5t-261.5 -99q-315 0 -434 315l110 39q87 -240 320 -240q170 0 270 175t100 454h-8q-57 -114 -149 -186t-199 -72q-128 0 -234.5 65.5 t-166.5 177t-60 244.5zM305 950q0 -152 96 -259t232 -107q135 0 230 107t95 259t-95 258.5t-230 106.5q-137 0 -232.5 -106.5t-95.5 -258.5z" />
<glyph d="M555 -561q78 84 113 178q-41 0 -75 32.5t-34 76.5q0 45 34.5 78.5t80.5 33.5q51 0 84 -36t33 -97v-16q0 -82 -62 -177.5t-117 -144.5z" />
<glyph d="M541 690v6q1 123 27 251t61 224t83.5 192.5t81.5 150t68 102.5h113q-12 -17 -32.5 -47t-72.5 -128t-92 -200t-73.5 -251.5t-34.5 -293.5v-4q0 -142 31 -288t76 -252.5t89.5 -192.5t75.5 -130l31 -44h-113q-35 49 -70 103.5t-82.5 148.5t-82 189t-59.5 219.5t-25 244.5z " />
<glyph d="M336 1616h113q35 -49 68 -102.5t81.5 -150t83.5 -192.5t61 -224t27 -251v-6q0 -120 -25 -244.5t-59.5 -219.5t-82 -189t-82.5 -148.5t-70 -103.5h-113q6 8 17 23.5t42.5 67t60 106.5t63.5 139.5t60.5 169t42.5 191t17 210.5v4q-1 144 -33 291.5t-76.5 255.5t-89 195.5 t-75.5 132.5z" />
<glyph d="M360 520v111h590v-111h-590z" />
<glyph d="M555 -209v1819h332v-111h-211v-1597h211v-111h-332z" />
<glyph d="M424 -98h211v1597h-211v111h332v-1819h-332v111z" />
<glyph d="M389 1806l504 -188l22 -113l-491 129z" />
<glyph d="M485 645v129q152 50 152 201v379q0 139 36.5 197.5t133.5 58.5h72v-115h-70q-34 0 -41.5 -40t-7.5 -146v-359q0 -184 -125 -243q125 -70 125 -236v-424q0 -36 1 -56t5.5 -42.5t15 -32.5t27.5 -10h70v-115h-70q-62 0 -101.5 41.5t-55 105t-15.5 150.5v358q0 135 -152 199z " />
<glyph d="M432 -94h70q17 0 27.5 10t15 32.5t5.5 42.5t1 56v424q0 166 125 236q-125 59 -125 243v359q0 106 -7.5 146t-41.5 40h-70v115h72q97 0 133.5 -58.5t36.5 -197.5v-379q0 -151 151 -201v-129q-151 -63 -151 -199v-358q0 -87 -15.5 -150.5t-55 -105t-101.5 -41.5h-70v115z " />
<glyph d="M315 1667q0 50 34 84.5t83 34.5q50 0 84.5 -35t34.5 -84t-34.5 -83t-84.5 -34t-83.5 34t-33.5 83zM782 1667q0 50 34 84.5t83 34.5t84 -35t35 -84t-34.5 -83t-84.5 -34q-49 0 -83 34t-34 83z" />
<glyph d="M274 623v57l324 399l82 -78l-293 -337v-25l293 -338l-82 -78zM684 623v57l324 399l82 -78l-293 -337v-25l293 -338l-82 -78z" />
<glyph d="M360 651v111h590v-111h-590z" />
<glyph d="M377 1608v110h549v-110h-549z" />
<glyph d="M389 1505l23 113l503 188l-34 -172z" />
<glyph d="M496 -274h92q0 -25 25.5 -45.5t54.5 -20.5q31 0 56.5 20.5t25.5 45.5q0 26 -16 44t-44 21h-88v209h96v-119q62 -9 103 -52.5t41 -102.5q0 -66 -50 -112t-122 -46t-123 46t-51 112z" />
<glyph d="M258 301l293 338v25l-293 337l82 78l324 -399v-57l-324 -400zM668 301l293 338v25l-293 337l82 78l323 -399v-57l-323 -400z" />
<glyph d="M248 1532l319 274h183l319 -274h-197l-204 199h-19l-205 -199h-196z" />
<glyph d="M248 1806h196l205 -198h19l204 198h197l-319 -274h-183z" />
<glyph d="M360 1806h111v-2q0 -78 52.5 -131t127.5 -53q78 0 132.5 53t54.5 131v2h110q0 -123 -87.5 -210t-209.5 -87q-119 0 -205 87t-86 210z" />
<glyph d="M549 1667q0 50 34 84.5t83 34.5t83.5 -34.5t34.5 -84.5q0 -49 -34 -83t-84 -34t-83.5 34t-33.5 83z" />
<glyph d="M438 1583q0 88 63.5 150.5t153.5 62.5q88 0 150.5 -62.5t62.5 -150.5q0 -90 -62.5 -153.5t-150.5 -63.5q-91 0 -154 63t-63 154zM545 1583q0 -47 31.5 -78.5t78.5 -31.5q45 0 76 31.5t31 78.5q0 44 -31.5 75.5t-75.5 31.5q-47 0 -78.5 -31t-31.5 -76z" />
<glyph d="M473 -252q0 35 11 68.5t25 57t40.5 50.5t44 42t49.5 40h92q-33 -24 -67.5 -58t-68.5 -91t-34 -109q0 -30 10 -49.5t26 -27t26 -9.5t20 -2q30 0 55 20t25 46h92q0 -66 -51 -112t-123 -46q-25 0 -51.5 8t-55 26.5t-47 56t-18.5 89.5z" />
<glyph d="M276 1622q81 89 138 119.5t110 30.5q48 -1 83 -16.5t81 -47.5q58 -39 88 -39q63 0 166 113l90 -80q-83 -88 -139.5 -118t-108.5 -30q-78 0 -155 56q-62 45 -97 47q-30 0 -67 -23t-98 -92z" />
<glyph d="M104 1505l23 113l504 188l-35 -172zM676 1505l22 113l504 188l-35 -172z" />
<glyph d="M248 520v111h813v-111h-813z" />
<glyph d="M94 520v111h1123v-111h-1123z" />
<glyph d="M516 623v57l324 399l82 -78l-293 -337v-25l293 -338l-82 -78z" />
<glyph d="M389 301l293 338v25l-293 337l82 78l324 -399v-57l-324 -400z" />
<glyph d="M193 711q0 316 122 508q131 211 342 211q205 0 336 -211q123 -193 123 -508q0 -316 -123 -516q-129 -211 -336 -211q-213 0 -342 211q-122 198 -122 516zM317 711q0 -216 58 -365l497 840q-89 129 -217 129q-154 0 -249 -178q-89 -166 -89 -426zM434 229 q86 -131 221 -131q153 0 248 181q88 168 88 432q0 204 -57 358z" />
<glyph d="M158 520q0 146 62 270t169.5 196.5t235.5 72.5q101 0 190 -55t160 -156h12v190h121v-1038h-121v182h-12q-139 -198 -350 -198q-128 0 -235.5 72t-169.5 195.5t-62 268.5zM283 520q0 -177 101 -299.5t249 -122.5q161 0 255 111.5t99 294.5v18q0 191 -94 306.5t-260 115.5 q-148 0 -249 -122.5t-101 -301.5z" />
<glyph d="M158 520q0 146 62 270t169.5 196.5t235.5 72.5q101 0 190 -55t160 -156h12v190h121v-1038h-121v182h-12q-139 -198 -350 -198q-128 0 -235.5 72t-169.5 195.5t-62 268.5zM283 520q0 -177 101 -299.5t249 -122.5q161 0 255 111.5t99 294.5v18q0 191 -94 306.5t-260 115.5 q-148 0 -249 -122.5t-101 -301.5zM412 1456l503 -188l23 -113l-492 129z" />
<glyph d="M158 520q0 146 62 270t169.5 196.5t235.5 72.5q101 0 190 -55t160 -156h12v190h121v-1038h-121v182h-12q-139 -198 -350 -198q-128 0 -235.5 72t-169.5 195.5t-62 268.5zM283 520q0 -177 101 -299.5t249 -122.5q161 0 255 111.5t99 294.5v18q0 191 -94 306.5t-260 115.5 q-148 0 -249 -122.5t-101 -301.5zM410 1155l22 113l504 188l-35 -172z" />
<glyph d="M158 520q0 146 62 270t169.5 196.5t235.5 72.5q101 0 190 -55t160 -156h12v190h121v-1038h-121v182h-12q-139 -198 -350 -198q-128 0 -235.5 72t-169.5 195.5t-62 268.5zM231 1182l320 274h182l320 -274h-197l-205 198h-18l-205 -198h-197zM283 520q0 -177 101 -299.5 t249 -122.5q161 0 255 111.5t99 294.5v18q0 191 -94 306.5t-260 115.5q-148 0 -249 -122.5t-101 -301.5z" />
<glyph d="M158 520q0 146 62 270t169.5 196.5t235.5 72.5q101 0 190 -55t160 -156h12v190h121v-1038h-121v182h-12q-139 -198 -350 -198q-128 0 -235.5 72t-169.5 195.5t-62 268.5zM254 1272q81 89 138 119t110 30q48 -1 83 -16.5t81 -46.5q58 -39 88 -39q63 0 166 113l90 -80 q-83 -88 -139.5 -118t-108.5 -30q-79 0 -156 56q-63 45 -96 47q-65 0 -166 -115zM283 520q0 -177 101 -299.5t249 -122.5q161 0 255 111.5t99 294.5v18q0 191 -94 306.5t-260 115.5q-148 0 -249 -122.5t-101 -301.5z" />
<glyph d="M158 520q0 146 62 270t169.5 196.5t235.5 72.5q101 0 190 -55t160 -156h12v190h121v-1038h-121v182h-12q-139 -198 -350 -198q-128 0 -235.5 72t-169.5 195.5t-62 268.5zM283 520q0 -177 101 -299.5t249 -122.5q161 0 255 111.5t99 294.5v18q0 191 -94 306.5t-260 115.5 q-148 0 -249 -122.5t-101 -301.5zM293 1321q0 50 34 84.5t83 34.5t83.5 -34.5t34.5 -84.5q0 -49 -34 -83t-84 -34t-83.5 34t-33.5 83zM760 1321q0 50 34 84.5t83 34.5t83.5 -34.5t34.5 -84.5q0 -49 -34 -83t-84 -34q-49 0 -83 34t-34 83z" />
<glyph d="M158 520q0 146 62 270t169.5 196.5t235.5 72.5q101 0 190 -55t160 -156h12v190h121v-1038h-121v182h-12q-139 -198 -350 -198q-128 0 -235.5 72t-169.5 195.5t-62 268.5zM283 520q0 -177 101 -299.5t249 -122.5q161 0 255 111.5t99 294.5v18q0 191 -94 306.5t-260 115.5 q-148 0 -249 -122.5t-101 -301.5zM428 1376q0 88 63.5 150.5t153.5 62.5q88 0 150.5 -62.5t62.5 -150.5q0 -90 -62.5 -153.5t-150.5 -63.5q-91 0 -154 63t-63 154zM535 1376q0 -47 31.5 -78.5t78.5 -31.5q45 0 76 31.5t31 78.5q0 44 -31.5 75.5t-75.5 31.5q-47 0 -78.5 -31 t-31.5 -76z" />
<glyph d="M158 520q0 146 62 270t169.5 196.5t235.5 72.5q101 0 190 -55t160 -156h12v190h121v-1038h-121v182h-12q-139 -198 -350 -198q-128 0 -235.5 72t-169.5 195.5t-62 268.5zM283 520q0 -177 101 -299.5t249 -122.5q161 0 255 111.5t99 294.5v18q0 191 -94 306.5t-260 115.5 q-148 0 -249 -122.5t-101 -301.5zM373 1257v111h549v-111h-549z" />
<glyph d="M158 520q0 146 62 270t169.5 196.5t235.5 72.5q101 0 190 -55t160 -156h12v190h121v-1038h-121v182h-12q-139 -198 -350 -198q-128 0 -235.5 72t-169.5 195.5t-62 268.5zM283 520q0 -177 101 -299.5t249 -122.5q161 0 255 111.5t99 294.5v18q0 191 -94 306.5t-260 115.5 q-148 0 -249 -122.5t-101 -301.5zM362 1456h111v-2q0 -78 52.5 -131t127.5 -53q78 0 132.5 53t54.5 131v2h110q0 -123 -87.5 -210t-209.5 -87q-119 0 -205 87t-86 210z" />
<glyph d="M158 520q0 146 62 270t169.5 196.5t235.5 72.5q101 0 190 -55t160 -156h12v190h121v-1038h-37q-57 -43 -109.5 -112.5t-52.5 -139.5q0 -30 10 -49.5t26 -27t26 -9.5t20 -2q30 0 55 20t25 46h92q0 -66 -51 -112t-123 -46q-25 0 -51.5 8t-55 26.5t-47 56t-18.5 89.5 q0 35 11 68.5t25 57t40.5 50.5t44 42t49.5 40v176h-12q-139 -198 -350 -198q-128 0 -235.5 72t-169.5 195.5t-62 268.5zM283 520q0 -177 101 -299.5t249 -122.5q161 0 255 111.5t99 294.5v18q0 191 -94 306.5t-260 115.5q-148 0 -249 -122.5t-101 -301.5z" />
<glyph d="M158 520q0 146 62 270t169.5 196.5t235.5 72.5q101 0 190 -55t160 -156h12v190h121v-1038h-121v182h-12q-139 -198 -350 -198q-128 0 -235.5 72t-169.5 195.5t-62 268.5zM283 520q0 -177 101 -299.5t249 -122.5q161 0 255 111.5t99 294.5v18q0 191 -94 306.5t-260 115.5 q-148 0 -249 -122.5t-101 -301.5zM381 1550l16 84l504 189l-29 -144zM428 1333q0 87 62 148t151 61q86 0 147.5 -61.5t61.5 -147.5q0 -89 -61 -151t-148 -62q-89 0 -151 62t-62 151zM535 1333q0 -46 30 -76t76 -30q43 0 72.5 30.5t29.5 75.5q0 43 -29.5 73t-72.5 30 q-45 0 -75.5 -30t-30.5 -73z" />
<glyph d="M168 -125q0 92 53 155t139 97v10q-56 19 -91 54t-36 102q0 55 34.5 92.5t90.5 69.5v47q-40 43 -62 99.5t-22 111.5q0 142 115.5 244t276.5 102q117 0 206 -53l23 8l2 10q40 147 193 147q27 0 51 -6l-19 -114q-14 2 -41 2q-34 0 -59 -14t-36.5 -35t-16 -39.5t-4.5 -34.5 q88 -95 88 -217q0 -144 -114 -246t-273 -102q-120 0 -211 51q-101 -22 -101 -123q0 -92 140 -92h180q272 0 392 -76.5t120 -249.5q0 -90 -68.5 -166t-186.5 -120t-257 -44q-219 0 -362.5 98t-143.5 232zM291 -121q0 -96 111 -159.5t272 -63.5q164 0 276.5 63.5t112.5 159.5 q0 114 -90.5 162.5t-298.5 48.5q-194 0 -288.5 -59t-94.5 -152zM395 717q0 -103 77 -172.5t187 -69.5q116 0 194.5 69t78.5 173q0 97 -79 164t-194 67q-109 0 -186.5 -67.5t-77.5 -163.5z" />
<glyph d="M168 -125q0 92 53 155t139 97v10q-56 19 -91 54t-36 102q0 55 34.5 92.5t90.5 69.5v47q-40 43 -62 99.5t-22 111.5q0 142 115.5 244t276.5 102q117 0 206 -53l23 8l6 10q65 92 154 92q12 0 25 -2t23.5 -5t18.5 -6t14 -6t7 -3l-56 -107q-18 12 -47 12q-40 0 -57.5 -21 t-17.5 -48q88 -95 88 -217q0 -144 -114 -246t-273 -102q-120 0 -211 51q-101 -22 -101 -123q0 -92 140 -92h180q272 0 392 -76.5t120 -249.5q0 -90 -68.5 -166t-186.5 -120t-257 -44q-219 0 -362.5 98t-143.5 232zM246 1182l319 274h183l319 -274h-197l-204 198h-19 l-205 -198h-196zM291 -121q0 -96 111 -159.5t272 -63.5q164 0 276.5 63.5t112.5 159.5q0 114 -90.5 162.5t-298.5 48.5q-194 0 -288.5 -59t-94.5 -152zM395 717q0 -103 77 -172.5t187 -69.5q116 0 194.5 69t78.5 173q0 97 -79 164t-194 67q-109 0 -186.5 -67.5t-77.5 -163.5 z" />
<glyph d="M168 -125q0 92 53 155t139 97v10q-56 19 -91 54t-36 102q0 55 34.5 92.5t90.5 69.5v47q-40 43 -62 99.5t-22 111.5q0 142 115.5 244t276.5 102q117 0 206 -53l23 8l2 10q40 147 193 147q27 0 51 -6l-19 -114q-14 2 -41 2q-34 0 -59 -14t-36.5 -35t-16 -39.5t-4.5 -34.5 q88 -95 88 -217q0 -144 -114 -246t-273 -102q-120 0 -211 51q-101 -22 -101 -123q0 -92 140 -92h180q272 0 392 -76.5t120 -249.5q0 -90 -68.5 -166t-186.5 -120t-257 -44q-219 0 -362.5 98t-143.5 232zM291 -121q0 -96 111 -159.5t272 -63.5q164 0 276.5 63.5t112.5 159.5 q0 114 -90.5 162.5t-298.5 48.5q-194 0 -288.5 -59t-94.5 -152zM373 1456h110v-2q0 -78 53 -131t128 -53q78 0 132 53t54 131v2h111q0 -123 -87.5 -210t-209.5 -87q-119 0 -205 87t-86 210zM395 717q0 -103 77 -172.5t187 -69.5q116 0 194.5 69t78.5 173q0 97 -79 164 t-194 67q-109 0 -186.5 -67.5t-77.5 -163.5z" />
<glyph d="M168 -125q0 92 53 155t139 97v10q-56 19 -91 54t-36 102q0 55 34.5 92.5t90.5 69.5v47q-40 43 -62 99.5t-22 111.5q0 142 115.5 244t276.5 102q117 0 206 -53l23 8l2 10q40 147 193 147q27 0 51 -6l-19 -114q-14 2 -41 2q-34 0 -59 -14t-36.5 -35t-16 -39.5t-4.5 -34.5 q88 -95 88 -217q0 -144 -114 -246t-273 -102q-120 0 -211 51q-101 -22 -101 -123q0 -92 140 -92h180q272 0 392 -76.5t120 -249.5q0 -90 -68.5 -166t-186.5 -120t-257 -44q-219 0 -362.5 98t-143.5 232zM291 -121q0 -96 111 -159.5t272 -63.5q164 0 276.5 63.5t112.5 159.5 q0 114 -90.5 162.5t-298.5 48.5q-194 0 -288.5 -59t-94.5 -152zM395 717q0 -103 77 -172.5t187 -69.5q116 0 194.5 69t78.5 173q0 97 -79 164t-194 67q-109 0 -186.5 -67.5t-77.5 -163.5zM539 1321q0 50 33.5 84.5t82.5 34.5t84 -35t35 -84t-34.5 -83t-84.5 -34 q-49 0 -82.5 33.5t-33.5 83.5z" />
<glyph d="M168 -125q0 92 53 155t139 97v10q-56 19 -91 54t-36 102q0 55 34.5 92.5t90.5 69.5v47q-40 43 -62 99.5t-22 111.5q0 142 115.5 244t276.5 102q117 0 206 -53l23 8l2 10q40 147 193 147q27 0 51 -6l-19 -114q-14 2 -41 2q-34 0 -59 -14t-36.5 -35t-16 -39.5t-4.5 -34.5 q88 -95 88 -217q0 -144 -114 -246t-273 -102q-120 0 -211 51q-101 -22 -101 -123q0 -92 140 -92h180q272 0 392 -76.5t120 -249.5q0 -90 -68.5 -166t-186.5 -120t-257 -44q-219 0 -362.5 98t-143.5 232zM291 -121q0 -96 111 -159.5t272 -63.5q164 0 276.5 63.5t112.5 159.5 q0 114 -90.5 162.5t-298.5 48.5q-194 0 -288.5 -59t-94.5 -152zM395 717q0 -103 77 -172.5t187 -69.5q116 0 194.5 69t78.5 173q0 97 -79 164t-194 67q-109 0 -186.5 -67.5t-77.5 -163.5zM547 1350v20q8 97 67 186.5t117 141.5l60 -74q-84 -91 -117 -184q42 0 73 -33t31 -78 q0 -46 -34 -79t-80 -33q-51 0 -84 36t-33 97z" />
<glyph d="M182 -236l107 54q37 -68 105.5 -101.5t142.5 -33.5q112 0 169.5 60t57.5 146v1149h121v-1142q0 -64 -20.5 -121.5t-61.5 -104.5t-109.5 -74.5t-156.5 -27.5q-104 0 -202 49t-153 147zM709 1309q0 50 33.5 84t82.5 34q50 0 84.5 -34.5t34.5 -83.5t-34.5 -83t-84.5 -34 q-49 0 -82.5 33.5t-33.5 83.5z" />
<glyph d="M78 0v111h325v817h-270v110h391v-927h326v-111h-772zM348 1309q0 50 34 84t83 34q50 0 84.5 -34.5t34.5 -83.5t-34.5 -83t-84.5 -34q-49 0 -83 34t-34 83zM520 -236l107 54q37 -68 105 -101.5t142 -33.5q112 0 170 60t58 146v1149h121v-1142q0 -64 -21 -121.5 t-61.5 -104.5t-109.5 -74.5t-157 -27.5q-104 0 -201.5 49t-152.5 147zM1047 1309q0 50 33.5 84t82.5 34q50 0 84.5 -34.5t34.5 -83.5t-34.5 -83t-84.5 -34q-49 0 -82.5 33.5t-33.5 83.5z" />
<glyph d="M182 -236l107 54q37 -68 105.5 -101.5t142.5 -33.5q112 0 169.5 60t57.5 146v1149h121v-1142q0 -64 -20.5 -121.5t-61.5 -104.5t-109.5 -74.5t-156.5 -27.5q-104 0 -202 49t-153 147zM408 1161l319 275h182l320 -275h-197l-205 199h-18l-205 -199h-196z" />
<glyph d="M182 -236l107 54q37 -68 105.5 -101.5t142.5 -33.5q112 0 169.5 60t57.5 146v1149h121v-1142q0 -64 -20.5 -121.5t-61.5 -104.5t-109.5 -74.5t-156.5 -27.5q-104 0 -202 49t-153 147z" />
<glyph d="M39 424l446 256l101 31q-17 7 -54.5 17.5t-48.5 14.5l-442 256l57 99l434 -252l89 -74l-23 109v508h115v-508l-23 -109q15 11 47 38.5t41 35.5l436 254l58 -99l-445 -258l-104 -32q73 -23 102 -31l447 -258l-58 -100l-438 253l-86 74q3 -18 11.5 -54.5t11.5 -51.5v-508 h-115v508l20 104q-51 -47 -83 -72l-439 -251z" />
<glyph d="M104 453h127q55 -176 170 -258q80 -60 201 -76v547l-121 16q-142 19 -239 109q-97 97 -97 229q0 168 156 270q129 87 301 94v215h115v-219q151 -15 252 -82q132 -88 202 -288h-131q-59 138 -153 198q-66 44 -170 56v-492l110 -12q203 -25 312 -146q80 -87 80 -202 q0 -200 -144 -310q-129 -99 -358 -102v-219h-115v225q-164 21 -285 113q-75 57 -132.5 147t-80.5 187zM268 1010q0 -79 60 -136q63 -60 164 -73l110 -15v482q-122 -6 -217 -64q-117 -84 -117 -194zM717 115q177 3 268 69q109 80 109 234q0 70 -58 125q-78 75 -221 94l-98 12 v-534z" />
<glyph d="M152 0v119q6 -1 31 10.5t61.5 38.5t70 64t57 96.5t23.5 126.5t-24 247h-199v111h184q-37 220 -37 309q0 59 24 110t63 86.5t89.5 61t103 38t103.5 12.5q81 0 148 -23.5t107.5 -58t69 -75t39.5 -72.5t11 -52h-123q0 6 -7.5 23t-26.5 42t-46 48t-73 39t-101 16 q-58 0 -116 -23.5t-100 -73.5t-42 -116q0 -76 35 -291h498v-111h-479q24 -144 24 -247q0 -108 -61.5 -198.5t-139.5 -139.5v-6h820v-111h-987z" />
<glyph d="M555 -561q78 84 113 178q-41 0 -75 32.5t-34 76.5q0 45 34.5 78.5t80.5 33.5q51 0 84 -36t33 -97v-16q0 -82 -62 -177.5t-117 -144.5z" />
</font>
</defs>
</svg>
